M48
; DRILL file {KiCad 8.0.1} date 2024-04-26T17:57:54-0500
; FORMAT={-:-/ absolute / metric / decimal}
; #@! TF.CreationDate,2024-04-26T17:57:54-05:00
; #@! TF.GenerationSoftware,Kicad,Pcbnew,8.0.1
; #@! TF.FileFunction,Plated,1,2,PTH
FMAT,2
METRIC
; #@! TA.AperFunction,Plated,PTH,ViaDrill
T1C0.300
; #@! TA.AperFunction,Plated,PTH,ViaDrill
T2C0.330
; #@! TA.AperFunction,Plated,PTH,ViaDrill
T3C0.400
; #@! TA.AperFunction,Plated,PTH,ComponentDrill
T4C0.500
; #@! TA.AperFunction,Plated,PTH,ComponentDrill
T5C0.600
; #@! TA.AperFunction,Plated,PTH,ComponentDrill
T6C0.798
; #@! TA.AperFunction,Plated,PTH,ComponentDrill
T7C0.800
; #@! TA.AperFunction,Plated,PTH,ComponentDrill
T8C1.000
%
G90
G05
T1
X110.0Y-103.75
X110.75Y-88.75
X110.75Y-113.0
X113.5Y-92.0
X113.5Y-104.25
X114.25Y-79.75
X115.0Y-103.0
X115.251Y-99.12
X115.5Y-105.5
X116.0Y-99.5
X116.0Y-102.5
X116.156Y-98.538
X117.503Y-98.061
X117.75Y-96.75
X119.5Y-84.25
X119.5Y-102.25
X120.0Y-101.5
X120.5Y-95.0
X121.75Y-101.5
X123.25Y-84.5
X123.5Y-94.0
X123.5Y-95.0
X124.0Y-103.5
X124.202Y-102.704
X125.67Y-92.15
X127.0Y-97.0
X127.5Y-93.5
X127.5Y-104.25
X130.25Y-107.25
X130.5Y-108.75
X131.25Y-91.5
X132.0Y-114.5
X134.0Y-116.25
X134.75Y-92.75
X136.5Y-95.75
X136.5Y-105.5
X136.75Y-97.0
X136.75Y-99.0
X136.75Y-101.0
X138.0Y-95.0
X138.5Y-109.25
X140.0Y-99.0
X140.0Y-100.75
T2
X116.7Y-106.7
X117.9Y-106.7
X121.911Y-117.028
X124.46Y-109.982
X124.5Y-107.249
X124.714Y-114.554
X124.714Y-116.586
X125.222Y-106.68
X126.045Y-113.03
X126.492Y-112.014
X126.492Y-114.554
T3
X116.586Y-108.966
X117.094Y-113.03
X118.872Y-106.68
X120.904Y-98.552
X120.904Y-100.838
X120.904Y-102.87
X121.158Y-106.68
X121.2Y-91.7
X121.412Y-80.538
X122.428Y-110.998
X122.682Y-98.552
X122.682Y-100.838
X122.682Y-102.87
X124.46Y-98.75
X127.3Y-101.6
X130.556Y-118.618
T4
X110.5Y-107.0
X110.5Y-108.0
X126.0Y-94.5
X126.0Y-95.5
X132.75Y-96.75
X132.75Y-97.75
T6
X113.5Y-89.5
X114.859Y-88.149
T7
X136.5Y-83.0
X136.5Y-89.5
T8
X107.5Y-109.13
X107.5Y-111.67
X107.5Y-114.21
X107.5Y-116.75
X107.71Y-94.38
X107.71Y-96.92
X107.71Y-99.46
X107.71Y-102.0
X110.25Y-94.38
X110.25Y-96.92
X110.25Y-99.46
X110.25Y-102.0
X129.21Y-104.5
X131.75Y-104.5
T5
X117.123Y-81.4G85X117.123Y-80.6
G05
X117.123Y-85.73G85X117.123Y-84.63
G05
X125.763Y-81.4G85X125.763Y-80.6
G05
X125.763Y-85.73G85X125.763Y-84.63
G05
M30
