G04 #@! TF.GenerationSoftware,KiCad,Pcbnew,8.0.1*
G04 #@! TF.CreationDate,2024-04-26T17:57:17-05:00*
G04 #@! TF.ProjectId,HCIPCB_ATSAMD21G18_template,48434950-4342-45f4-9154-53414d443231,rev?*
G04 #@! TF.SameCoordinates,Original*
G04 #@! TF.FileFunction,Copper,L2,Bot*
G04 #@! TF.FilePolarity,Positive*
%FSLAX46Y46*%
G04 Gerber Fmt 4.6, Leading zero omitted, Abs format (unit mm)*
G04 Created by KiCad (PCBNEW 8.0.1) date 2024-04-26 17:57:17*
%MOMM*%
%LPD*%
G01*
G04 APERTURE LIST*
G04 Aperture macros list*
%AMRoundRect*
0 Rectangle with rounded corners*
0 $1 Rounding radius*
0 $2 $3 $4 $5 $6 $7 $8 $9 X,Y pos of 4 corners*
0 Add a 4 corners polygon primitive as box body*
4,1,4,$2,$3,$4,$5,$6,$7,$8,$9,$2,$3,0*
0 Add four circle primitives for the rounded corners*
1,1,$1+$1,$2,$3*
1,1,$1+$1,$4,$5*
1,1,$1+$1,$6,$7*
1,1,$1+$1,$8,$9*
0 Add four rect primitives between the rounded corners*
20,1,$1+$1,$2,$3,$4,$5,0*
20,1,$1+$1,$4,$5,$6,$7,0*
20,1,$1+$1,$6,$7,$8,$9,0*
20,1,$1+$1,$8,$9,$2,$3,0*%
G04 Aperture macros list end*
G04 #@! TA.AperFunction,ComponentPad*
%ADD10R,0.850000X0.850000*%
G04 #@! TD*
G04 #@! TA.AperFunction,ComponentPad*
%ADD11O,0.850000X0.850000*%
G04 #@! TD*
G04 #@! TA.AperFunction,ComponentPad*
%ADD12O,1.000000X2.100000*%
G04 #@! TD*
G04 #@! TA.AperFunction,ComponentPad*
%ADD13RoundRect,0.250000X0.250000X0.650000X-0.250000X0.650000X-0.250000X-0.650000X0.250000X-0.650000X0*%
G04 #@! TD*
G04 #@! TA.AperFunction,ComponentPad*
%ADD14R,1.300000X1.300000*%
G04 #@! TD*
G04 #@! TA.AperFunction,ComponentPad*
%ADD15C,1.300000*%
G04 #@! TD*
G04 #@! TA.AperFunction,ComponentPad*
%ADD16R,1.700000X1.700000*%
G04 #@! TD*
G04 #@! TA.AperFunction,ComponentPad*
%ADD17O,1.700000X1.700000*%
G04 #@! TD*
G04 #@! TA.AperFunction,ComponentPad*
%ADD18C,1.676400*%
G04 #@! TD*
G04 #@! TA.AperFunction,ViaPad*
%ADD19C,0.800000*%
G04 #@! TD*
G04 #@! TA.AperFunction,ViaPad*
%ADD20C,0.500000*%
G04 #@! TD*
G04 #@! TA.AperFunction,ViaPad*
%ADD21C,0.685800*%
G04 #@! TD*
G04 #@! TA.AperFunction,Conductor*
%ADD22C,0.500000*%
G04 #@! TD*
G04 #@! TA.AperFunction,Conductor*
%ADD23C,0.200000*%
G04 #@! TD*
G04 #@! TA.AperFunction,Conductor*
%ADD24C,0.152400*%
G04 #@! TD*
G04 APERTURE END LIST*
D10*
X110500000Y-107000000D03*
D11*
X110500000Y-108000000D03*
D12*
X125763119Y-85179999D03*
X117123119Y-85179999D03*
D13*
X125763119Y-80999999D03*
X117123119Y-80999999D03*
D14*
X136500000Y-83000000D03*
D15*
X136500000Y-89500000D03*
D16*
X107500000Y-109130000D03*
D17*
X107500000Y-111670000D03*
X107500000Y-114210000D03*
X107500000Y-116750000D03*
D10*
X126000000Y-95500000D03*
D11*
X126000000Y-94500000D03*
D18*
X114858900Y-88148720D03*
X113500000Y-89500000D03*
D16*
X107710000Y-102000000D03*
D17*
X110250000Y-102000000D03*
X107710000Y-99460000D03*
X110250000Y-99460000D03*
X107710000Y-96920000D03*
X110250000Y-96920000D03*
X107710000Y-94380000D03*
X110250000Y-94380000D03*
D16*
X131750000Y-104500000D03*
D17*
X129210000Y-104500000D03*
D10*
X132750000Y-96750000D03*
D11*
X132750000Y-97750000D03*
D19*
X120904000Y-100838000D03*
X127300000Y-101600000D03*
D20*
X127500000Y-93500000D03*
D19*
X124460000Y-98750000D03*
X120904000Y-98552000D03*
X130556000Y-118618000D03*
X117094000Y-113030000D03*
D20*
X110750000Y-88750000D03*
X114250000Y-79750000D03*
D19*
X118872000Y-106680000D03*
D20*
X119500000Y-102250000D03*
X130250000Y-107250000D03*
D19*
X120904000Y-102870000D03*
D20*
X110750000Y-113000000D03*
D19*
X122682000Y-102870000D03*
D20*
X117750000Y-96750000D03*
X127000000Y-97000000D03*
D19*
X122682000Y-100838000D03*
X122682000Y-98552000D03*
X121158000Y-106680000D03*
D20*
X113500000Y-104250000D03*
D19*
X121412000Y-80538000D03*
X116586000Y-108966000D03*
X121200000Y-91700000D03*
D20*
X113500000Y-92000000D03*
D19*
X122428000Y-110998000D03*
D20*
X110000000Y-103750000D03*
D21*
X126492000Y-114554000D03*
X124460000Y-109982000D03*
X124714000Y-114554000D03*
D20*
X119500000Y-84250000D03*
X123250000Y-84500000D03*
D21*
X125222000Y-106680000D03*
X126492000Y-112014000D03*
X124500000Y-107249400D03*
X124714000Y-116586000D03*
X126045400Y-113030000D03*
X121911343Y-117027691D03*
D20*
X116000000Y-102500000D03*
X115250943Y-99119639D03*
X116000000Y-99500000D03*
X115000000Y-103000000D03*
D21*
X116700000Y-106700000D03*
X117900000Y-106700000D03*
D20*
X124000000Y-103500000D03*
X115500000Y-105500000D03*
X136500000Y-105500000D03*
X123500000Y-95000000D03*
X136500000Y-95750000D03*
X123500000Y-94000000D03*
X136750000Y-97000000D03*
X117503500Y-98061001D03*
X131250000Y-91500000D03*
X116156400Y-98538001D03*
X138500000Y-109250000D03*
X120500000Y-95000000D03*
X138000000Y-95000000D03*
X140000000Y-100750000D03*
X140000000Y-99000000D03*
X121750000Y-101500000D03*
X134750000Y-92750000D03*
X125670000Y-92150000D03*
X120000000Y-101500000D03*
X136750000Y-101000000D03*
X136750000Y-99000000D03*
X130500000Y-108750000D03*
X127500000Y-104250000D03*
X124202000Y-102704000D03*
X132000000Y-114500000D03*
X134000000Y-116250000D03*
D22*
X117123119Y-85179999D02*
X117123119Y-80999999D01*
X125763119Y-85179999D02*
X125763119Y-80999999D01*
D23*
X125107971Y-114160029D02*
X124714000Y-114554000D01*
X124714000Y-114554000D02*
X126492000Y-114554000D01*
X124460000Y-109982000D02*
X125103489Y-110625489D01*
X125107971Y-111261992D02*
X125107971Y-114160029D01*
X125103489Y-110625489D02*
X125103489Y-111257510D01*
X125103489Y-111257510D02*
X125107971Y-111261992D01*
X123000000Y-84250000D02*
X119500000Y-84250000D01*
X123250000Y-84500000D02*
X123000000Y-84250000D01*
X125802520Y-111578520D02*
X126238000Y-112014000D01*
X126238000Y-112014000D02*
X126492000Y-112014000D01*
X125802520Y-107260520D02*
X125802520Y-111578520D01*
X125222000Y-106680000D02*
X125802520Y-107260520D01*
X124500000Y-107249400D02*
X125476000Y-108225400D01*
X121911343Y-117027691D02*
X122353034Y-116586000D01*
X125476000Y-112460600D02*
X126045400Y-113030000D01*
X125476000Y-108225400D02*
X125476000Y-112460600D01*
X122353034Y-116586000D02*
X124714000Y-116586000D01*
D24*
X116453200Y-99312278D02*
X116453200Y-102046800D01*
X116187722Y-99046800D02*
X116453200Y-99312278D01*
X115250943Y-99119639D02*
X115323782Y-99046800D01*
X115323782Y-99046800D02*
X116187722Y-99046800D01*
X116453200Y-102046800D02*
X116000000Y-102500000D01*
X114796800Y-102796800D02*
X115000000Y-103000000D01*
X115500000Y-99500000D02*
X114796800Y-100203200D01*
X116000000Y-99500000D02*
X115500000Y-99500000D01*
X114796800Y-100203200D02*
X114796800Y-102796800D01*
D23*
X116700000Y-106700000D02*
X117900000Y-106700000D01*
X115500000Y-105500000D02*
X123416500Y-105500000D01*
X123916000Y-103584000D02*
X124000000Y-103500000D01*
X136423000Y-105577000D02*
X126077000Y-105577000D01*
X136500000Y-105500000D02*
X136423000Y-105577000D01*
X123416500Y-105500000D02*
X123916000Y-105000500D01*
X123916000Y-105000500D02*
X123916000Y-103584000D01*
X126077000Y-105577000D02*
X124000000Y-103500000D01*
X123000000Y-99500000D02*
X120825420Y-99500000D01*
X123416000Y-95084000D02*
X123416000Y-98416000D01*
X120825420Y-99500000D02*
X113977420Y-106348000D01*
X137083028Y-99804000D02*
X128304000Y-99804000D01*
X136500000Y-95750000D02*
X137554000Y-96804000D01*
X109477000Y-107197580D02*
X109197580Y-107477000D01*
X109931420Y-106348000D02*
X109477000Y-106802420D01*
X108727000Y-107477000D02*
X107710000Y-106460000D01*
X109477000Y-106802420D02*
X109477000Y-107197580D01*
X123500000Y-95000000D02*
X123416000Y-95084000D01*
X128304000Y-99804000D02*
X123500000Y-95000000D01*
X113977420Y-106348000D02*
X109931420Y-106348000D01*
X123500000Y-98500000D02*
X123500000Y-99000000D01*
X109197580Y-107477000D02*
X108727000Y-107477000D01*
X123500000Y-99000000D02*
X123000000Y-99500000D01*
X137554000Y-99333028D02*
X137083028Y-99804000D01*
X137554000Y-96804000D02*
X137554000Y-99333028D01*
X107710000Y-106460000D02*
X107710000Y-102000000D01*
X123416000Y-98416000D02*
X123500000Y-98500000D01*
X136947580Y-99477000D02*
X128727000Y-99477000D01*
X123500000Y-94250000D02*
X123500000Y-94000000D01*
X136750000Y-97000000D02*
X137227000Y-97477000D01*
X118157552Y-94380000D02*
X110250000Y-94380000D01*
X118537552Y-94000000D02*
X123500000Y-94000000D01*
X118537552Y-94000000D02*
X118157552Y-94380000D01*
X128727000Y-99477000D02*
X123500000Y-94250000D01*
X137227000Y-97477000D02*
X137227000Y-99197580D01*
X137227000Y-99197580D02*
X136947580Y-99477000D01*
X108846000Y-95516000D02*
X110250000Y-96920000D01*
X109668443Y-92976000D02*
X108846000Y-93798443D01*
X111391001Y-98061001D02*
X110250000Y-96920000D01*
X122588501Y-92976000D02*
X109668443Y-92976000D01*
X117503500Y-98061001D02*
X111391001Y-98061001D01*
X124064501Y-91500000D02*
X122588501Y-92976000D01*
X108846000Y-93798443D02*
X108846000Y-95516000D01*
X131250000Y-91500000D02*
X124064501Y-91500000D01*
X122006550Y-113625411D02*
X122006550Y-112340389D01*
X107946109Y-112747000D02*
X107053891Y-112747000D01*
X107053891Y-112747000D02*
X106423000Y-112116109D01*
X116936061Y-107269900D02*
X112089852Y-112116109D01*
X107263891Y-98383000D02*
X109173000Y-98383000D01*
X112089852Y-112116109D02*
X108577000Y-112116109D01*
X114236000Y-99460000D02*
X110250000Y-99460000D01*
X108577000Y-112116109D02*
X107946109Y-112747000D01*
X109173000Y-98383000D02*
X110250000Y-99460000D01*
X124477939Y-115123900D02*
X123821489Y-114467450D01*
X123821489Y-114467450D02*
X122848589Y-114467450D01*
X122006550Y-112340389D02*
X116936061Y-107269900D01*
X115053361Y-98642639D02*
X114236000Y-99460000D01*
X132626100Y-115123900D02*
X124477939Y-115123900D01*
X106423000Y-112116109D02*
X106423000Y-99223891D01*
X138500000Y-109250000D02*
X132626100Y-115123900D01*
X116051762Y-98642639D02*
X116156400Y-98538001D01*
X115053361Y-98642639D02*
X116051762Y-98642639D01*
X122848589Y-114467450D02*
X122006550Y-113625411D01*
X106423000Y-99223891D02*
X107263891Y-98383000D01*
X109098420Y-105227000D02*
X114326948Y-105227000D01*
X117830500Y-101723448D02*
X117830500Y-99588000D01*
X109098420Y-105227000D02*
X109098420Y-100848420D01*
X127422068Y-95000000D02*
X125725068Y-93303000D01*
X120000000Y-95500000D02*
X120500000Y-95000000D01*
X109173000Y-94826109D02*
X109846891Y-95500000D01*
X138000000Y-95000000D02*
X127422068Y-95000000D01*
X109846891Y-95500000D02*
X120000000Y-95500000D01*
X120416000Y-95084000D02*
X120500000Y-95000000D01*
X109803891Y-93303000D02*
X109173000Y-93933891D01*
X117830500Y-99588000D02*
X120416000Y-97002500D01*
X109173000Y-93933891D02*
X109173000Y-94826109D01*
X125725068Y-93303000D02*
X109803891Y-93303000D01*
X109098420Y-100848420D02*
X107710000Y-99460000D01*
X120416000Y-97002500D02*
X120416000Y-95084000D01*
X114326948Y-105227000D02*
X117830500Y-101723448D01*
X140000000Y-102674580D02*
X136697580Y-105977000D01*
X136697580Y-105977000D02*
X115023000Y-105977000D01*
X115023000Y-105977000D02*
X109330000Y-111670000D01*
X109330000Y-111670000D02*
X107500000Y-111670000D01*
X140000000Y-100750000D02*
X140000000Y-102674580D01*
X122417712Y-100211000D02*
X121750000Y-100878712D01*
X138789000Y-100211000D02*
X122417712Y-100211000D01*
X121750000Y-100878712D02*
X121750000Y-101500000D01*
X140000000Y-99000000D02*
X138789000Y-100211000D01*
X126270000Y-92750000D02*
X125670000Y-92150000D01*
X134750000Y-92750000D02*
X126270000Y-92750000D01*
X120727000Y-102227000D02*
X120000000Y-101500000D01*
X136750000Y-101000000D02*
X129779420Y-101000000D01*
X128552420Y-102227000D02*
X120727000Y-102227000D01*
X129779420Y-101000000D02*
X128552420Y-102227000D01*
X136500000Y-99000000D02*
X135250000Y-97750000D01*
X135250000Y-97750000D02*
X132750000Y-97750000D01*
X136750000Y-99000000D02*
X136500000Y-99000000D01*
X125954000Y-102704000D02*
X124202000Y-102704000D01*
X127500000Y-104250000D02*
X125954000Y-102704000D01*
X132000000Y-114500000D02*
X132000000Y-110250000D01*
X132000000Y-110250000D02*
X130500000Y-108750000D01*
G04 #@! TA.AperFunction,Conductor*
G36*
X116980093Y-108190583D02*
G01*
X117025156Y-108219544D01*
X120282567Y-111476955D01*
X120316593Y-111539267D01*
X120311528Y-111610082D01*
X120268981Y-111666918D01*
X120202461Y-111691729D01*
X120193472Y-111692050D01*
X120163701Y-111692050D01*
X119955696Y-111724995D01*
X119955690Y-111724996D01*
X119755410Y-111790071D01*
X119755404Y-111790074D01*
X119567757Y-111885685D01*
X119397381Y-112009471D01*
X119397378Y-112009473D01*
X119248473Y-112158378D01*
X119248471Y-112158381D01*
X119124685Y-112328757D01*
X119029074Y-112516404D01*
X119029071Y-112516410D01*
X118963996Y-112716690D01*
X118963995Y-112716695D01*
X118963995Y-112716696D01*
X118931050Y-112924701D01*
X118931050Y-113135299D01*
X118950186Y-113256116D01*
X118963996Y-113343309D01*
X119029071Y-113543589D01*
X119029073Y-113543594D01*
X119124683Y-113731239D01*
X119248469Y-113901616D01*
X119248471Y-113901618D01*
X119248473Y-113901621D01*
X119397378Y-114050526D01*
X119397381Y-114050528D01*
X119397384Y-114050531D01*
X119567761Y-114174317D01*
X119755406Y-114269927D01*
X119955696Y-114335005D01*
X120163701Y-114367950D01*
X120163704Y-114367950D01*
X120374296Y-114367950D01*
X120374299Y-114367950D01*
X120582304Y-114335005D01*
X120782594Y-114269927D01*
X120970239Y-114174317D01*
X121140616Y-114050531D01*
X121283637Y-113907509D01*
X121345947Y-113873486D01*
X121416763Y-113878550D01*
X121473599Y-113921097D01*
X121481850Y-113933605D01*
X121519628Y-113999038D01*
X121519630Y-113999040D01*
X121519633Y-113999044D01*
X122474955Y-114954366D01*
X122474960Y-114954370D01*
X122474962Y-114954372D01*
X122474963Y-114954373D01*
X122474965Y-114954374D01*
X122494541Y-114965676D01*
X122613716Y-115034482D01*
X122613722Y-115034483D01*
X122613723Y-115034484D01*
X122661434Y-115047268D01*
X122661435Y-115047268D01*
X122768478Y-115075950D01*
X122768479Y-115075950D01*
X122776667Y-115077028D01*
X122776259Y-115080122D01*
X122830170Y-115095952D01*
X122876663Y-115149608D01*
X122886767Y-115219882D01*
X122873168Y-115261352D01*
X122871699Y-115264098D01*
X122823018Y-115381625D01*
X122823017Y-115381628D01*
X122798200Y-115506388D01*
X122798200Y-115633611D01*
X122813727Y-115711666D01*
X122823017Y-115758373D01*
X122823018Y-115758377D01*
X122823019Y-115758378D01*
X122841619Y-115803282D01*
X122849208Y-115873871D01*
X122817429Y-115937358D01*
X122756371Y-115973586D01*
X122725210Y-115977500D01*
X122272923Y-115977500D01*
X122189989Y-115999722D01*
X122118164Y-116018967D01*
X122118157Y-116018970D01*
X122026956Y-116071626D01*
X121979409Y-116099076D01*
X121979400Y-116099084D01*
X121939100Y-116139385D01*
X121876789Y-116173411D01*
X121850004Y-116176291D01*
X121821857Y-116176291D01*
X121646796Y-116213501D01*
X121483293Y-116286297D01*
X121338507Y-116391491D01*
X121218749Y-116524497D01*
X121129267Y-116679485D01*
X121129264Y-116679490D01*
X121072483Y-116854245D01*
X121032409Y-116912850D01*
X120967012Y-116940487D01*
X120897056Y-116928380D01*
X120895497Y-116927600D01*
X120782594Y-116870073D01*
X120782591Y-116870072D01*
X120782589Y-116870071D01*
X120582309Y-116804996D01*
X120582305Y-116804995D01*
X120582304Y-116804995D01*
X120374299Y-116772050D01*
X120163701Y-116772050D01*
X119955696Y-116804995D01*
X119955690Y-116804996D01*
X119755410Y-116870071D01*
X119755404Y-116870074D01*
X119567757Y-116965685D01*
X119397381Y-117089471D01*
X119397378Y-117089473D01*
X119248473Y-117238378D01*
X119248471Y-117238381D01*
X119124685Y-117408757D01*
X119029074Y-117596404D01*
X119029071Y-117596410D01*
X118963996Y-117796690D01*
X118963995Y-117796695D01*
X118963995Y-117796696D01*
X118931050Y-118004701D01*
X118931050Y-118215299D01*
X118963995Y-118423304D01*
X118963996Y-118423309D01*
X119029071Y-118623589D01*
X119029073Y-118623594D01*
X119124683Y-118811239D01*
X119248469Y-118981616D01*
X119248471Y-118981618D01*
X119248473Y-118981621D01*
X119397378Y-119130526D01*
X119397381Y-119130528D01*
X119397384Y-119130531D01*
X119567761Y-119254317D01*
X119728244Y-119336087D01*
X119779858Y-119384834D01*
X119796924Y-119453749D01*
X119774023Y-119520951D01*
X119718426Y-119565103D01*
X119671040Y-119574353D01*
X105786588Y-119574353D01*
X105718467Y-119554351D01*
X105671974Y-119500695D01*
X105660588Y-119448353D01*
X105660588Y-112482811D01*
X105680590Y-112414690D01*
X105734246Y-112368197D01*
X105804520Y-112358093D01*
X105869100Y-112387587D01*
X105895707Y-112419811D01*
X105936075Y-112489732D01*
X105936077Y-112489734D01*
X105936078Y-112489736D01*
X106528026Y-113081684D01*
X106562050Y-113143995D01*
X106556986Y-113214810D01*
X106531631Y-113256116D01*
X106424280Y-113372729D01*
X106424275Y-113372734D01*
X106301141Y-113561206D01*
X106210703Y-113767386D01*
X106210702Y-113767387D01*
X106155437Y-113985624D01*
X106155436Y-113985630D01*
X106155436Y-113985632D01*
X106136844Y-114210000D01*
X106152801Y-114402571D01*
X106155437Y-114434375D01*
X106210702Y-114652612D01*
X106210703Y-114652613D01*
X106301141Y-114858793D01*
X106424275Y-115047265D01*
X106424279Y-115047270D01*
X106576762Y-115212908D01*
X106631331Y-115255381D01*
X106754424Y-115351189D01*
X106788205Y-115369470D01*
X106838596Y-115419482D01*
X106853949Y-115488799D01*
X106829389Y-115555412D01*
X106788209Y-115591096D01*
X106754704Y-115609228D01*
X106754698Y-115609232D01*
X106577097Y-115747465D01*
X106424674Y-115913041D01*
X106301580Y-116101451D01*
X106211179Y-116307543D01*
X106211176Y-116307550D01*
X106163455Y-116495999D01*
X106163456Y-116496000D01*
X107069297Y-116496000D01*
X107034075Y-116557007D01*
X107000000Y-116684174D01*
X107000000Y-116815826D01*
X107034075Y-116942993D01*
X107069297Y-117004000D01*
X106163455Y-117004000D01*
X106211176Y-117192449D01*
X106211179Y-117192456D01*
X106301580Y-117398548D01*
X106424674Y-117586958D01*
X106577097Y-117752534D01*
X106754698Y-117890767D01*
X106754699Y-117890768D01*
X106952628Y-117997882D01*
X106952630Y-117997883D01*
X107165483Y-118070955D01*
X107165492Y-118070957D01*
X107246000Y-118084391D01*
X107246000Y-117180702D01*
X107307007Y-117215925D01*
X107434174Y-117250000D01*
X107565826Y-117250000D01*
X107692993Y-117215925D01*
X107754000Y-117180702D01*
X107754000Y-118084390D01*
X107834507Y-118070957D01*
X107834516Y-118070955D01*
X108047369Y-117997883D01*
X108047371Y-117997882D01*
X108245300Y-117890768D01*
X108245301Y-117890767D01*
X108422902Y-117752534D01*
X108575325Y-117586958D01*
X108698419Y-117398548D01*
X108788820Y-117192456D01*
X108788823Y-117192449D01*
X108836544Y-117004000D01*
X107930703Y-117004000D01*
X107965925Y-116942993D01*
X108000000Y-116815826D01*
X108000000Y-116684174D01*
X107990739Y-116649611D01*
X117718200Y-116649611D01*
X117733377Y-116725909D01*
X117743017Y-116774373D01*
X117791699Y-116891901D01*
X117862374Y-116997674D01*
X117952326Y-117087626D01*
X118058099Y-117158301D01*
X118175627Y-117206983D01*
X118283054Y-117228351D01*
X118300388Y-117231799D01*
X118300391Y-117231799D01*
X118300394Y-117231800D01*
X118300395Y-117231800D01*
X118427605Y-117231800D01*
X118427606Y-117231800D01*
X118552373Y-117206983D01*
X118669901Y-117158301D01*
X118775674Y-117087626D01*
X118865626Y-116997674D01*
X118936301Y-116891901D01*
X118984983Y-116774373D01*
X119009800Y-116649606D01*
X119009800Y-116522394D01*
X118984983Y-116397627D01*
X118936301Y-116280099D01*
X118865626Y-116174326D01*
X118775674Y-116084374D01*
X118773327Y-116082806D01*
X118723149Y-116049278D01*
X118669901Y-116013699D01*
X118552373Y-115965017D01*
X118516725Y-115957926D01*
X118427611Y-115940200D01*
X118427606Y-115940200D01*
X118300394Y-115940200D01*
X118300388Y-115940200D01*
X118193450Y-115961471D01*
X118175627Y-115965017D01*
X118175625Y-115965018D01*
X118058097Y-116013700D01*
X117952329Y-116084371D01*
X117952323Y-116084376D01*
X117862376Y-116174323D01*
X117862371Y-116174329D01*
X117811810Y-116250000D01*
X117791699Y-116280099D01*
X117780329Y-116307550D01*
X117743018Y-116397625D01*
X117743017Y-116397628D01*
X117718200Y-116522388D01*
X117718200Y-116649611D01*
X107990739Y-116649611D01*
X107965925Y-116557007D01*
X107930703Y-116496000D01*
X108836544Y-116496000D01*
X108836544Y-116495999D01*
X108788823Y-116307550D01*
X108788820Y-116307543D01*
X108698419Y-116101451D01*
X108575325Y-115913041D01*
X108422902Y-115747465D01*
X108245301Y-115609232D01*
X108245300Y-115609231D01*
X108211791Y-115591097D01*
X108161401Y-115541083D01*
X108146050Y-115471766D01*
X108170612Y-115405153D01*
X108211790Y-115369472D01*
X108245576Y-115351189D01*
X108423240Y-115212906D01*
X108575722Y-115047268D01*
X108698860Y-114858791D01*
X108789296Y-114652616D01*
X108798160Y-114617611D01*
X117718200Y-114617611D01*
X117735926Y-114706725D01*
X117743017Y-114742373D01*
X117791699Y-114859901D01*
X117791700Y-114859902D01*
X117854823Y-114954374D01*
X117862374Y-114965674D01*
X117952326Y-115055626D01*
X118058099Y-115126301D01*
X118175627Y-115174983D01*
X118283054Y-115196351D01*
X118300388Y-115199799D01*
X118300391Y-115199799D01*
X118300394Y-115199800D01*
X118300395Y-115199800D01*
X118427605Y-115199800D01*
X118427606Y-115199800D01*
X118552373Y-115174983D01*
X118669901Y-115126301D01*
X118775674Y-115055626D01*
X118865626Y-114965674D01*
X118936301Y-114859901D01*
X118984983Y-114742373D01*
X119009800Y-114617606D01*
X119009800Y-114490394D01*
X118984983Y-114365627D01*
X118936301Y-114248099D01*
X118865626Y-114142326D01*
X118775674Y-114052374D01*
X118773327Y-114050806D01*
X118706954Y-114006457D01*
X118669901Y-113981699D01*
X118552373Y-113933017D01*
X118516725Y-113925926D01*
X118427611Y-113908200D01*
X118427606Y-113908200D01*
X118300394Y-113908200D01*
X118300388Y-113908200D01*
X118193450Y-113929471D01*
X118175627Y-113933017D01*
X118174208Y-113933605D01*
X118058097Y-113981700D01*
X117952329Y-114052371D01*
X117952323Y-114052376D01*
X117862376Y-114142323D01*
X117862371Y-114142329D01*
X117791700Y-114248097D01*
X117791699Y-114248099D01*
X117782658Y-114269927D01*
X117743018Y-114365625D01*
X117743017Y-114365628D01*
X117718200Y-114490388D01*
X117718200Y-114617611D01*
X108798160Y-114617611D01*
X108844564Y-114434368D01*
X108863156Y-114210000D01*
X108844564Y-113985632D01*
X108831240Y-113933017D01*
X108789297Y-113767387D01*
X108789296Y-113767386D01*
X108789296Y-113767384D01*
X108698860Y-113561209D01*
X108579298Y-113378205D01*
X108575724Y-113372734D01*
X108575719Y-113372729D01*
X108468369Y-113256116D01*
X108436948Y-113192451D01*
X108444935Y-113121905D01*
X108471975Y-113081682D01*
X108628954Y-112924704D01*
X108792145Y-112761513D01*
X108854457Y-112727488D01*
X108881240Y-112724609D01*
X112169962Y-112724609D01*
X112169963Y-112724609D01*
X112247343Y-112703875D01*
X112324725Y-112683141D01*
X112463479Y-112603031D01*
X116846966Y-108219544D01*
X116909278Y-108185518D01*
X116980093Y-108190583D01*
G37*
G04 #@! TD.AperFunction*
G04 #@! TA.AperFunction,Conductor*
G36*
X143308267Y-78768070D02*
G01*
X143354760Y-78821726D01*
X143366146Y-78874068D01*
X143366146Y-119448353D01*
X143346144Y-119516474D01*
X143292488Y-119562967D01*
X143240146Y-119574353D01*
X124041960Y-119574353D01*
X123973839Y-119554351D01*
X123927346Y-119500695D01*
X123917242Y-119430421D01*
X123946736Y-119365841D01*
X123984754Y-119336088D01*
X124145239Y-119254317D01*
X124315616Y-119130531D01*
X124464531Y-118981616D01*
X124588317Y-118811239D01*
X124683927Y-118623594D01*
X124749005Y-118423304D01*
X124781950Y-118215299D01*
X124781950Y-118004701D01*
X124749005Y-117796696D01*
X124685854Y-117602336D01*
X124683827Y-117531368D01*
X124720489Y-117470571D01*
X124784201Y-117439245D01*
X124796930Y-117438151D01*
X124796924Y-117438090D01*
X124803481Y-117437401D01*
X124803486Y-117437400D01*
X124978546Y-117400190D01*
X125142045Y-117327396D01*
X125286836Y-117222199D01*
X125406591Y-117089197D01*
X125496077Y-116934203D01*
X125509822Y-116891902D01*
X125548008Y-116774374D01*
X125551382Y-116763991D01*
X125570090Y-116586000D01*
X125551382Y-116408009D01*
X125509822Y-116280099D01*
X125500043Y-116250000D01*
X133236701Y-116250000D01*
X133255837Y-116419848D01*
X133312290Y-116581182D01*
X133403231Y-116725912D01*
X133524087Y-116846768D01*
X133524089Y-116846769D01*
X133524091Y-116846771D01*
X133668817Y-116937709D01*
X133830150Y-116994162D01*
X133830149Y-116994162D01*
X133847348Y-116996099D01*
X134000000Y-117013299D01*
X134169850Y-116994162D01*
X134331183Y-116937709D01*
X134475909Y-116846771D01*
X134596771Y-116725909D01*
X134687709Y-116581183D01*
X134744162Y-116419850D01*
X134763299Y-116250000D01*
X134744162Y-116080150D01*
X134687709Y-115918817D01*
X134596771Y-115774091D01*
X134596769Y-115774089D01*
X134596768Y-115774087D01*
X134475912Y-115653231D01*
X134331182Y-115562290D01*
X134231270Y-115527330D01*
X134169850Y-115505838D01*
X134169848Y-115505837D01*
X134169850Y-115505837D01*
X134000000Y-115486701D01*
X133830151Y-115505837D01*
X133668817Y-115562290D01*
X133524087Y-115653231D01*
X133403231Y-115774087D01*
X133312290Y-115918817D01*
X133255837Y-116080151D01*
X133236701Y-116250000D01*
X125500043Y-116250000D01*
X125496079Y-116237801D01*
X125496075Y-116237794D01*
X125482049Y-116213501D01*
X125439259Y-116139385D01*
X125406593Y-116082806D01*
X125406592Y-116082805D01*
X125406591Y-116082803D01*
X125300537Y-115965018D01*
X125282417Y-115944893D01*
X125284027Y-115943442D01*
X125252083Y-115891603D01*
X125253427Y-115820620D01*
X125292934Y-115761631D01*
X125358061Y-115733365D01*
X125373629Y-115732400D01*
X132706210Y-115732400D01*
X132706211Y-115732400D01*
X132783591Y-115711666D01*
X132860973Y-115690932D01*
X132999727Y-115610822D01*
X138578421Y-110032125D01*
X138640731Y-109998102D01*
X138653411Y-109996014D01*
X138669841Y-109994163D01*
X138669840Y-109994163D01*
X138669850Y-109994162D01*
X138831183Y-109937709D01*
X138975909Y-109846771D01*
X139096771Y-109725909D01*
X139187709Y-109581183D01*
X139244162Y-109419850D01*
X139263299Y-109250000D01*
X139244162Y-109080150D01*
X139187709Y-108918817D01*
X139096771Y-108774091D01*
X139096769Y-108774089D01*
X139096768Y-108774087D01*
X138975912Y-108653231D01*
X138831182Y-108562290D01*
X138731270Y-108527330D01*
X138669850Y-108505838D01*
X138669848Y-108505837D01*
X138669850Y-108505837D01*
X138500000Y-108486701D01*
X138330151Y-108505837D01*
X138168817Y-108562290D01*
X138024087Y-108653231D01*
X137903231Y-108774087D01*
X137812290Y-108918817D01*
X137755838Y-109080147D01*
X137755837Y-109080151D01*
X137753984Y-109096598D01*
X137726477Y-109162049D01*
X137717872Y-109171578D01*
X132823595Y-114065855D01*
X132761283Y-114099881D01*
X132690468Y-114094816D01*
X132633632Y-114052269D01*
X132608821Y-113985749D01*
X132608500Y-113976760D01*
X132608500Y-110169890D01*
X132586880Y-110089204D01*
X132570652Y-110028638D01*
X132567032Y-110015127D01*
X132486921Y-109876372D01*
X132486918Y-109876369D01*
X132486915Y-109876365D01*
X131282127Y-108671578D01*
X131248102Y-108609266D01*
X131246014Y-108596588D01*
X131244163Y-108580157D01*
X131244162Y-108580155D01*
X131244162Y-108580150D01*
X131187709Y-108418817D01*
X131096771Y-108274091D01*
X131096769Y-108274089D01*
X131096768Y-108274087D01*
X130975912Y-108153231D01*
X130831182Y-108062290D01*
X130731270Y-108027330D01*
X130669850Y-108005838D01*
X130669848Y-108005837D01*
X130669850Y-108005837D01*
X130500000Y-107986701D01*
X130330151Y-108005837D01*
X130168817Y-108062290D01*
X130024087Y-108153231D01*
X129903231Y-108274087D01*
X129812290Y-108418817D01*
X129755837Y-108580151D01*
X129736701Y-108750000D01*
X129755837Y-108919848D01*
X129812290Y-109081182D01*
X129903231Y-109225912D01*
X130024087Y-109346768D01*
X130024089Y-109346769D01*
X130024091Y-109346771D01*
X130168817Y-109437709D01*
X130330150Y-109494162D01*
X130330155Y-109494162D01*
X130330157Y-109494163D01*
X130346588Y-109496014D01*
X130412041Y-109523516D01*
X130421578Y-109532127D01*
X131354595Y-110465144D01*
X131388621Y-110527456D01*
X131391500Y-110554239D01*
X131391500Y-114006457D01*
X131372187Y-114073493D01*
X131312292Y-114168814D01*
X131312291Y-114168816D01*
X131255837Y-114330151D01*
X131247573Y-114403507D01*
X131220070Y-114468960D01*
X131161546Y-114509153D01*
X131122365Y-114515400D01*
X127457483Y-114515400D01*
X127389362Y-114495398D01*
X127342869Y-114441742D01*
X127332174Y-114402576D01*
X127329382Y-114376009D01*
X127316059Y-114335005D01*
X127274079Y-114205801D01*
X127274075Y-114205794D01*
X127252726Y-114168817D01*
X127197691Y-114073493D01*
X127184593Y-114050806D01*
X127184592Y-114050805D01*
X127184591Y-114050803D01*
X127064836Y-113917801D01*
X127064835Y-113917800D01*
X126920049Y-113812606D01*
X126818478Y-113767384D01*
X126768933Y-113745325D01*
X126714837Y-113699345D01*
X126694188Y-113631418D01*
X126713540Y-113563109D01*
X126726548Y-113545906D01*
X126737991Y-113533197D01*
X126737992Y-113533195D01*
X126827477Y-113378203D01*
X126838817Y-113343304D01*
X126882780Y-113207996D01*
X126882782Y-113207991D01*
X126901490Y-113030000D01*
X126883595Y-112859747D01*
X126896367Y-112789912D01*
X126934845Y-112744643D01*
X127064834Y-112650201D01*
X127107304Y-112603033D01*
X127184591Y-112517197D01*
X127274077Y-112362203D01*
X127275413Y-112358093D01*
X127329380Y-112191996D01*
X127329382Y-112191991D01*
X127348090Y-112014000D01*
X127329382Y-111836009D01*
X127293312Y-111724995D01*
X127274079Y-111665801D01*
X127274075Y-111665794D01*
X127184593Y-111510806D01*
X127184592Y-111510805D01*
X127184591Y-111510803D01*
X127064836Y-111377801D01*
X127055386Y-111370935D01*
X126920049Y-111272606D01*
X126756546Y-111199810D01*
X126581486Y-111162600D01*
X126537020Y-111162600D01*
X126468899Y-111142598D01*
X126422406Y-111088942D01*
X126411020Y-111036600D01*
X126411020Y-107180410D01*
X126372672Y-107037293D01*
X126372671Y-107037286D01*
X126369554Y-107025651D01*
X126369552Y-107025648D01*
X126369552Y-107025647D01*
X126314835Y-106930875D01*
X126289443Y-106886895D01*
X126289435Y-106886885D01*
X126203145Y-106800595D01*
X126169119Y-106738283D01*
X126174184Y-106667468D01*
X126216731Y-106610632D01*
X126283251Y-106585821D01*
X126292240Y-106585500D01*
X136777690Y-106585500D01*
X136777691Y-106585500D01*
X136855071Y-106564766D01*
X136932453Y-106544032D01*
X137071207Y-106463922D01*
X140486921Y-103048208D01*
X140567032Y-102909453D01*
X140603242Y-102774315D01*
X140608500Y-102754691D01*
X140608500Y-101243542D01*
X140627812Y-101176506D01*
X140687709Y-101081183D01*
X140744162Y-100919850D01*
X140763299Y-100750000D01*
X140744162Y-100580150D01*
X140687709Y-100418817D01*
X140596771Y-100274091D01*
X140596769Y-100274089D01*
X140596768Y-100274087D01*
X140475912Y-100153231D01*
X140331182Y-100062290D01*
X140231270Y-100027330D01*
X140169850Y-100005838D01*
X140169848Y-100005837D01*
X140169850Y-100005837D01*
X140146617Y-100003220D01*
X140081164Y-99975716D01*
X140040971Y-99917192D01*
X140038799Y-99846229D01*
X140071628Y-99788919D01*
X140078422Y-99782125D01*
X140140732Y-99748101D01*
X140153412Y-99746014D01*
X140169841Y-99744163D01*
X140169840Y-99744163D01*
X140169850Y-99744162D01*
X140331183Y-99687709D01*
X140475909Y-99596771D01*
X140596771Y-99475909D01*
X140687709Y-99331183D01*
X140744162Y-99169850D01*
X140763299Y-99000000D01*
X140744162Y-98830150D01*
X140687709Y-98668817D01*
X140596771Y-98524091D01*
X140596769Y-98524089D01*
X140596768Y-98524087D01*
X140475912Y-98403231D01*
X140331182Y-98312290D01*
X140196396Y-98265127D01*
X140169850Y-98255838D01*
X140169848Y-98255837D01*
X140169850Y-98255837D01*
X140000000Y-98236701D01*
X139830151Y-98255837D01*
X139668817Y-98312290D01*
X139524087Y-98403231D01*
X139403231Y-98524087D01*
X139312290Y-98668817D01*
X139255839Y-98830144D01*
X139255836Y-98830157D01*
X139253985Y-98846591D01*
X139226480Y-98912043D01*
X139217874Y-98921575D01*
X138573856Y-99565595D01*
X138511543Y-99599620D01*
X138484760Y-99602500D01*
X138275968Y-99602500D01*
X138207847Y-99582498D01*
X138161354Y-99528842D01*
X138151250Y-99458568D01*
X138154261Y-99443891D01*
X138162499Y-99413142D01*
X138162500Y-99413138D01*
X138162500Y-96723890D01*
X138162500Y-96723889D01*
X138136371Y-96626373D01*
X138136371Y-96626372D01*
X138136371Y-96626371D01*
X138121034Y-96569134D01*
X138121033Y-96569133D01*
X138121032Y-96569127D01*
X138087730Y-96511447D01*
X138040923Y-96430375D01*
X138040918Y-96430369D01*
X137761115Y-96150566D01*
X137462515Y-95851966D01*
X137428492Y-95789656D01*
X137433556Y-95718841D01*
X137476103Y-95662005D01*
X137542623Y-95637194D01*
X137611997Y-95652285D01*
X137618648Y-95656186D01*
X137627909Y-95662005D01*
X137668817Y-95687709D01*
X137830150Y-95744162D01*
X137830149Y-95744162D01*
X137847348Y-95746099D01*
X138000000Y-95763299D01*
X138169850Y-95744162D01*
X138331183Y-95687709D01*
X138475909Y-95596771D01*
X138596771Y-95475909D01*
X138687709Y-95331183D01*
X138744162Y-95169850D01*
X138763299Y-95000000D01*
X138744162Y-94830150D01*
X138687709Y-94668817D01*
X138596771Y-94524091D01*
X138596769Y-94524089D01*
X138596768Y-94524087D01*
X138475912Y-94403231D01*
X138457242Y-94391500D01*
X138331185Y-94312292D01*
X138331182Y-94312290D01*
X138231270Y-94277330D01*
X138169850Y-94255838D01*
X138169848Y-94255837D01*
X138169850Y-94255837D01*
X138000000Y-94236701D01*
X137830151Y-94255837D01*
X137668816Y-94312291D01*
X137668814Y-94312292D01*
X137573493Y-94372187D01*
X137506457Y-94391500D01*
X127726307Y-94391500D01*
X127658186Y-94371498D01*
X127637212Y-94354595D01*
X126856212Y-93573595D01*
X126822186Y-93511283D01*
X126827251Y-93440468D01*
X126869798Y-93383632D01*
X126936318Y-93358821D01*
X126945307Y-93358500D01*
X134256457Y-93358500D01*
X134323493Y-93377813D01*
X134418817Y-93437709D01*
X134580150Y-93494162D01*
X134580149Y-93494162D01*
X134597348Y-93496099D01*
X134750000Y-93513299D01*
X134919850Y-93494162D01*
X135081183Y-93437709D01*
X135225909Y-93346771D01*
X135346771Y-93225909D01*
X135437709Y-93081183D01*
X135494162Y-92919850D01*
X135513299Y-92750000D01*
X135494162Y-92580150D01*
X135437709Y-92418817D01*
X135346771Y-92274091D01*
X135346769Y-92274089D01*
X135346768Y-92274087D01*
X135225912Y-92153231D01*
X135207242Y-92141500D01*
X135191719Y-92131746D01*
X135081182Y-92062290D01*
X134981270Y-92027330D01*
X134919850Y-92005838D01*
X134919848Y-92005837D01*
X134919850Y-92005837D01*
X134750000Y-91986701D01*
X134580151Y-92005837D01*
X134418816Y-92062291D01*
X134418814Y-92062292D01*
X134323493Y-92122187D01*
X134256457Y-92141500D01*
X131970703Y-92141500D01*
X131902582Y-92121498D01*
X131856089Y-92067842D01*
X131845985Y-91997568D01*
X131864015Y-91948465D01*
X131937709Y-91831183D01*
X131994162Y-91669850D01*
X132013299Y-91500000D01*
X131994162Y-91330150D01*
X131937709Y-91168817D01*
X131846771Y-91024091D01*
X131846769Y-91024089D01*
X131846768Y-91024087D01*
X131725912Y-90903231D01*
X131707242Y-90891500D01*
X131611445Y-90831306D01*
X131581182Y-90812290D01*
X131461231Y-90770318D01*
X131419850Y-90755838D01*
X131419848Y-90755837D01*
X131419850Y-90755837D01*
X131250000Y-90736701D01*
X131080151Y-90755837D01*
X130918816Y-90812291D01*
X130918814Y-90812292D01*
X130823493Y-90872187D01*
X130756457Y-90891500D01*
X123984389Y-90891500D01*
X123940616Y-90903228D01*
X123940617Y-90903229D01*
X123829630Y-90932967D01*
X123829623Y-90932970D01*
X123690876Y-91013076D01*
X123690866Y-91013084D01*
X122373357Y-92330595D01*
X122311045Y-92364620D01*
X122284262Y-92367500D01*
X109588331Y-92367500D01*
X109523494Y-92384872D01*
X109523495Y-92384873D01*
X109433572Y-92408967D01*
X109433565Y-92408970D01*
X109376821Y-92441731D01*
X109376822Y-92441732D01*
X109294815Y-92489078D01*
X109294813Y-92489080D01*
X109238168Y-92545726D01*
X109181522Y-92602372D01*
X109181520Y-92602374D01*
X108580087Y-93203805D01*
X108517775Y-93237830D01*
X108446959Y-93232765D01*
X108431023Y-93225523D01*
X108338338Y-93175365D01*
X108257574Y-93131658D01*
X108257572Y-93131657D01*
X108257571Y-93131656D01*
X108044639Y-93058557D01*
X108044630Y-93058555D01*
X108000476Y-93051187D01*
X107822569Y-93021500D01*
X107597431Y-93021500D01*
X107449211Y-93046233D01*
X107375369Y-93058555D01*
X107375360Y-93058557D01*
X107162428Y-93131656D01*
X107162426Y-93131658D01*
X106964426Y-93238810D01*
X106964424Y-93238811D01*
X106786762Y-93377091D01*
X106634279Y-93542729D01*
X106634275Y-93542734D01*
X106511141Y-93731206D01*
X106420703Y-93937386D01*
X106420702Y-93937387D01*
X106365437Y-94155624D01*
X106365436Y-94155630D01*
X106365436Y-94155632D01*
X106357133Y-94255837D01*
X106346844Y-94380000D01*
X106365437Y-94604375D01*
X106420702Y-94822612D01*
X106420703Y-94822613D01*
X106420704Y-94822616D01*
X106450437Y-94890401D01*
X106511141Y-95028793D01*
X106634275Y-95217265D01*
X106634279Y-95217270D01*
X106786762Y-95382908D01*
X106841331Y-95425381D01*
X106964424Y-95521189D01*
X106997680Y-95539186D01*
X107048071Y-95589200D01*
X107063423Y-95658516D01*
X107038862Y-95725129D01*
X106997680Y-95760814D01*
X106964426Y-95778810D01*
X106964424Y-95778811D01*
X106786762Y-95917091D01*
X106634279Y-96082729D01*
X106634275Y-96082734D01*
X106511141Y-96271206D01*
X106420703Y-96477386D01*
X106420702Y-96477387D01*
X106365437Y-96695624D01*
X106365436Y-96695630D01*
X106365436Y-96695632D01*
X106346844Y-96920000D01*
X106365198Y-97141500D01*
X106365437Y-97144375D01*
X106420702Y-97362612D01*
X106420703Y-97362613D01*
X106420704Y-97362616D01*
X106458889Y-97449670D01*
X106511141Y-97568793D01*
X106634275Y-97757265D01*
X106634279Y-97757270D01*
X106741630Y-97873882D01*
X106773051Y-97937547D01*
X106765065Y-98008093D01*
X106738025Y-98048315D01*
X105936080Y-98850261D01*
X105936077Y-98850265D01*
X105895707Y-98920188D01*
X105844324Y-98969181D01*
X105774610Y-98982616D01*
X105708699Y-98956229D01*
X105667518Y-98898397D01*
X105660588Y-98857187D01*
X105660588Y-89500000D01*
X112148156Y-89500000D01*
X112168694Y-89734748D01*
X112229681Y-89962356D01*
X112229683Y-89962360D01*
X112329270Y-90175925D01*
X112464422Y-90368944D01*
X112464431Y-90368954D01*
X112631045Y-90535568D01*
X112631055Y-90535577D01*
X112824074Y-90670729D01*
X112824073Y-90670729D01*
X112899996Y-90706132D01*
X113037642Y-90770318D01*
X113265255Y-90831306D01*
X113500000Y-90851844D01*
X113734745Y-90831306D01*
X113962358Y-90770318D01*
X114175922Y-90670731D01*
X114360496Y-90541492D01*
X114368944Y-90535577D01*
X114368946Y-90535574D01*
X114368949Y-90535573D01*
X114535573Y-90368949D01*
X114670731Y-90175922D01*
X114770318Y-89962358D01*
X114831306Y-89734745D01*
X114842525Y-89606511D01*
X114868387Y-89540396D01*
X114924174Y-89500000D01*
X135336537Y-89500000D01*
X135356347Y-89713789D01*
X135415100Y-89920283D01*
X135415103Y-89920291D01*
X135510804Y-90112484D01*
X135510805Y-90112485D01*
X135640191Y-90283821D01*
X135798854Y-90428462D01*
X135798856Y-90428463D01*
X135798857Y-90428464D01*
X135981400Y-90541489D01*
X135981408Y-90541492D01*
X136181598Y-90619047D01*
X136181603Y-90619049D01*
X136392649Y-90658500D01*
X136392651Y-90658500D01*
X136607349Y-90658500D01*
X136607351Y-90658500D01*
X136818397Y-90619049D01*
X137018600Y-90541489D01*
X137201143Y-90428464D01*
X137359810Y-90283820D01*
X137489196Y-90112484D01*
X137584897Y-89920291D01*
X137643653Y-89713786D01*
X137663463Y-89500000D01*
X137643653Y-89286214D01*
X137637688Y-89265251D01*
X137584899Y-89079716D01*
X137584898Y-89079715D01*
X137584897Y-89079709D01*
X137489196Y-88887516D01*
X137359810Y-88716180D01*
X137359808Y-88716178D01*
X137201145Y-88571537D01*
X137028161Y-88464431D01*
X137018600Y-88458511D01*
X137018598Y-88458510D01*
X137018591Y-88458507D01*
X136818401Y-88380952D01*
X136818402Y-88380952D01*
X136818397Y-88380951D01*
X136607351Y-88341500D01*
X136392649Y-88341500D01*
X136233390Y-88371270D01*
X136181597Y-88380952D01*
X135981408Y-88458507D01*
X135981401Y-88458510D01*
X135798854Y-88571537D01*
X135640191Y-88716178D01*
X135510805Y-88887514D01*
X135415103Y-89079708D01*
X135415100Y-89079716D01*
X135356347Y-89286210D01*
X135336537Y-89500000D01*
X114924174Y-89500000D01*
X114925891Y-89498757D01*
X114957057Y-89491976D01*
X115093645Y-89480026D01*
X115321258Y-89419038D01*
X115534822Y-89319451D01*
X115582290Y-89286214D01*
X115727844Y-89184297D01*
X115727846Y-89184294D01*
X115727849Y-89184293D01*
X115894473Y-89017669D01*
X115985607Y-88887516D01*
X116029629Y-88824645D01*
X116029629Y-88824644D01*
X116029631Y-88824642D01*
X116129218Y-88611078D01*
X116190206Y-88383465D01*
X116210744Y-88148720D01*
X116190206Y-87913975D01*
X116129218Y-87686362D01*
X116029631Y-87472798D01*
X116029630Y-87472797D01*
X116029629Y-87472794D01*
X115894477Y-87279775D01*
X115894468Y-87279765D01*
X115727854Y-87113151D01*
X115727844Y-87113142D01*
X115534825Y-86977990D01*
X115534826Y-86977990D01*
X115321260Y-86878403D01*
X115321256Y-86878401D01*
X115093648Y-86817414D01*
X114858900Y-86796876D01*
X114624151Y-86817414D01*
X114396543Y-86878401D01*
X114396539Y-86878403D01*
X114182974Y-86977990D01*
X113989955Y-87113142D01*
X113989945Y-87113151D01*
X113823331Y-87279765D01*
X113823322Y-87279775D01*
X113688170Y-87472794D01*
X113588583Y-87686359D01*
X113588581Y-87686363D01*
X113527594Y-87913973D01*
X113527593Y-87913980D01*
X113516374Y-88042205D01*
X113490511Y-88108324D01*
X113433007Y-88149963D01*
X113401837Y-88156743D01*
X113265259Y-88168693D01*
X113265253Y-88168694D01*
X113037643Y-88229681D01*
X113037639Y-88229683D01*
X112824074Y-88329270D01*
X112631055Y-88464422D01*
X112631045Y-88464431D01*
X112464431Y-88631045D01*
X112464422Y-88631055D01*
X112329270Y-88824074D01*
X112229683Y-89037639D01*
X112229681Y-89037643D01*
X112168694Y-89265251D01*
X112148156Y-89500000D01*
X105660588Y-89500000D01*
X105660588Y-85829280D01*
X116115119Y-85829280D01*
X116153856Y-86024022D01*
X116153858Y-86024027D01*
X116229841Y-86207465D01*
X116340151Y-86372556D01*
X116340156Y-86372563D01*
X116480554Y-86512961D01*
X116480561Y-86512966D01*
X116645652Y-86623276D01*
X116829090Y-86699259D01*
X116829095Y-86699261D01*
X116869118Y-86707222D01*
X116869119Y-86707222D01*
X116869119Y-85890059D01*
X116883059Y-85914204D01*
X116938914Y-85970059D01*
X117007323Y-86009555D01*
X117083623Y-86029999D01*
X117162615Y-86029999D01*
X117238915Y-86009555D01*
X117307324Y-85970059D01*
X117363179Y-85914204D01*
X117377119Y-85890059D01*
X117377119Y-86707222D01*
X117417142Y-86699261D01*
X117417147Y-86699259D01*
X117600585Y-86623276D01*
X117765676Y-86512966D01*
X117765683Y-86512961D01*
X117906081Y-86372563D01*
X117906086Y-86372556D01*
X118016396Y-86207465D01*
X118092379Y-86024027D01*
X118092381Y-86024022D01*
X118131118Y-85829280D01*
X118131119Y-85829276D01*
X118131119Y-85433999D01*
X117423119Y-85433999D01*
X117423119Y-84925999D01*
X118075218Y-84925999D01*
X118143339Y-84946001D01*
X118166031Y-84966876D01*
X118166784Y-84966124D01*
X118261148Y-85060488D01*
X118261153Y-85060492D01*
X118261155Y-85060494D01*
X118261156Y-85060495D01*
X118261158Y-85060496D01*
X118369581Y-85123093D01*
X118369583Y-85123094D01*
X118490518Y-85155499D01*
X118615720Y-85155499D01*
X118736655Y-85123094D01*
X118845083Y-85060494D01*
X118933614Y-84971963D01*
X118945335Y-84951660D01*
X118996716Y-84902667D01*
X119066430Y-84889229D01*
X119121490Y-84907971D01*
X119168817Y-84937709D01*
X119330150Y-84994162D01*
X119330149Y-84994162D01*
X119347348Y-84996099D01*
X119500000Y-85013299D01*
X119669850Y-84994162D01*
X119831183Y-84937709D01*
X119926507Y-84877813D01*
X119993543Y-84858500D01*
X122509818Y-84858500D01*
X122577939Y-84878502D01*
X122616505Y-84917464D01*
X122653228Y-84975908D01*
X122653230Y-84975911D01*
X122774087Y-85096768D01*
X122774089Y-85096769D01*
X122774091Y-85096771D01*
X122918817Y-85187709D01*
X123080150Y-85244162D01*
X123080149Y-85244162D01*
X123097348Y-85246099D01*
X123250000Y-85263299D01*
X123419850Y-85244162D01*
X123581183Y-85187709D01*
X123725909Y-85096771D01*
X123812576Y-85010103D01*
X123874886Y-84976080D01*
X123945702Y-84981144D01*
X123990765Y-85010105D01*
X124041148Y-85060488D01*
X124041153Y-85060492D01*
X124041155Y-85060494D01*
X124041156Y-85060495D01*
X124041158Y-85060496D01*
X124149581Y-85123093D01*
X124149583Y-85123094D01*
X124270518Y-85155499D01*
X124395720Y-85155499D01*
X124516655Y-85123094D01*
X124625083Y-85060494D01*
X124625089Y-85060488D01*
X124719454Y-84966124D01*
X124721210Y-84967880D01*
X124768400Y-84933426D01*
X124811020Y-84925999D01*
X125463119Y-84925999D01*
X125463119Y-85433999D01*
X124755119Y-85433999D01*
X124755119Y-85829280D01*
X124793856Y-86024022D01*
X124793858Y-86024027D01*
X124869841Y-86207465D01*
X124980151Y-86372556D01*
X124980156Y-86372563D01*
X125120554Y-86512961D01*
X125120561Y-86512966D01*
X125285652Y-86623276D01*
X125469090Y-86699259D01*
X125469095Y-86699261D01*
X125509118Y-86707222D01*
X125509119Y-86707222D01*
X125509119Y-85890059D01*
X125523059Y-85914204D01*
X125578914Y-85970059D01*
X125647323Y-86009555D01*
X125723623Y-86029999D01*
X125802615Y-86029999D01*
X125878915Y-86009555D01*
X125947324Y-85970059D01*
X126003179Y-85914204D01*
X126017119Y-85890059D01*
X126017119Y-86707222D01*
X126057142Y-86699261D01*
X126057147Y-86699259D01*
X126240585Y-86623276D01*
X126405676Y-86512966D01*
X126405683Y-86512961D01*
X126546081Y-86372563D01*
X126546086Y-86372556D01*
X126656396Y-86207465D01*
X126732379Y-86024027D01*
X126732381Y-86024022D01*
X126771118Y-85829280D01*
X126771119Y-85829276D01*
X126771119Y-85433999D01*
X126063119Y-85433999D01*
X126063119Y-84925999D01*
X126771119Y-84925999D01*
X126771119Y-84530721D01*
X126771118Y-84530717D01*
X126732381Y-84335975D01*
X126732379Y-84335970D01*
X126656396Y-84152532D01*
X126546086Y-83987441D01*
X126546081Y-83987434D01*
X126405683Y-83847036D01*
X126405676Y-83847031D01*
X126240586Y-83736721D01*
X126148672Y-83698649D01*
X135341500Y-83698649D01*
X135348009Y-83759196D01*
X135348011Y-83759204D01*
X135399110Y-83896202D01*
X135399112Y-83896207D01*
X135486738Y-84013261D01*
X135603792Y-84100887D01*
X135603794Y-84100888D01*
X135603796Y-84100889D01*
X135662875Y-84122924D01*
X135740795Y-84151988D01*
X135740803Y-84151990D01*
X135801350Y-84158499D01*
X135801355Y-84158499D01*
X135801362Y-84158500D01*
X135801368Y-84158500D01*
X137198632Y-84158500D01*
X137198638Y-84158500D01*
X137198645Y-84158499D01*
X137198649Y-84158499D01*
X137259196Y-84151990D01*
X137259199Y-84151989D01*
X137259201Y-84151989D01*
X137396204Y-84100889D01*
X137513261Y-84013261D01*
X137600889Y-83896204D01*
X137651989Y-83759201D01*
X137654649Y-83734465D01*
X137658499Y-83698649D01*
X137658500Y-83698632D01*
X137658500Y-82301367D01*
X137658499Y-82301350D01*
X137651990Y-82240803D01*
X137651988Y-82240795D01*
X137600889Y-82103797D01*
X137600887Y-82103792D01*
X137513261Y-81986738D01*
X137396207Y-81899112D01*
X137396202Y-81899110D01*
X137259204Y-81848011D01*
X137259196Y-81848009D01*
X137198649Y-81841500D01*
X137198638Y-81841500D01*
X135801362Y-81841500D01*
X135801350Y-81841500D01*
X135740803Y-81848009D01*
X135740795Y-81848011D01*
X135603797Y-81899110D01*
X135603792Y-81899112D01*
X135486738Y-81986738D01*
X135399112Y-82103792D01*
X135399110Y-82103797D01*
X135348011Y-82240795D01*
X135348009Y-82240803D01*
X135341500Y-82301350D01*
X135341500Y-83698649D01*
X126148672Y-83698649D01*
X126057139Y-83660735D01*
X126057134Y-83660734D01*
X126017119Y-83652773D01*
X126017119Y-84469938D01*
X126003179Y-84445794D01*
X125947324Y-84389939D01*
X125878915Y-84350443D01*
X125802615Y-84329999D01*
X125723623Y-84329999D01*
X125647323Y-84350443D01*
X125578914Y-84389939D01*
X125523059Y-84445794D01*
X125509119Y-84469938D01*
X125509119Y-83652774D01*
X125509118Y-83652773D01*
X125469103Y-83660734D01*
X125469098Y-83660735D01*
X125285651Y-83736721D01*
X125120561Y-83847031D01*
X125120554Y-83847036D01*
X124980156Y-83987434D01*
X124980151Y-83987441D01*
X124869840Y-84152532D01*
X124869838Y-84152536D01*
X124827268Y-84255309D01*
X124782720Y-84310590D01*
X124715356Y-84333010D01*
X124646565Y-84315451D01*
X124631961Y-84304106D01*
X124631635Y-84304532D01*
X124625079Y-84299501D01*
X124516656Y-84236904D01*
X124395723Y-84204499D01*
X124395720Y-84204499D01*
X124270518Y-84204499D01*
X124270514Y-84204499D01*
X124149581Y-84236904D01*
X124149579Y-84236905D01*
X124124838Y-84251189D01*
X124055843Y-84267926D01*
X123988751Y-84244705D01*
X123944865Y-84188897D01*
X123942922Y-84183717D01*
X123937709Y-84168817D01*
X123846771Y-84024091D01*
X123846769Y-84024089D01*
X123846768Y-84024087D01*
X123725912Y-83903231D01*
X123581182Y-83812290D01*
X123419853Y-83755838D01*
X123419846Y-83755837D01*
X123372959Y-83750553D01*
X123324070Y-83734465D01*
X123234877Y-83682969D01*
X123123884Y-83653229D01*
X123123884Y-83653228D01*
X123080111Y-83641500D01*
X119993543Y-83641500D01*
X119926507Y-83622187D01*
X119831185Y-83562292D01*
X119831183Y-83562291D01*
X119831180Y-83562290D01*
X119669850Y-83505838D01*
X119669848Y-83505837D01*
X119669850Y-83505837D01*
X119500000Y-83486701D01*
X119330151Y-83505837D01*
X119168817Y-83562290D01*
X119024087Y-83653231D01*
X118903231Y-83774087D01*
X118812290Y-83918817D01*
X118755838Y-84080147D01*
X118755837Y-84080154D01*
X118754357Y-84093290D01*
X118726852Y-84158742D01*
X118668327Y-84198934D01*
X118623979Y-84203056D01*
X118623979Y-84204499D01*
X118490514Y-84204499D01*
X118369581Y-84236904D01*
X118369580Y-84236904D01*
X118261158Y-84299501D01*
X118254603Y-84304532D01*
X118253006Y-84302451D01*
X118202136Y-84330216D01*
X118131321Y-84325137D01*
X118074494Y-84282579D01*
X118058968Y-84255308D01*
X118016396Y-84152531D01*
X117906086Y-83987441D01*
X117906081Y-83987434D01*
X117765683Y-83847036D01*
X117765676Y-83847031D01*
X117600586Y-83736721D01*
X117417139Y-83660735D01*
X117417134Y-83660734D01*
X117377119Y-83652773D01*
X117377119Y-84469938D01*
X117363179Y-84445794D01*
X117307324Y-84389939D01*
X117238915Y-84350443D01*
X117162615Y-84329999D01*
X117083623Y-84329999D01*
X117007323Y-84350443D01*
X116938914Y-84389939D01*
X116883059Y-84445794D01*
X116869119Y-84469938D01*
X116869119Y-83652774D01*
X116869118Y-83652773D01*
X116829103Y-83660734D01*
X116829098Y-83660735D01*
X116645651Y-83736721D01*
X116480561Y-83847031D01*
X116480554Y-83847036D01*
X116340156Y-83987434D01*
X116340151Y-83987441D01*
X116229841Y-84152532D01*
X116153858Y-84335970D01*
X116153856Y-84335975D01*
X116115119Y-84530717D01*
X116115119Y-84925999D01*
X116823119Y-84925999D01*
X116823119Y-85433999D01*
X116115119Y-85433999D01*
X116115119Y-85829280D01*
X105660588Y-85829280D01*
X105660588Y-81700515D01*
X116115119Y-81700515D01*
X116125724Y-81804317D01*
X116125725Y-81804320D01*
X116181461Y-81972524D01*
X116274484Y-82123338D01*
X116274489Y-82123344D01*
X116399773Y-82248628D01*
X116399779Y-82248633D01*
X116550593Y-82341656D01*
X116718797Y-82397392D01*
X116718800Y-82397393D01*
X116822602Y-82407998D01*
X116822602Y-82407999D01*
X116869119Y-82407999D01*
X116869119Y-81560059D01*
X116883059Y-81584204D01*
X116938914Y-81640059D01*
X117007323Y-81679555D01*
X117083623Y-81699999D01*
X117162615Y-81699999D01*
X117238915Y-81679555D01*
X117307324Y-81640059D01*
X117363179Y-81584204D01*
X117377119Y-81560059D01*
X117377119Y-82407999D01*
X117423636Y-82407999D01*
X117423635Y-82407998D01*
X117527437Y-82397393D01*
X117527440Y-82397392D01*
X117695644Y-82341656D01*
X117846458Y-82248633D01*
X117846464Y-82248628D01*
X117971748Y-82123344D01*
X117971753Y-82123338D01*
X118064776Y-81972524D01*
X118120512Y-81804320D01*
X118120513Y-81804317D01*
X118131118Y-81700515D01*
X118131119Y-81700515D01*
X124755119Y-81700515D01*
X124765724Y-81804317D01*
X124765725Y-81804320D01*
X124821461Y-81972524D01*
X124914484Y-82123338D01*
X124914489Y-82123344D01*
X125039773Y-82248628D01*
X125039779Y-82248633D01*
X125190593Y-82341656D01*
X125358797Y-82397392D01*
X125358800Y-82397393D01*
X125462602Y-82407998D01*
X125462602Y-82407999D01*
X125509119Y-82407999D01*
X125509119Y-81560059D01*
X125523059Y-81584204D01*
X125578914Y-81640059D01*
X125647323Y-81679555D01*
X125723623Y-81699999D01*
X125802615Y-81699999D01*
X125878915Y-81679555D01*
X125947324Y-81640059D01*
X126003179Y-81584204D01*
X126017119Y-81560059D01*
X126017119Y-82407999D01*
X126063636Y-82407999D01*
X126063635Y-82407998D01*
X126167437Y-82397393D01*
X126167440Y-82397392D01*
X126335644Y-82341656D01*
X126486458Y-82248633D01*
X126486464Y-82248628D01*
X126611748Y-82123344D01*
X126611753Y-82123338D01*
X126704776Y-81972524D01*
X126760512Y-81804320D01*
X126760513Y-81804317D01*
X126771118Y-81700515D01*
X126771119Y-81700515D01*
X126771119Y-81253999D01*
X126063119Y-81253999D01*
X126063119Y-80745999D01*
X126771119Y-80745999D01*
X126771119Y-80299482D01*
X126760513Y-80195680D01*
X126760512Y-80195677D01*
X126704776Y-80027473D01*
X126611753Y-79876659D01*
X126611748Y-79876653D01*
X126486464Y-79751369D01*
X126486458Y-79751364D01*
X126335644Y-79658341D01*
X126167440Y-79602605D01*
X126167437Y-79602604D01*
X126063635Y-79591999D01*
X126017119Y-79591999D01*
X126017119Y-80439938D01*
X126003179Y-80415794D01*
X125947324Y-80359939D01*
X125878915Y-80320443D01*
X125802615Y-80299999D01*
X125723623Y-80299999D01*
X125647323Y-80320443D01*
X125578914Y-80359939D01*
X125523059Y-80415794D01*
X125509119Y-80439938D01*
X125509119Y-79591999D01*
X125462602Y-79591999D01*
X125358800Y-79602604D01*
X125358797Y-79602605D01*
X125190593Y-79658341D01*
X125039779Y-79751364D01*
X125039773Y-79751369D01*
X124914489Y-79876653D01*
X124914484Y-79876659D01*
X124821461Y-80027473D01*
X124765725Y-80195677D01*
X124765724Y-80195680D01*
X124755119Y-80299482D01*
X124755119Y-80745999D01*
X125463119Y-80745999D01*
X125463119Y-81253999D01*
X124755119Y-81253999D01*
X124755119Y-81700515D01*
X118131119Y-81700515D01*
X118131119Y-81253999D01*
X117423119Y-81253999D01*
X117423119Y-80745999D01*
X118131119Y-80745999D01*
X118131119Y-80299482D01*
X118120513Y-80195680D01*
X118120512Y-80195677D01*
X118064776Y-80027473D01*
X117971753Y-79876659D01*
X117971748Y-79876653D01*
X117846464Y-79751369D01*
X117846458Y-79751364D01*
X117695644Y-79658341D01*
X117527440Y-79602605D01*
X117527437Y-79602604D01*
X117423635Y-79591999D01*
X117377119Y-79591999D01*
X117377119Y-80439938D01*
X117363179Y-80415794D01*
X117307324Y-80359939D01*
X117238915Y-80320443D01*
X117162615Y-80299999D01*
X117083623Y-80299999D01*
X117007323Y-80320443D01*
X116938914Y-80359939D01*
X116883059Y-80415794D01*
X116869119Y-80439938D01*
X116869119Y-79591999D01*
X116822602Y-79591999D01*
X116718800Y-79602604D01*
X116718797Y-79602605D01*
X116550593Y-79658341D01*
X116399779Y-79751364D01*
X116399773Y-79751369D01*
X116274489Y-79876653D01*
X116274484Y-79876659D01*
X116181461Y-80027473D01*
X116125725Y-80195677D01*
X116125724Y-80195680D01*
X116115119Y-80299482D01*
X116115119Y-80745999D01*
X116823119Y-80745999D01*
X116823119Y-81253999D01*
X116115119Y-81253999D01*
X116115119Y-81700515D01*
X105660588Y-81700515D01*
X105660588Y-78874068D01*
X105680590Y-78805947D01*
X105734246Y-78759454D01*
X105786588Y-78748068D01*
X143240146Y-78748068D01*
X143308267Y-78768070D01*
G37*
G04 #@! TD.AperFunction*
G04 #@! TA.AperFunction,Conductor*
G36*
X123750073Y-106605502D02*
G01*
X123796566Y-106659158D01*
X123806670Y-106729432D01*
X123791071Y-106774500D01*
X123717924Y-106901194D01*
X123717920Y-106901201D01*
X123662619Y-107071403D01*
X123662618Y-107071407D01*
X123662618Y-107071409D01*
X123643910Y-107249400D01*
X123646509Y-107274132D01*
X123662619Y-107427396D01*
X123717920Y-107597598D01*
X123717924Y-107597605D01*
X123807406Y-107752593D01*
X123807407Y-107752595D01*
X123807409Y-107752597D01*
X123918419Y-107875887D01*
X123927164Y-107885599D01*
X124071950Y-107990793D01*
X124071952Y-107990794D01*
X124071955Y-107990796D01*
X124235454Y-108063590D01*
X124410514Y-108100800D01*
X124438661Y-108100800D01*
X124506782Y-108120802D01*
X124527756Y-108137705D01*
X124830595Y-108440544D01*
X124864621Y-108502856D01*
X124867500Y-108529639D01*
X124867500Y-109042598D01*
X124847498Y-109110719D01*
X124793842Y-109157212D01*
X124723568Y-109167316D01*
X124715303Y-109165845D01*
X124549487Y-109130600D01*
X124549486Y-109130600D01*
X124370514Y-109130600D01*
X124195453Y-109167810D01*
X124031950Y-109240606D01*
X123887164Y-109345800D01*
X123767406Y-109478806D01*
X123677924Y-109633794D01*
X123677920Y-109633801D01*
X123622619Y-109804003D01*
X123622618Y-109804007D01*
X123622618Y-109804009D01*
X123615013Y-109876365D01*
X123603910Y-109982000D01*
X123622619Y-110159996D01*
X123677920Y-110330198D01*
X123677924Y-110330205D01*
X123767406Y-110485193D01*
X123767407Y-110485195D01*
X123767409Y-110485197D01*
X123882946Y-110613514D01*
X123887164Y-110618199D01*
X124031950Y-110723393D01*
X124031952Y-110723394D01*
X124031955Y-110723396D01*
X124195454Y-110796190D01*
X124342540Y-110827454D01*
X124370518Y-110833401D01*
X124377076Y-110834090D01*
X124376904Y-110835724D01*
X124437110Y-110853402D01*
X124483603Y-110907058D01*
X124494989Y-110959400D01*
X124494989Y-111337620D01*
X124495178Y-111338325D01*
X124499471Y-111370935D01*
X124499471Y-111895758D01*
X124479469Y-111963879D01*
X124425813Y-112010372D01*
X124355539Y-112020476D01*
X124299410Y-111997694D01*
X124145242Y-111885685D01*
X124145241Y-111885684D01*
X124145239Y-111885683D01*
X123957594Y-111790073D01*
X123957591Y-111790072D01*
X123957589Y-111790071D01*
X123757309Y-111724996D01*
X123757305Y-111724995D01*
X123757304Y-111724995D01*
X123549299Y-111692050D01*
X123338701Y-111692050D01*
X123130696Y-111724995D01*
X123130690Y-111724996D01*
X122930410Y-111790071D01*
X122930404Y-111790074D01*
X122742758Y-111885684D01*
X122638474Y-111961450D01*
X122571606Y-111985308D01*
X122502454Y-111969226D01*
X122475319Y-111948608D01*
X118208626Y-107681916D01*
X118174600Y-107619604D01*
X118179665Y-107548789D01*
X118222212Y-107491953D01*
X118246469Y-107477715D01*
X118328045Y-107441396D01*
X118472836Y-107336199D01*
X118592591Y-107203197D01*
X118682077Y-107048203D01*
X118737382Y-106877991D01*
X118756090Y-106700000D01*
X118756089Y-106699996D01*
X118756265Y-106698329D01*
X118783279Y-106632672D01*
X118841500Y-106592043D01*
X118881575Y-106585500D01*
X123681952Y-106585500D01*
X123750073Y-106605502D01*
G37*
G04 #@! TD.AperFunction*
G04 #@! TA.AperFunction,Conductor*
G36*
X112946882Y-106976502D02*
G01*
X112993375Y-107030158D01*
X113003479Y-107100432D01*
X112973985Y-107165012D01*
X112967856Y-107171595D01*
X111486215Y-108653235D01*
X111423903Y-108687261D01*
X111353087Y-108682196D01*
X111296252Y-108639649D01*
X111271441Y-108573129D01*
X111286532Y-108503755D01*
X111288002Y-108501138D01*
X111357033Y-108381576D01*
X111357034Y-108381573D01*
X111398484Y-108254000D01*
X110754000Y-108254000D01*
X110754000Y-108899853D01*
X110789901Y-108892222D01*
X110969072Y-108812450D01*
X110982748Y-108802514D01*
X111049615Y-108778654D01*
X111118767Y-108794732D01*
X111168249Y-108845644D01*
X111182350Y-108915226D01*
X111156594Y-108981386D01*
X111145907Y-108993543D01*
X109114856Y-111024595D01*
X109052544Y-111058620D01*
X109025761Y-111061500D01*
X108793371Y-111061500D01*
X108725250Y-111041498D01*
X108687888Y-111004415D01*
X108575724Y-110832734D01*
X108575719Y-110832729D01*
X108432524Y-110677179D01*
X108401103Y-110613514D01*
X108409090Y-110542968D01*
X108453948Y-110487939D01*
X108481183Y-110473789D01*
X108596204Y-110430889D01*
X108713261Y-110343261D01*
X108800889Y-110226204D01*
X108851989Y-110089201D01*
X108858500Y-110028638D01*
X108858500Y-108231362D01*
X108858203Y-108228601D01*
X108857813Y-108224967D01*
X108870419Y-108155099D01*
X108918798Y-108103137D01*
X108983091Y-108085500D01*
X109277689Y-108085500D01*
X109277690Y-108085500D01*
X109277691Y-108085500D01*
X109364308Y-108062291D01*
X109420319Y-108047283D01*
X109491292Y-108048971D01*
X109550089Y-108088764D01*
X109578038Y-108154028D01*
X109578239Y-108155818D01*
X109582363Y-108195055D01*
X109642966Y-108381574D01*
X109741031Y-108551424D01*
X109741035Y-108551431D01*
X109872259Y-108697170D01*
X109872264Y-108697175D01*
X110030925Y-108812449D01*
X110210098Y-108892222D01*
X110246000Y-108899853D01*
X110246000Y-108059500D01*
X110250000Y-108045877D01*
X110250000Y-108049728D01*
X110288060Y-108141614D01*
X110358386Y-108211940D01*
X110450272Y-108250000D01*
X110549728Y-108250000D01*
X110641614Y-108211940D01*
X110711940Y-108141614D01*
X110750000Y-108049728D01*
X110750000Y-107950272D01*
X110743053Y-107933500D01*
X110973632Y-107933500D01*
X110973638Y-107933500D01*
X110973645Y-107933499D01*
X110973649Y-107933499D01*
X111034196Y-107926990D01*
X111034199Y-107926989D01*
X111034201Y-107926989D01*
X111171204Y-107875889D01*
X111288261Y-107788261D01*
X111288261Y-107788259D01*
X111288263Y-107788259D01*
X111293618Y-107782905D01*
X111355930Y-107748879D01*
X111382713Y-107746000D01*
X111398483Y-107746000D01*
X111388556Y-107715445D01*
X111386528Y-107644478D01*
X111390334Y-107632476D01*
X111426988Y-107534204D01*
X111426990Y-107534196D01*
X111433499Y-107473649D01*
X111433500Y-107473632D01*
X111433500Y-107082500D01*
X111453502Y-107014379D01*
X111507158Y-106967886D01*
X111559500Y-106956500D01*
X112878761Y-106956500D01*
X112946882Y-106976502D01*
G37*
G04 #@! TD.AperFunction*
G04 #@! TA.AperFunction,Conductor*
G36*
X119350955Y-101939178D02*
G01*
X119396752Y-101972378D01*
X119398225Y-101970906D01*
X119524087Y-102096768D01*
X119524089Y-102096769D01*
X119524091Y-102096771D01*
X119668817Y-102187709D01*
X119830150Y-102244162D01*
X119830155Y-102244162D01*
X119830157Y-102244163D01*
X119846588Y-102246014D01*
X119912041Y-102273516D01*
X119921568Y-102282117D01*
X120353372Y-102713921D01*
X120492127Y-102794032D01*
X120560272Y-102812291D01*
X120646889Y-102835500D01*
X120646890Y-102835500D01*
X120807110Y-102835500D01*
X123293748Y-102835500D01*
X123361869Y-102855502D01*
X123408362Y-102909158D01*
X123418466Y-102979432D01*
X123400435Y-103028536D01*
X123312292Y-103168814D01*
X123312291Y-103168816D01*
X123255837Y-103330151D01*
X123236701Y-103500000D01*
X123255837Y-103669848D01*
X123300429Y-103797283D01*
X123307500Y-103838898D01*
X123307500Y-104696261D01*
X123287498Y-104764382D01*
X123270595Y-104785356D01*
X123201356Y-104854595D01*
X123139044Y-104888621D01*
X123112261Y-104891500D01*
X116598659Y-104891500D01*
X116530538Y-104871498D01*
X116484045Y-104817842D01*
X116473941Y-104747568D01*
X116503435Y-104682988D01*
X116509564Y-104676405D01*
X116857548Y-104328421D01*
X119217830Y-101968137D01*
X119280140Y-101934114D01*
X119350955Y-101939178D01*
G37*
G04 #@! TD.AperFunction*
G04 #@! TA.AperFunction,Conductor*
G36*
X114154221Y-100088502D02*
G01*
X114200714Y-100142158D01*
X114212100Y-100194500D01*
X114212100Y-102873777D01*
X114233260Y-102952749D01*
X114236272Y-102992926D01*
X114236701Y-102992926D01*
X114236701Y-102998643D01*
X114236762Y-102999457D01*
X114236701Y-102999998D01*
X114236701Y-102999999D01*
X114255837Y-103169848D01*
X114312290Y-103331182D01*
X114403231Y-103475912D01*
X114524087Y-103596768D01*
X114524089Y-103596769D01*
X114524091Y-103596771D01*
X114668817Y-103687709D01*
X114729092Y-103708800D01*
X114786784Y-103750178D01*
X114812946Y-103816178D01*
X114799273Y-103885846D01*
X114776573Y-103916824D01*
X114111804Y-104581595D01*
X114049491Y-104615620D01*
X114022708Y-104618500D01*
X109832920Y-104618500D01*
X109764799Y-104598498D01*
X109718306Y-104544842D01*
X109706920Y-104492500D01*
X109706920Y-103425829D01*
X109726922Y-103357708D01*
X109780578Y-103311215D01*
X109850852Y-103301111D01*
X109873833Y-103306656D01*
X109915487Y-103320956D01*
X109915492Y-103320957D01*
X109996000Y-103334391D01*
X109996000Y-102430702D01*
X110057007Y-102465925D01*
X110184174Y-102500000D01*
X110315826Y-102500000D01*
X110442993Y-102465925D01*
X110504000Y-102430702D01*
X110504000Y-103334390D01*
X110584507Y-103320957D01*
X110584516Y-103320955D01*
X110797369Y-103247883D01*
X110797371Y-103247882D01*
X110995300Y-103140768D01*
X110995301Y-103140767D01*
X111172902Y-103002534D01*
X111325325Y-102836958D01*
X111448419Y-102648548D01*
X111538820Y-102442456D01*
X111538823Y-102442449D01*
X111586544Y-102254000D01*
X110680703Y-102254000D01*
X110715925Y-102192993D01*
X110750000Y-102065826D01*
X110750000Y-101934174D01*
X110715925Y-101807007D01*
X110680703Y-101746000D01*
X111586544Y-101746000D01*
X111586544Y-101745999D01*
X111538823Y-101557550D01*
X111538820Y-101557543D01*
X111448419Y-101351451D01*
X111325325Y-101163041D01*
X111172902Y-100997465D01*
X110995301Y-100859232D01*
X110995300Y-100859231D01*
X110961791Y-100841097D01*
X110911401Y-100791083D01*
X110896050Y-100721766D01*
X110920612Y-100655153D01*
X110961790Y-100619472D01*
X110995576Y-100601189D01*
X111173240Y-100462906D01*
X111325722Y-100297268D01*
X111340867Y-100274087D01*
X111437888Y-100125585D01*
X111491891Y-100079496D01*
X111543371Y-100068500D01*
X114086100Y-100068500D01*
X114154221Y-100088502D01*
G37*
G04 #@! TD.AperFunction*
G04 #@! TA.AperFunction,Conductor*
G36*
X128863302Y-100839502D02*
G01*
X128909795Y-100893158D01*
X128919899Y-100963432D01*
X128890405Y-101028012D01*
X128884279Y-101034592D01*
X128588726Y-101330145D01*
X128337275Y-101581596D01*
X128274963Y-101615621D01*
X128248180Y-101618500D01*
X122639251Y-101618500D01*
X122571130Y-101598498D01*
X122524637Y-101544842D01*
X122514043Y-101506607D01*
X122510584Y-101475909D01*
X122494162Y-101330150D01*
X122440399Y-101176505D01*
X122435372Y-101162138D01*
X122436961Y-101161581D01*
X122426846Y-101100166D01*
X122455014Y-101034996D01*
X122462795Y-101026464D01*
X122632857Y-100856404D01*
X122695169Y-100822379D01*
X122721952Y-100819500D01*
X128795181Y-100819500D01*
X128863302Y-100839502D01*
G37*
G04 #@! TD.AperFunction*
G04 #@! TA.AperFunction,Conductor*
G36*
X121423593Y-100128502D02*
G01*
X121470086Y-100182158D01*
X121480190Y-100252432D01*
X121450696Y-100317012D01*
X121444567Y-100323595D01*
X121263083Y-100505078D01*
X121263075Y-100505088D01*
X121182967Y-100643839D01*
X121182968Y-100643840D01*
X121141500Y-100798601D01*
X121141500Y-101006457D01*
X121122187Y-101073493D01*
X121062292Y-101168814D01*
X121062291Y-101168816D01*
X121005837Y-101330151D01*
X121003220Y-101353382D01*
X120975716Y-101418834D01*
X120917191Y-101459027D01*
X120846228Y-101461198D01*
X120788917Y-101428368D01*
X120782127Y-101421578D01*
X120748101Y-101359266D01*
X120746014Y-101346588D01*
X120744163Y-101330157D01*
X120744162Y-101330155D01*
X120744162Y-101330150D01*
X120687709Y-101168817D01*
X120596771Y-101024091D01*
X120596769Y-101024089D01*
X120596768Y-101024087D01*
X120470906Y-100898225D01*
X120472499Y-100896631D01*
X120437892Y-100847340D01*
X120434986Y-100776403D01*
X120468137Y-100717830D01*
X121040565Y-100145404D01*
X121102877Y-100111379D01*
X121129660Y-100108500D01*
X121355472Y-100108500D01*
X121423593Y-100128502D01*
G37*
G04 #@! TD.AperFunction*
G04 #@! TA.AperFunction,Conductor*
G36*
X122723938Y-94628502D02*
G01*
X122770431Y-94682158D01*
X122780535Y-94752432D01*
X122774747Y-94776109D01*
X122770247Y-94788972D01*
X122755837Y-94830153D01*
X122736701Y-95000000D01*
X122755837Y-95169848D01*
X122800429Y-95297283D01*
X122807500Y-95338898D01*
X122807500Y-98335890D01*
X122807500Y-98496110D01*
X122848968Y-98650873D01*
X122848969Y-98650875D01*
X122848970Y-98650877D01*
X122851729Y-98655655D01*
X122868465Y-98724650D01*
X122845243Y-98791742D01*
X122831704Y-98807747D01*
X122784854Y-98854596D01*
X122722546Y-98888620D01*
X122695761Y-98891500D01*
X120745309Y-98891500D01*
X120668641Y-98912043D01*
X120590550Y-98932967D01*
X120590543Y-98932970D01*
X120451795Y-99013076D01*
X120451785Y-99013084D01*
X118654095Y-100810775D01*
X118591783Y-100844801D01*
X118520968Y-100839736D01*
X118464132Y-100797189D01*
X118439321Y-100730669D01*
X118439000Y-100721680D01*
X118439000Y-99892239D01*
X118459002Y-99824118D01*
X118475905Y-99803144D01*
X120902915Y-97376134D01*
X120902921Y-97376128D01*
X120983032Y-97237373D01*
X121024500Y-97082610D01*
X121024500Y-96922390D01*
X121024500Y-95600370D01*
X121044502Y-95532249D01*
X121061401Y-95511278D01*
X121096771Y-95475909D01*
X121187709Y-95331183D01*
X121244162Y-95169850D01*
X121263299Y-95000000D01*
X121244162Y-94830150D01*
X121225253Y-94776113D01*
X121221634Y-94705211D01*
X121256923Y-94643606D01*
X121319916Y-94610859D01*
X121344183Y-94608500D01*
X122655817Y-94608500D01*
X122723938Y-94628502D01*
G37*
G04 #@! TD.AperFunction*
G04 #@! TA.AperFunction,Conductor*
G36*
X124233012Y-96594015D02*
G01*
X124239595Y-96600144D01*
X127026856Y-99387405D01*
X127060882Y-99449717D01*
X127055817Y-99520532D01*
X127013270Y-99577368D01*
X126946750Y-99602179D01*
X126937761Y-99602500D01*
X124062240Y-99602500D01*
X123994119Y-99582498D01*
X123947626Y-99528842D01*
X123937522Y-99458568D01*
X123967016Y-99393988D01*
X123973145Y-99387405D01*
X123986916Y-99373633D01*
X123986922Y-99373627D01*
X124067032Y-99234872D01*
X124078591Y-99191732D01*
X124108500Y-99080111D01*
X124108500Y-98419889D01*
X124076837Y-98301720D01*
X124076836Y-98301718D01*
X124067031Y-98265125D01*
X124041381Y-98220697D01*
X124024500Y-98157697D01*
X124024500Y-96689239D01*
X124044502Y-96621118D01*
X124098158Y-96574625D01*
X124168432Y-96564521D01*
X124233012Y-96594015D01*
G37*
G04 #@! TD.AperFunction*
G04 #@! TA.AperFunction,Conductor*
G36*
X127122495Y-95529677D02*
G01*
X127187196Y-95567032D01*
X127341957Y-95608500D01*
X132092556Y-95608500D01*
X132160677Y-95628502D01*
X132207170Y-95682158D01*
X132217274Y-95752432D01*
X132187780Y-95817012D01*
X132136591Y-95852554D01*
X132078796Y-95874111D01*
X132078791Y-95874113D01*
X131961738Y-95961738D01*
X131874112Y-96078792D01*
X131874110Y-96078797D01*
X131823011Y-96215795D01*
X131823009Y-96215803D01*
X131816500Y-96276350D01*
X131816500Y-97223649D01*
X131823009Y-97284196D01*
X131823011Y-97284204D01*
X131859384Y-97381721D01*
X131864450Y-97452537D01*
X131861162Y-97464689D01*
X131831870Y-97554840D01*
X131831869Y-97554846D01*
X131811358Y-97749999D01*
X131811358Y-97750000D01*
X131831070Y-97937547D01*
X131831871Y-97945160D01*
X131892505Y-98131774D01*
X131892509Y-98131782D01*
X131990621Y-98301718D01*
X131990623Y-98301720D01*
X132121923Y-98447545D01*
X132121926Y-98447547D01*
X132280679Y-98562888D01*
X132425560Y-98627393D01*
X132479656Y-98673373D01*
X132500305Y-98741301D01*
X132480953Y-98809609D01*
X132427742Y-98856610D01*
X132374311Y-98868500D01*
X129031239Y-98868500D01*
X128963118Y-98848498D01*
X128942144Y-98831595D01*
X126668360Y-96557811D01*
X126634334Y-96495499D01*
X126639399Y-96424684D01*
X126681946Y-96367848D01*
X126788261Y-96288261D01*
X126875887Y-96171207D01*
X126875887Y-96171206D01*
X126875889Y-96171204D01*
X126926989Y-96034201D01*
X126933500Y-95973638D01*
X126933500Y-95638798D01*
X126953502Y-95570677D01*
X127007158Y-95524184D01*
X127077432Y-95514080D01*
X127122495Y-95529677D01*
G37*
G04 #@! TD.AperFunction*
G04 #@! TA.AperFunction,Conductor*
G36*
X119749621Y-96128502D02*
G01*
X119796114Y-96182158D01*
X119807500Y-96234500D01*
X119807500Y-96698260D01*
X119787498Y-96766381D01*
X119770595Y-96787355D01*
X118475113Y-98082836D01*
X118412801Y-98116862D01*
X118341985Y-98111797D01*
X118285150Y-98069250D01*
X118260810Y-98007848D01*
X118253746Y-97945155D01*
X118247662Y-97891151D01*
X118191209Y-97729818D01*
X118100271Y-97585092D01*
X118100269Y-97585090D01*
X118100268Y-97585088D01*
X117979412Y-97464232D01*
X117960742Y-97452501D01*
X117847506Y-97381349D01*
X117834682Y-97373291D01*
X117734770Y-97338331D01*
X117673350Y-97316839D01*
X117673348Y-97316838D01*
X117673350Y-97316838D01*
X117503500Y-97297702D01*
X117333651Y-97316838D01*
X117172316Y-97373292D01*
X117172314Y-97373293D01*
X117076993Y-97433188D01*
X117009957Y-97452501D01*
X111695240Y-97452501D01*
X111627119Y-97432499D01*
X111606145Y-97415596D01*
X111592722Y-97402173D01*
X111558696Y-97339861D01*
X111559673Y-97282146D01*
X111571011Y-97237377D01*
X111594564Y-97144368D01*
X111613156Y-96920000D01*
X111594564Y-96695632D01*
X111587773Y-96668816D01*
X111539297Y-96477387D01*
X111539294Y-96477380D01*
X111498794Y-96385049D01*
X111454958Y-96285113D01*
X111445912Y-96214696D01*
X111476373Y-96150566D01*
X111536669Y-96113084D01*
X111570346Y-96108500D01*
X119681500Y-96108500D01*
X119749621Y-96128502D01*
G37*
G04 #@! TD.AperFunction*
M02*
