G04 #@! TF.GenerationSoftware,KiCad,Pcbnew,8.0.1*
G04 #@! TF.CreationDate,2024-04-26T17:57:18-05:00*
G04 #@! TF.ProjectId,HCIPCB_ATSAMD21G18_template,48434950-4342-45f4-9154-53414d443231,rev?*
G04 #@! TF.SameCoordinates,Original*
G04 #@! TF.FileFunction,Soldermask,Top*
G04 #@! TF.FilePolarity,Negative*
%FSLAX46Y46*%
G04 Gerber Fmt 4.6, Leading zero omitted, Abs format (unit mm)*
G04 Created by KiCad (PCBNEW 8.0.1) date 2024-04-26 17:57:18*
%MOMM*%
%LPD*%
G01*
G04 APERTURE LIST*
G04 Aperture macros list*
%AMRoundRect*
0 Rectangle with rounded corners*
0 $1 Rounding radius*
0 $2 $3 $4 $5 $6 $7 $8 $9 X,Y pos of 4 corners*
0 Add a 4 corners polygon primitive as box body*
4,1,4,$2,$3,$4,$5,$6,$7,$8,$9,$2,$3,0*
0 Add four circle primitives for the rounded corners*
1,1,$1+$1,$2,$3*
1,1,$1+$1,$4,$5*
1,1,$1+$1,$6,$7*
1,1,$1+$1,$8,$9*
0 Add four rect primitives between the rounded corners*
20,1,$1+$1,$2,$3,$4,$5,0*
20,1,$1+$1,$4,$5,$6,$7,0*
20,1,$1+$1,$6,$7,$8,$9,0*
20,1,$1+$1,$8,$9,$2,$3,0*%
G04 Aperture macros list end*
%ADD10R,0.850000X0.850000*%
%ADD11O,0.850000X0.850000*%
%ADD12R,1.000000X1.000000*%
%ADD13RoundRect,0.237500X-0.237500X0.287500X-0.237500X-0.287500X0.237500X-0.287500X0.237500X0.287500X0*%
%ADD14RoundRect,0.237500X-0.250000X-0.237500X0.250000X-0.237500X0.250000X0.237500X-0.250000X0.237500X0*%
%ADD15RoundRect,0.237500X-0.237500X0.300000X-0.237500X-0.300000X0.237500X-0.300000X0.237500X0.300000X0*%
%ADD16RoundRect,0.075000X0.662500X0.075000X-0.662500X0.075000X-0.662500X-0.075000X0.662500X-0.075000X0*%
%ADD17RoundRect,0.075000X0.075000X0.662500X-0.075000X0.662500X-0.075000X-0.662500X0.075000X-0.662500X0*%
%ADD18RoundRect,0.237500X0.237500X-0.287500X0.237500X0.287500X-0.237500X0.287500X-0.237500X-0.287500X0*%
%ADD19RoundRect,0.237500X-0.237500X0.250000X-0.237500X-0.250000X0.237500X-0.250000X0.237500X0.250000X0*%
%ADD20RoundRect,0.237500X-0.287500X-0.237500X0.287500X-0.237500X0.287500X0.237500X-0.287500X0.237500X0*%
%ADD21RoundRect,0.237500X0.237500X-0.250000X0.237500X0.250000X-0.237500X0.250000X-0.237500X-0.250000X0*%
%ADD22RoundRect,0.237500X-0.300000X-0.237500X0.300000X-0.237500X0.300000X0.237500X-0.300000X0.237500X0*%
%ADD23C,0.650000*%
%ADD24RoundRect,0.075000X0.300000X0.960000X-0.300000X0.960000X-0.300000X-0.960000X0.300000X-0.960000X0*%
%ADD25RoundRect,0.075000X0.150000X0.960000X-0.150000X0.960000X-0.150000X-0.960000X0.150000X-0.960000X0*%
%ADD26O,1.204000X2.304000*%
%ADD27RoundRect,0.301000X0.301000X0.701000X-0.301000X0.701000X-0.301000X-0.701000X0.301000X-0.701000X0*%
%ADD28R,1.300000X1.300000*%
%ADD29C,1.300000*%
%ADD30R,1.400000X1.600000*%
%ADD31RoundRect,0.112500X-0.112500X-0.637500X0.112500X-0.637500X0.112500X0.637500X-0.112500X0.637500X0*%
%ADD32R,1.700000X1.700000*%
%ADD33O,1.700000X1.700000*%
%ADD34RoundRect,0.237500X0.237500X-0.300000X0.237500X0.300000X-0.237500X0.300000X-0.237500X-0.300000X0*%
%ADD35RoundRect,0.237500X0.250000X0.237500X-0.250000X0.237500X-0.250000X-0.237500X0.250000X-0.237500X0*%
%ADD36C,1.879600*%
%ADD37R,0.600000X1.200000*%
%ADD38RoundRect,0.112500X-0.637500X0.112500X-0.637500X-0.112500X0.637500X-0.112500X0.637500X0.112500X0*%
%ADD39C,2.374900*%
%ADD40C,0.990600*%
%ADD41C,0.787400*%
%ADD42R,1.800000X1.000000*%
G04 APERTURE END LIST*
D10*
X110500000Y-107000000D03*
D11*
X110500000Y-108000000D03*
D12*
X135000000Y-99000000D03*
X135000000Y-105500000D03*
D13*
X128800000Y-114525000D03*
X128800000Y-116275000D03*
D12*
X138500000Y-96750000D03*
D14*
X128162500Y-100156750D03*
X129987500Y-100156750D03*
D12*
X138500000Y-98750000D03*
D15*
X117856000Y-108331500D03*
X117856000Y-110056500D03*
D16*
X125828500Y-103588000D03*
X125828500Y-103088000D03*
X125828500Y-102588000D03*
X125828500Y-102088000D03*
X125828500Y-101588000D03*
X125828500Y-101088000D03*
X125828500Y-100588000D03*
X125828500Y-100088000D03*
X125828500Y-99588000D03*
X125828500Y-99088000D03*
X125828500Y-98588000D03*
X125828500Y-98088000D03*
D17*
X124416000Y-96675500D03*
X123916000Y-96675500D03*
X123416000Y-96675500D03*
X122916000Y-96675500D03*
X122416000Y-96675500D03*
X121916000Y-96675500D03*
X121416000Y-96675500D03*
X120916000Y-96675500D03*
X120416000Y-96675500D03*
X119916000Y-96675500D03*
X119416000Y-96675500D03*
X118916000Y-96675500D03*
D16*
X117503500Y-98088000D03*
X117503500Y-98588000D03*
X117503500Y-99088000D03*
X117503500Y-99588000D03*
X117503500Y-100088000D03*
X117503500Y-100588000D03*
X117503500Y-101088000D03*
X117503500Y-101588000D03*
X117503500Y-102088000D03*
X117503500Y-102588000D03*
X117503500Y-103088000D03*
X117503500Y-103588000D03*
D17*
X118916000Y-105000500D03*
X119416000Y-105000500D03*
X119916000Y-105000500D03*
X120416000Y-105000500D03*
X120916000Y-105000500D03*
X121416000Y-105000500D03*
X121916000Y-105000500D03*
X122416000Y-105000500D03*
X122916000Y-105000500D03*
X123416000Y-105000500D03*
X123916000Y-105000500D03*
X124416000Y-105000500D03*
D18*
X123952000Y-110082000D03*
X123952000Y-108332000D03*
D19*
X132500000Y-100000000D03*
X132500000Y-101825000D03*
D20*
X128212500Y-97000000D03*
X129962500Y-97000000D03*
X128229886Y-101750000D03*
X129979886Y-101750000D03*
D21*
X112500000Y-108412500D03*
X112500000Y-106587500D03*
D22*
X127387500Y-107168000D03*
X129112500Y-107168000D03*
D15*
X122428000Y-108344500D03*
X122428000Y-110069500D03*
X125476000Y-108344500D03*
X125476000Y-110069500D03*
D23*
X124333119Y-84679999D03*
X118553119Y-84679999D03*
D24*
X124643119Y-86139999D03*
X123843119Y-86139999D03*
D25*
X122693119Y-86139999D03*
X121693119Y-86139999D03*
X121193119Y-86139999D03*
X120193119Y-86139999D03*
D24*
X118243119Y-86139999D03*
X119043119Y-86139999D03*
D25*
X119693119Y-86139999D03*
X120693119Y-86139999D03*
X122193119Y-86139999D03*
X123193119Y-86139999D03*
D26*
X125763119Y-85179999D03*
X117123119Y-85179999D03*
D27*
X125763119Y-80999999D03*
X117123119Y-80999999D03*
D12*
X135000000Y-103250000D03*
D28*
X136500000Y-83000000D03*
D29*
X136500000Y-89500000D03*
D12*
X138500000Y-103000000D03*
D30*
X109000000Y-87100000D03*
X109000000Y-79900000D03*
X112000000Y-87100000D03*
X112000000Y-79900000D03*
D19*
X127254000Y-114403500D03*
X127254000Y-116228500D03*
D31*
X112850000Y-94830000D03*
X114150000Y-94830000D03*
X113500000Y-92170000D03*
D19*
X128016000Y-83435500D03*
X128016000Y-85260500D03*
D12*
X135000000Y-97000000D03*
X134000000Y-118250000D03*
D32*
X107500000Y-109130000D03*
D33*
X107500000Y-111670000D03*
X107500000Y-114210000D03*
X107500000Y-116750000D03*
D34*
X118660000Y-92562500D03*
X118660000Y-90837500D03*
D12*
X138500000Y-107000000D03*
D34*
X114000000Y-108362500D03*
X114000000Y-106637500D03*
X123740000Y-92562500D03*
X123740000Y-90837500D03*
D10*
X126000000Y-95500000D03*
D11*
X126000000Y-94500000D03*
D35*
X111412500Y-91500000D03*
X109587500Y-91500000D03*
D14*
X128175000Y-98600000D03*
X130000000Y-98600000D03*
D15*
X120904000Y-108344500D03*
X120904000Y-110069500D03*
D19*
X132500000Y-107250000D03*
X132500000Y-109075000D03*
D12*
X135000000Y-107500000D03*
D30*
X115300000Y-111000000D03*
X115300000Y-118200000D03*
X112300000Y-111000000D03*
X112300000Y-118200000D03*
D19*
X115000000Y-83435500D03*
X115000000Y-85260500D03*
D36*
X114858900Y-88148720D03*
X113500000Y-89500000D03*
D12*
X135000000Y-95000000D03*
D37*
X122150000Y-90450000D03*
X121200000Y-90450000D03*
X120250000Y-90450000D03*
X120250000Y-92950000D03*
X122150000Y-92950000D03*
D22*
X127387500Y-112756000D03*
X129112500Y-112756000D03*
D12*
X138500000Y-100750000D03*
D32*
X107710000Y-102000000D03*
D33*
X110250000Y-102000000D03*
X107710000Y-99460000D03*
X110250000Y-99460000D03*
X107710000Y-96920000D03*
X110250000Y-96920000D03*
X107710000Y-94380000D03*
X110250000Y-94380000D03*
D32*
X131750000Y-104500000D03*
D33*
X129210000Y-104500000D03*
D38*
X125670000Y-90850000D03*
X125670000Y-92150000D03*
X128330000Y-91500000D03*
D21*
X113000000Y-98912500D03*
X113000000Y-97087500D03*
D10*
X132750000Y-96750000D03*
D11*
X132750000Y-97750000D03*
D12*
X141750000Y-115500000D03*
D39*
X123444000Y-118110000D03*
D40*
X123444000Y-115570000D03*
D39*
X123444000Y-113030000D03*
X120269000Y-118110000D03*
X120269000Y-113030000D03*
D40*
X118364000Y-116586000D03*
X118364000Y-114554000D03*
D41*
X122174000Y-114935000D03*
X122174000Y-116205000D03*
X120904000Y-114935000D03*
X120904000Y-116205000D03*
X119634000Y-114935000D03*
X119634000Y-116205000D03*
D12*
X141750000Y-117500000D03*
X135000000Y-101000000D03*
D42*
X128250000Y-108712000D03*
X128250000Y-111212000D03*
D21*
X119380000Y-110106500D03*
X119380000Y-108281500D03*
D12*
X138500000Y-105000000D03*
D14*
X128087500Y-95000000D03*
X129912500Y-95000000D03*
M02*
