G04 #@! TF.GenerationSoftware,KiCad,Pcbnew,8.0.1*
G04 #@! TF.CreationDate,2024-04-26T17:57:17-05:00*
G04 #@! TF.ProjectId,HCIPCB_ATSAMD21G18_template,48434950-4342-45f4-9154-53414d443231,rev?*
G04 #@! TF.SameCoordinates,Original*
G04 #@! TF.FileFunction,Legend,Top*
G04 #@! TF.FilePolarity,Positive*
%FSLAX46Y46*%
G04 Gerber Fmt 4.6, Leading zero omitted, Abs format (unit mm)*
G04 Created by KiCad (PCBNEW 8.0.1) date 2024-04-26 17:57:17*
%MOMM*%
%LPD*%
G01*
G04 APERTURE LIST*
G04 Aperture macros list*
%AMRoundRect*
0 Rectangle with rounded corners*
0 $1 Rounding radius*
0 $2 $3 $4 $5 $6 $7 $8 $9 X,Y pos of 4 corners*
0 Add a 4 corners polygon primitive as box body*
4,1,4,$2,$3,$4,$5,$6,$7,$8,$9,$2,$3,0*
0 Add four circle primitives for the rounded corners*
1,1,$1+$1,$2,$3*
1,1,$1+$1,$4,$5*
1,1,$1+$1,$6,$7*
1,1,$1+$1,$8,$9*
0 Add four rect primitives between the rounded corners*
20,1,$1+$1,$2,$3,$4,$5,0*
20,1,$1+$1,$4,$5,$6,$7,0*
20,1,$1+$1,$6,$7,$8,$9,0*
20,1,$1+$1,$8,$9,$2,$3,0*%
G04 Aperture macros list end*
%ADD10C,0.150000*%
%ADD11C,0.254000*%
%ADD12C,0.127000*%
%ADD13C,0.120000*%
%ADD14C,0.200000*%
%ADD15C,0.100000*%
%ADD16R,0.850000X0.850000*%
%ADD17O,0.850000X0.850000*%
%ADD18R,1.000000X1.000000*%
%ADD19RoundRect,0.237500X-0.237500X0.287500X-0.237500X-0.287500X0.237500X-0.287500X0.237500X0.287500X0*%
%ADD20RoundRect,0.237500X-0.250000X-0.237500X0.250000X-0.237500X0.250000X0.237500X-0.250000X0.237500X0*%
%ADD21RoundRect,0.237500X-0.237500X0.300000X-0.237500X-0.300000X0.237500X-0.300000X0.237500X0.300000X0*%
%ADD22RoundRect,0.075000X0.662500X0.075000X-0.662500X0.075000X-0.662500X-0.075000X0.662500X-0.075000X0*%
%ADD23RoundRect,0.075000X0.075000X0.662500X-0.075000X0.662500X-0.075000X-0.662500X0.075000X-0.662500X0*%
%ADD24RoundRect,0.237500X0.237500X-0.287500X0.237500X0.287500X-0.237500X0.287500X-0.237500X-0.287500X0*%
%ADD25RoundRect,0.237500X-0.237500X0.250000X-0.237500X-0.250000X0.237500X-0.250000X0.237500X0.250000X0*%
%ADD26RoundRect,0.237500X-0.287500X-0.237500X0.287500X-0.237500X0.287500X0.237500X-0.287500X0.237500X0*%
%ADD27RoundRect,0.237500X0.237500X-0.250000X0.237500X0.250000X-0.237500X0.250000X-0.237500X-0.250000X0*%
%ADD28RoundRect,0.237500X-0.300000X-0.237500X0.300000X-0.237500X0.300000X0.237500X-0.300000X0.237500X0*%
%ADD29C,0.650000*%
%ADD30RoundRect,0.075000X0.300000X0.960000X-0.300000X0.960000X-0.300000X-0.960000X0.300000X-0.960000X0*%
%ADD31RoundRect,0.075000X0.150000X0.960000X-0.150000X0.960000X-0.150000X-0.960000X0.150000X-0.960000X0*%
%ADD32O,1.204000X2.304000*%
%ADD33RoundRect,0.301000X0.301000X0.701000X-0.301000X0.701000X-0.301000X-0.701000X0.301000X-0.701000X0*%
%ADD34R,1.300000X1.300000*%
%ADD35C,1.300000*%
%ADD36R,1.400000X1.600000*%
%ADD37RoundRect,0.112500X-0.112500X-0.637500X0.112500X-0.637500X0.112500X0.637500X-0.112500X0.637500X0*%
%ADD38R,1.700000X1.700000*%
%ADD39O,1.700000X1.700000*%
%ADD40RoundRect,0.237500X0.237500X-0.300000X0.237500X0.300000X-0.237500X0.300000X-0.237500X-0.300000X0*%
%ADD41RoundRect,0.237500X0.250000X0.237500X-0.250000X0.237500X-0.250000X-0.237500X0.250000X-0.237500X0*%
%ADD42C,1.879600*%
%ADD43R,0.600000X1.200000*%
%ADD44RoundRect,0.112500X-0.637500X0.112500X-0.637500X-0.112500X0.637500X-0.112500X0.637500X0.112500X0*%
%ADD45C,2.374900*%
%ADD46C,0.990600*%
%ADD47C,0.787400*%
%ADD48R,1.800000X1.000000*%
G04 APERTURE END LIST*
D10*
X130862295Y-116382666D02*
X130062295Y-116382666D01*
X130062295Y-116382666D02*
X130062295Y-116077904D01*
X130062295Y-116077904D02*
X130100390Y-116001714D01*
X130100390Y-116001714D02*
X130138485Y-115963619D01*
X130138485Y-115963619D02*
X130214676Y-115925523D01*
X130214676Y-115925523D02*
X130328961Y-115925523D01*
X130328961Y-115925523D02*
X130405152Y-115963619D01*
X130405152Y-115963619D02*
X130443247Y-116001714D01*
X130443247Y-116001714D02*
X130481342Y-116077904D01*
X130481342Y-116077904D02*
X130481342Y-116382666D01*
X130062295Y-115658857D02*
X130862295Y-115468381D01*
X130862295Y-115468381D02*
X130290866Y-115316000D01*
X130290866Y-115316000D02*
X130862295Y-115163619D01*
X130862295Y-115163619D02*
X130062295Y-114973143D01*
X130862295Y-114211237D02*
X130481342Y-114477904D01*
X130862295Y-114668380D02*
X130062295Y-114668380D01*
X130062295Y-114668380D02*
X130062295Y-114363618D01*
X130062295Y-114363618D02*
X130100390Y-114287428D01*
X130100390Y-114287428D02*
X130138485Y-114249333D01*
X130138485Y-114249333D02*
X130214676Y-114211237D01*
X130214676Y-114211237D02*
X130328961Y-114211237D01*
X130328961Y-114211237D02*
X130405152Y-114249333D01*
X130405152Y-114249333D02*
X130443247Y-114287428D01*
X130443247Y-114287428D02*
X130481342Y-114363618D01*
X130481342Y-114363618D02*
X130481342Y-114668380D01*
X112954819Y-108809523D02*
X111954819Y-108809523D01*
X111954819Y-108809523D02*
X112669104Y-108476190D01*
X112669104Y-108476190D02*
X111954819Y-108142857D01*
X111954819Y-108142857D02*
X112954819Y-108142857D01*
X112954819Y-107666666D02*
X111954819Y-107666666D01*
X112954819Y-107095238D02*
X112383390Y-107523809D01*
X111954819Y-107095238D02*
X112526247Y-107666666D01*
X112954819Y-106142857D02*
X112954819Y-106714285D01*
X112954819Y-106428571D02*
X111954819Y-106428571D01*
X111954819Y-106428571D02*
X112097676Y-106523809D01*
X112097676Y-106523809D02*
X112192914Y-106619047D01*
X112192914Y-106619047D02*
X112240533Y-106714285D01*
X133340152Y-103214285D02*
X133340152Y-102833333D01*
X133006819Y-103071428D02*
X133863961Y-103071428D01*
X133863961Y-103071428D02*
X133959200Y-103023809D01*
X133959200Y-103023809D02*
X134006819Y-102928571D01*
X134006819Y-102928571D02*
X134006819Y-102833333D01*
X134006819Y-102499999D02*
X133006819Y-102499999D01*
X134006819Y-102071428D02*
X133483009Y-102071428D01*
X133483009Y-102071428D02*
X133387771Y-102119047D01*
X133387771Y-102119047D02*
X133340152Y-102214285D01*
X133340152Y-102214285D02*
X133340152Y-102357142D01*
X133340152Y-102357142D02*
X133387771Y-102452380D01*
X133387771Y-102452380D02*
X133435390Y-102499999D01*
X133959200Y-101214285D02*
X134006819Y-101309523D01*
X134006819Y-101309523D02*
X134006819Y-101499999D01*
X134006819Y-101499999D02*
X133959200Y-101595237D01*
X133959200Y-101595237D02*
X133863961Y-101642856D01*
X133863961Y-101642856D02*
X133483009Y-101642856D01*
X133483009Y-101642856D02*
X133387771Y-101595237D01*
X133387771Y-101595237D02*
X133340152Y-101499999D01*
X133340152Y-101499999D02*
X133340152Y-101309523D01*
X133340152Y-101309523D02*
X133387771Y-101214285D01*
X133387771Y-101214285D02*
X133483009Y-101166666D01*
X133483009Y-101166666D02*
X133578247Y-101166666D01*
X133578247Y-101166666D02*
X133673485Y-101642856D01*
X134006819Y-100738094D02*
X133340152Y-100738094D01*
X133530628Y-100738094D02*
X133435390Y-100690475D01*
X133435390Y-100690475D02*
X133387771Y-100642856D01*
X133387771Y-100642856D02*
X133340152Y-100547618D01*
X133340152Y-100547618D02*
X133340152Y-100452380D01*
X134006819Y-100119046D02*
X133340152Y-100119046D01*
X133435390Y-100119046D02*
X133387771Y-100071427D01*
X133387771Y-100071427D02*
X133340152Y-99976189D01*
X133340152Y-99976189D02*
X133340152Y-99833332D01*
X133340152Y-99833332D02*
X133387771Y-99738094D01*
X133387771Y-99738094D02*
X133483009Y-99690475D01*
X133483009Y-99690475D02*
X134006819Y-99690475D01*
X133483009Y-99690475D02*
X133387771Y-99642856D01*
X133387771Y-99642856D02*
X133340152Y-99547618D01*
X133340152Y-99547618D02*
X133340152Y-99404761D01*
X133340152Y-99404761D02*
X133387771Y-99309522D01*
X133387771Y-99309522D02*
X133483009Y-99261903D01*
X133483009Y-99261903D02*
X134006819Y-99261903D01*
X134006819Y-98785713D02*
X133340152Y-98785713D01*
X133006819Y-98785713D02*
X133054438Y-98833332D01*
X133054438Y-98833332D02*
X133102057Y-98785713D01*
X133102057Y-98785713D02*
X133054438Y-98738094D01*
X133054438Y-98738094D02*
X133006819Y-98785713D01*
X133006819Y-98785713D02*
X133102057Y-98785713D01*
X133959200Y-98357142D02*
X134006819Y-98261904D01*
X134006819Y-98261904D02*
X134006819Y-98071428D01*
X134006819Y-98071428D02*
X133959200Y-97976190D01*
X133959200Y-97976190D02*
X133863961Y-97928571D01*
X133863961Y-97928571D02*
X133816342Y-97928571D01*
X133816342Y-97928571D02*
X133721104Y-97976190D01*
X133721104Y-97976190D02*
X133673485Y-98071428D01*
X133673485Y-98071428D02*
X133673485Y-98214285D01*
X133673485Y-98214285D02*
X133625866Y-98309523D01*
X133625866Y-98309523D02*
X133530628Y-98357142D01*
X133530628Y-98357142D02*
X133483009Y-98357142D01*
X133483009Y-98357142D02*
X133387771Y-98309523D01*
X133387771Y-98309523D02*
X133340152Y-98214285D01*
X133340152Y-98214285D02*
X133340152Y-98071428D01*
X133340152Y-98071428D02*
X133387771Y-97976190D01*
X133340152Y-97642856D02*
X133340152Y-97261904D01*
X133006819Y-97499999D02*
X133863961Y-97499999D01*
X133863961Y-97499999D02*
X133959200Y-97452380D01*
X133959200Y-97452380D02*
X134006819Y-97357142D01*
X134006819Y-97357142D02*
X134006819Y-97261904D01*
X134006819Y-96785713D02*
X133959200Y-96880951D01*
X133959200Y-96880951D02*
X133911580Y-96928570D01*
X133911580Y-96928570D02*
X133816342Y-96976189D01*
X133816342Y-96976189D02*
X133530628Y-96976189D01*
X133530628Y-96976189D02*
X133435390Y-96928570D01*
X133435390Y-96928570D02*
X133387771Y-96880951D01*
X133387771Y-96880951D02*
X133340152Y-96785713D01*
X133340152Y-96785713D02*
X133340152Y-96642856D01*
X133340152Y-96642856D02*
X133387771Y-96547618D01*
X133387771Y-96547618D02*
X133435390Y-96499999D01*
X133435390Y-96499999D02*
X133530628Y-96452380D01*
X133530628Y-96452380D02*
X133816342Y-96452380D01*
X133816342Y-96452380D02*
X133911580Y-96499999D01*
X133911580Y-96499999D02*
X133959200Y-96547618D01*
X133959200Y-96547618D02*
X134006819Y-96642856D01*
X134006819Y-96642856D02*
X134006819Y-96785713D01*
X134006819Y-96023808D02*
X133340152Y-96023808D01*
X133530628Y-96023808D02*
X133435390Y-95976189D01*
X133435390Y-95976189D02*
X133387771Y-95928570D01*
X133387771Y-95928570D02*
X133340152Y-95833332D01*
X133340152Y-95833332D02*
X133340152Y-95738094D01*
X134006819Y-94880951D02*
X134006819Y-95452379D01*
X134006819Y-95166665D02*
X133006819Y-95166665D01*
X133006819Y-95166665D02*
X133149676Y-95261903D01*
X133149676Y-95261903D02*
X133244914Y-95357141D01*
X133244914Y-95357141D02*
X133292533Y-95452379D01*
X134006819Y-107071427D02*
X133340152Y-107071427D01*
X133435390Y-107071427D02*
X133387771Y-107023808D01*
X133387771Y-107023808D02*
X133340152Y-106928570D01*
X133340152Y-106928570D02*
X133340152Y-106785713D01*
X133340152Y-106785713D02*
X133387771Y-106690475D01*
X133387771Y-106690475D02*
X133483009Y-106642856D01*
X133483009Y-106642856D02*
X134006819Y-106642856D01*
X133483009Y-106642856D02*
X133387771Y-106595237D01*
X133387771Y-106595237D02*
X133340152Y-106499999D01*
X133340152Y-106499999D02*
X133340152Y-106357142D01*
X133340152Y-106357142D02*
X133387771Y-106261903D01*
X133387771Y-106261903D02*
X133483009Y-106214284D01*
X133483009Y-106214284D02*
X134006819Y-106214284D01*
X134006819Y-105738094D02*
X133340152Y-105738094D01*
X133006819Y-105738094D02*
X133054438Y-105785713D01*
X133054438Y-105785713D02*
X133102057Y-105738094D01*
X133102057Y-105738094D02*
X133054438Y-105690475D01*
X133054438Y-105690475D02*
X133006819Y-105738094D01*
X133006819Y-105738094D02*
X133102057Y-105738094D01*
X133959200Y-104833333D02*
X134006819Y-104928571D01*
X134006819Y-104928571D02*
X134006819Y-105119047D01*
X134006819Y-105119047D02*
X133959200Y-105214285D01*
X133959200Y-105214285D02*
X133911580Y-105261904D01*
X133911580Y-105261904D02*
X133816342Y-105309523D01*
X133816342Y-105309523D02*
X133530628Y-105309523D01*
X133530628Y-105309523D02*
X133435390Y-105261904D01*
X133435390Y-105261904D02*
X133387771Y-105214285D01*
X133387771Y-105214285D02*
X133340152Y-105119047D01*
X133340152Y-105119047D02*
X133340152Y-104928571D01*
X133340152Y-104928571D02*
X133387771Y-104833333D01*
X134006819Y-103880952D02*
X134006819Y-104452380D01*
X134006819Y-104166666D02*
X133006819Y-104166666D01*
X133006819Y-104166666D02*
X133149676Y-104261904D01*
X133149676Y-104261904D02*
X133244914Y-104357142D01*
X133244914Y-104357142D02*
X133292533Y-104452380D01*
X128409524Y-117862295D02*
X128409524Y-117062295D01*
X128409524Y-117062295D02*
X128600000Y-117062295D01*
X128600000Y-117062295D02*
X128714286Y-117100390D01*
X128714286Y-117100390D02*
X128790476Y-117176580D01*
X128790476Y-117176580D02*
X128828571Y-117252771D01*
X128828571Y-117252771D02*
X128866667Y-117405152D01*
X128866667Y-117405152D02*
X128866667Y-117519438D01*
X128866667Y-117519438D02*
X128828571Y-117671819D01*
X128828571Y-117671819D02*
X128790476Y-117748009D01*
X128790476Y-117748009D02*
X128714286Y-117824200D01*
X128714286Y-117824200D02*
X128600000Y-117862295D01*
X128600000Y-117862295D02*
X128409524Y-117862295D01*
X129628571Y-117862295D02*
X129171428Y-117862295D01*
X129400000Y-117862295D02*
X129400000Y-117062295D01*
X129400000Y-117062295D02*
X129323809Y-117176580D01*
X129323809Y-117176580D02*
X129247619Y-117252771D01*
X129247619Y-117252771D02*
X129171428Y-117290866D01*
X137411580Y-98440476D02*
X137459200Y-98488095D01*
X137459200Y-98488095D02*
X137506819Y-98630952D01*
X137506819Y-98630952D02*
X137506819Y-98726190D01*
X137506819Y-98726190D02*
X137459200Y-98869047D01*
X137459200Y-98869047D02*
X137363961Y-98964285D01*
X137363961Y-98964285D02*
X137268723Y-99011904D01*
X137268723Y-99011904D02*
X137078247Y-99059523D01*
X137078247Y-99059523D02*
X136935390Y-99059523D01*
X136935390Y-99059523D02*
X136744914Y-99011904D01*
X136744914Y-99011904D02*
X136649676Y-98964285D01*
X136649676Y-98964285D02*
X136554438Y-98869047D01*
X136554438Y-98869047D02*
X136506819Y-98726190D01*
X136506819Y-98726190D02*
X136506819Y-98630952D01*
X136506819Y-98630952D02*
X136554438Y-98488095D01*
X136554438Y-98488095D02*
X136602057Y-98440476D01*
X137506819Y-98011904D02*
X136506819Y-98011904D01*
X136983009Y-98011904D02*
X136983009Y-97440476D01*
X137506819Y-97440476D02*
X136506819Y-97440476D01*
X137506819Y-96964285D02*
X136506819Y-96964285D01*
X136506819Y-96964285D02*
X136506819Y-96583333D01*
X136506819Y-96583333D02*
X136554438Y-96488095D01*
X136554438Y-96488095D02*
X136602057Y-96440476D01*
X136602057Y-96440476D02*
X136697295Y-96392857D01*
X136697295Y-96392857D02*
X136840152Y-96392857D01*
X136840152Y-96392857D02*
X136935390Y-96440476D01*
X136935390Y-96440476D02*
X136983009Y-96488095D01*
X136983009Y-96488095D02*
X137030628Y-96583333D01*
X137030628Y-96583333D02*
X137030628Y-96964285D01*
X137506819Y-95964285D02*
X136506819Y-95964285D01*
X136506819Y-95964285D02*
X136506819Y-95726190D01*
X136506819Y-95726190D02*
X136554438Y-95583333D01*
X136554438Y-95583333D02*
X136649676Y-95488095D01*
X136649676Y-95488095D02*
X136744914Y-95440476D01*
X136744914Y-95440476D02*
X136935390Y-95392857D01*
X136935390Y-95392857D02*
X137078247Y-95392857D01*
X137078247Y-95392857D02*
X137268723Y-95440476D01*
X137268723Y-95440476D02*
X137363961Y-95488095D01*
X137363961Y-95488095D02*
X137459200Y-95583333D01*
X137459200Y-95583333D02*
X137506819Y-95726190D01*
X137506819Y-95726190D02*
X137506819Y-95964285D01*
X137506819Y-94440476D02*
X137506819Y-95011904D01*
X137506819Y-94726190D02*
X136506819Y-94726190D01*
X136506819Y-94726190D02*
X136649676Y-94821428D01*
X136649676Y-94821428D02*
X136744914Y-94916666D01*
X136744914Y-94916666D02*
X136792533Y-95011904D01*
X137459200Y-100440475D02*
X137506819Y-100297618D01*
X137506819Y-100297618D02*
X137506819Y-100059523D01*
X137506819Y-100059523D02*
X137459200Y-99964285D01*
X137459200Y-99964285D02*
X137411580Y-99916666D01*
X137411580Y-99916666D02*
X137316342Y-99869047D01*
X137316342Y-99869047D02*
X137221104Y-99869047D01*
X137221104Y-99869047D02*
X137125866Y-99916666D01*
X137125866Y-99916666D02*
X137078247Y-99964285D01*
X137078247Y-99964285D02*
X137030628Y-100059523D01*
X137030628Y-100059523D02*
X136983009Y-100249999D01*
X136983009Y-100249999D02*
X136935390Y-100345237D01*
X136935390Y-100345237D02*
X136887771Y-100392856D01*
X136887771Y-100392856D02*
X136792533Y-100440475D01*
X136792533Y-100440475D02*
X136697295Y-100440475D01*
X136697295Y-100440475D02*
X136602057Y-100392856D01*
X136602057Y-100392856D02*
X136554438Y-100345237D01*
X136554438Y-100345237D02*
X136506819Y-100249999D01*
X136506819Y-100249999D02*
X136506819Y-100011904D01*
X136506819Y-100011904D02*
X136554438Y-99869047D01*
X137506819Y-99440475D02*
X136506819Y-99440475D01*
X136506819Y-99440475D02*
X136506819Y-99202380D01*
X136506819Y-99202380D02*
X136554438Y-99059523D01*
X136554438Y-99059523D02*
X136649676Y-98964285D01*
X136649676Y-98964285D02*
X136744914Y-98916666D01*
X136744914Y-98916666D02*
X136935390Y-98869047D01*
X136935390Y-98869047D02*
X137078247Y-98869047D01*
X137078247Y-98869047D02*
X137268723Y-98916666D01*
X137268723Y-98916666D02*
X137363961Y-98964285D01*
X137363961Y-98964285D02*
X137459200Y-99059523D01*
X137459200Y-99059523D02*
X137506819Y-99202380D01*
X137506819Y-99202380D02*
X137506819Y-99440475D01*
X137221104Y-98488094D02*
X137221104Y-98011904D01*
X137506819Y-98583332D02*
X136506819Y-98249999D01*
X136506819Y-98249999D02*
X137506819Y-97916666D01*
X137506819Y-97059523D02*
X137506819Y-97630951D01*
X137506819Y-97345237D02*
X136506819Y-97345237D01*
X136506819Y-97345237D02*
X136649676Y-97440475D01*
X136649676Y-97440475D02*
X136744914Y-97535713D01*
X136744914Y-97535713D02*
X136792533Y-97630951D01*
X119152667Y-107536104D02*
X119114571Y-107574200D01*
X119114571Y-107574200D02*
X119000286Y-107612295D01*
X119000286Y-107612295D02*
X118924095Y-107612295D01*
X118924095Y-107612295D02*
X118809809Y-107574200D01*
X118809809Y-107574200D02*
X118733619Y-107498009D01*
X118733619Y-107498009D02*
X118695524Y-107421819D01*
X118695524Y-107421819D02*
X118657428Y-107269438D01*
X118657428Y-107269438D02*
X118657428Y-107155152D01*
X118657428Y-107155152D02*
X118695524Y-107002771D01*
X118695524Y-107002771D02*
X118733619Y-106926580D01*
X118733619Y-106926580D02*
X118809809Y-106850390D01*
X118809809Y-106850390D02*
X118924095Y-106812295D01*
X118924095Y-106812295D02*
X119000286Y-106812295D01*
X119000286Y-106812295D02*
X119114571Y-106850390D01*
X119114571Y-106850390D02*
X119152667Y-106888485D01*
X119419333Y-106812295D02*
X119914571Y-106812295D01*
X119914571Y-106812295D02*
X119647905Y-107117057D01*
X119647905Y-107117057D02*
X119762190Y-107117057D01*
X119762190Y-107117057D02*
X119838381Y-107155152D01*
X119838381Y-107155152D02*
X119876476Y-107193247D01*
X119876476Y-107193247D02*
X119914571Y-107269438D01*
X119914571Y-107269438D02*
X119914571Y-107459914D01*
X119914571Y-107459914D02*
X119876476Y-107536104D01*
X119876476Y-107536104D02*
X119838381Y-107574200D01*
X119838381Y-107574200D02*
X119762190Y-107612295D01*
X119762190Y-107612295D02*
X119533619Y-107612295D01*
X119533619Y-107612295D02*
X119457428Y-107574200D01*
X119457428Y-107574200D02*
X119419333Y-107536104D01*
X118990476Y-98062295D02*
X118990476Y-98709914D01*
X118990476Y-98709914D02*
X119028571Y-98786104D01*
X119028571Y-98786104D02*
X119066666Y-98824200D01*
X119066666Y-98824200D02*
X119142857Y-98862295D01*
X119142857Y-98862295D02*
X119295238Y-98862295D01*
X119295238Y-98862295D02*
X119371428Y-98824200D01*
X119371428Y-98824200D02*
X119409523Y-98786104D01*
X119409523Y-98786104D02*
X119447619Y-98709914D01*
X119447619Y-98709914D02*
X119447619Y-98062295D01*
X120247618Y-98862295D02*
X119790475Y-98862295D01*
X120019047Y-98862295D02*
X120019047Y-98062295D01*
X120019047Y-98062295D02*
X119942856Y-98176580D01*
X119942856Y-98176580D02*
X119866666Y-98252771D01*
X119866666Y-98252771D02*
X119790475Y-98290866D01*
X122366666Y-107612295D02*
X121985714Y-107612295D01*
X121985714Y-107612295D02*
X121985714Y-106812295D01*
X123052380Y-107612295D02*
X122595237Y-107612295D01*
X122823809Y-107612295D02*
X122823809Y-106812295D01*
X122823809Y-106812295D02*
X122747618Y-106926580D01*
X122747618Y-106926580D02*
X122671428Y-107002771D01*
X122671428Y-107002771D02*
X122595237Y-107040866D01*
X134384819Y-101555357D02*
X133908628Y-101888690D01*
X134384819Y-102126785D02*
X133384819Y-102126785D01*
X133384819Y-102126785D02*
X133384819Y-101745833D01*
X133384819Y-101745833D02*
X133432438Y-101650595D01*
X133432438Y-101650595D02*
X133480057Y-101602976D01*
X133480057Y-101602976D02*
X133575295Y-101555357D01*
X133575295Y-101555357D02*
X133718152Y-101555357D01*
X133718152Y-101555357D02*
X133813390Y-101602976D01*
X133813390Y-101602976D02*
X133861009Y-101650595D01*
X133861009Y-101650595D02*
X133908628Y-101745833D01*
X133908628Y-101745833D02*
X133908628Y-102126785D01*
X134384819Y-100602976D02*
X134384819Y-101174404D01*
X134384819Y-100888690D02*
X133384819Y-100888690D01*
X133384819Y-100888690D02*
X133527676Y-100983928D01*
X133527676Y-100983928D02*
X133622914Y-101079166D01*
X133622914Y-101079166D02*
X133670533Y-101174404D01*
X133480057Y-100222023D02*
X133432438Y-100174404D01*
X133432438Y-100174404D02*
X133384819Y-100079166D01*
X133384819Y-100079166D02*
X133384819Y-99841071D01*
X133384819Y-99841071D02*
X133432438Y-99745833D01*
X133432438Y-99745833D02*
X133480057Y-99698214D01*
X133480057Y-99698214D02*
X133575295Y-99650595D01*
X133575295Y-99650595D02*
X133670533Y-99650595D01*
X133670533Y-99650595D02*
X133813390Y-99698214D01*
X133813390Y-99698214D02*
X134384819Y-100269642D01*
X134384819Y-100269642D02*
X134384819Y-99650595D01*
X112954819Y-110891666D02*
X112478628Y-111224999D01*
X112954819Y-111463094D02*
X111954819Y-111463094D01*
X111954819Y-111463094D02*
X111954819Y-111082142D01*
X111954819Y-111082142D02*
X112002438Y-110986904D01*
X112002438Y-110986904D02*
X112050057Y-110939285D01*
X112050057Y-110939285D02*
X112145295Y-110891666D01*
X112145295Y-110891666D02*
X112288152Y-110891666D01*
X112288152Y-110891666D02*
X112383390Y-110939285D01*
X112383390Y-110939285D02*
X112431009Y-110986904D01*
X112431009Y-110986904D02*
X112478628Y-111082142D01*
X112478628Y-111082142D02*
X112478628Y-111463094D01*
X112383390Y-110320237D02*
X112335771Y-110415475D01*
X112335771Y-110415475D02*
X112288152Y-110463094D01*
X112288152Y-110463094D02*
X112192914Y-110510713D01*
X112192914Y-110510713D02*
X112145295Y-110510713D01*
X112145295Y-110510713D02*
X112050057Y-110463094D01*
X112050057Y-110463094D02*
X112002438Y-110415475D01*
X112002438Y-110415475D02*
X111954819Y-110320237D01*
X111954819Y-110320237D02*
X111954819Y-110129761D01*
X111954819Y-110129761D02*
X112002438Y-110034523D01*
X112002438Y-110034523D02*
X112050057Y-109986904D01*
X112050057Y-109986904D02*
X112145295Y-109939285D01*
X112145295Y-109939285D02*
X112192914Y-109939285D01*
X112192914Y-109939285D02*
X112288152Y-109986904D01*
X112288152Y-109986904D02*
X112335771Y-110034523D01*
X112335771Y-110034523D02*
X112383390Y-110129761D01*
X112383390Y-110129761D02*
X112383390Y-110320237D01*
X112383390Y-110320237D02*
X112431009Y-110415475D01*
X112431009Y-110415475D02*
X112478628Y-110463094D01*
X112478628Y-110463094D02*
X112573866Y-110510713D01*
X112573866Y-110510713D02*
X112764342Y-110510713D01*
X112764342Y-110510713D02*
X112859580Y-110463094D01*
X112859580Y-110463094D02*
X112907200Y-110415475D01*
X112907200Y-110415475D02*
X112954819Y-110320237D01*
X112954819Y-110320237D02*
X112954819Y-110129761D01*
X112954819Y-110129761D02*
X112907200Y-110034523D01*
X112907200Y-110034523D02*
X112859580Y-109986904D01*
X112859580Y-109986904D02*
X112764342Y-109939285D01*
X112764342Y-109939285D02*
X112573866Y-109939285D01*
X112573866Y-109939285D02*
X112478628Y-109986904D01*
X112478628Y-109986904D02*
X112431009Y-110034523D01*
X112431009Y-110034523D02*
X112383390Y-110129761D01*
X128116667Y-106024104D02*
X128078571Y-106062200D01*
X128078571Y-106062200D02*
X127964286Y-106100295D01*
X127964286Y-106100295D02*
X127888095Y-106100295D01*
X127888095Y-106100295D02*
X127773809Y-106062200D01*
X127773809Y-106062200D02*
X127697619Y-105986009D01*
X127697619Y-105986009D02*
X127659524Y-105909819D01*
X127659524Y-105909819D02*
X127621428Y-105757438D01*
X127621428Y-105757438D02*
X127621428Y-105643152D01*
X127621428Y-105643152D02*
X127659524Y-105490771D01*
X127659524Y-105490771D02*
X127697619Y-105414580D01*
X127697619Y-105414580D02*
X127773809Y-105338390D01*
X127773809Y-105338390D02*
X127888095Y-105300295D01*
X127888095Y-105300295D02*
X127964286Y-105300295D01*
X127964286Y-105300295D02*
X128078571Y-105338390D01*
X128078571Y-105338390D02*
X128116667Y-105376485D01*
X128802381Y-105300295D02*
X128650000Y-105300295D01*
X128650000Y-105300295D02*
X128573809Y-105338390D01*
X128573809Y-105338390D02*
X128535714Y-105376485D01*
X128535714Y-105376485D02*
X128459524Y-105490771D01*
X128459524Y-105490771D02*
X128421428Y-105643152D01*
X128421428Y-105643152D02*
X128421428Y-105947914D01*
X128421428Y-105947914D02*
X128459524Y-106024104D01*
X128459524Y-106024104D02*
X128497619Y-106062200D01*
X128497619Y-106062200D02*
X128573809Y-106100295D01*
X128573809Y-106100295D02*
X128726190Y-106100295D01*
X128726190Y-106100295D02*
X128802381Y-106062200D01*
X128802381Y-106062200D02*
X128840476Y-106024104D01*
X128840476Y-106024104D02*
X128878571Y-105947914D01*
X128878571Y-105947914D02*
X128878571Y-105757438D01*
X128878571Y-105757438D02*
X128840476Y-105681247D01*
X128840476Y-105681247D02*
X128802381Y-105643152D01*
X128802381Y-105643152D02*
X128726190Y-105605057D01*
X128726190Y-105605057D02*
X128573809Y-105605057D01*
X128573809Y-105605057D02*
X128497619Y-105643152D01*
X128497619Y-105643152D02*
X128459524Y-105681247D01*
X128459524Y-105681247D02*
X128421428Y-105757438D01*
X123866667Y-107536104D02*
X123828571Y-107574200D01*
X123828571Y-107574200D02*
X123714286Y-107612295D01*
X123714286Y-107612295D02*
X123638095Y-107612295D01*
X123638095Y-107612295D02*
X123523809Y-107574200D01*
X123523809Y-107574200D02*
X123447619Y-107498009D01*
X123447619Y-107498009D02*
X123409524Y-107421819D01*
X123409524Y-107421819D02*
X123371428Y-107269438D01*
X123371428Y-107269438D02*
X123371428Y-107155152D01*
X123371428Y-107155152D02*
X123409524Y-107002771D01*
X123409524Y-107002771D02*
X123447619Y-106926580D01*
X123447619Y-106926580D02*
X123523809Y-106850390D01*
X123523809Y-106850390D02*
X123638095Y-106812295D01*
X123638095Y-106812295D02*
X123714286Y-106812295D01*
X123714286Y-106812295D02*
X123828571Y-106850390D01*
X123828571Y-106850390D02*
X123866667Y-106888485D01*
X124552381Y-107078961D02*
X124552381Y-107612295D01*
X124361905Y-106774200D02*
X124171428Y-107345628D01*
X124171428Y-107345628D02*
X124666667Y-107345628D01*
X126979936Y-109340085D02*
X127018032Y-109378181D01*
X127018032Y-109378181D02*
X127056127Y-109492466D01*
X127056127Y-109492466D02*
X127056127Y-109568657D01*
X127056127Y-109568657D02*
X127018032Y-109682943D01*
X127018032Y-109682943D02*
X126941841Y-109759133D01*
X126941841Y-109759133D02*
X126865651Y-109797228D01*
X126865651Y-109797228D02*
X126713270Y-109835324D01*
X126713270Y-109835324D02*
X126598984Y-109835324D01*
X126598984Y-109835324D02*
X126446603Y-109797228D01*
X126446603Y-109797228D02*
X126370412Y-109759133D01*
X126370412Y-109759133D02*
X126294222Y-109682943D01*
X126294222Y-109682943D02*
X126256127Y-109568657D01*
X126256127Y-109568657D02*
X126256127Y-109492466D01*
X126256127Y-109492466D02*
X126294222Y-109378181D01*
X126294222Y-109378181D02*
X126332317Y-109340085D01*
X126332317Y-109035324D02*
X126294222Y-108997228D01*
X126294222Y-108997228D02*
X126256127Y-108921038D01*
X126256127Y-108921038D02*
X126256127Y-108730562D01*
X126256127Y-108730562D02*
X126294222Y-108654371D01*
X126294222Y-108654371D02*
X126332317Y-108616276D01*
X126332317Y-108616276D02*
X126408508Y-108578181D01*
X126408508Y-108578181D02*
X126484698Y-108578181D01*
X126484698Y-108578181D02*
X126598984Y-108616276D01*
X126598984Y-108616276D02*
X127056127Y-109073419D01*
X127056127Y-109073419D02*
X127056127Y-108578181D01*
X126233333Y-87062295D02*
X126233333Y-87633723D01*
X126233333Y-87633723D02*
X126195238Y-87748009D01*
X126195238Y-87748009D02*
X126119047Y-87824200D01*
X126119047Y-87824200D02*
X126004762Y-87862295D01*
X126004762Y-87862295D02*
X125928571Y-87862295D01*
X126576190Y-87138485D02*
X126614286Y-87100390D01*
X126614286Y-87100390D02*
X126690476Y-87062295D01*
X126690476Y-87062295D02*
X126880952Y-87062295D01*
X126880952Y-87062295D02*
X126957143Y-87100390D01*
X126957143Y-87100390D02*
X126995238Y-87138485D01*
X126995238Y-87138485D02*
X127033333Y-87214676D01*
X127033333Y-87214676D02*
X127033333Y-87290866D01*
X127033333Y-87290866D02*
X126995238Y-87405152D01*
X126995238Y-87405152D02*
X126538095Y-87862295D01*
X126538095Y-87862295D02*
X127033333Y-87862295D01*
X134006819Y-105940476D02*
X133006819Y-105940476D01*
X133387771Y-105940476D02*
X133340152Y-105845238D01*
X133340152Y-105845238D02*
X133340152Y-105654762D01*
X133340152Y-105654762D02*
X133387771Y-105559524D01*
X133387771Y-105559524D02*
X133435390Y-105511905D01*
X133435390Y-105511905D02*
X133530628Y-105464286D01*
X133530628Y-105464286D02*
X133816342Y-105464286D01*
X133816342Y-105464286D02*
X133911580Y-105511905D01*
X133911580Y-105511905D02*
X133959200Y-105559524D01*
X133959200Y-105559524D02*
X134006819Y-105654762D01*
X134006819Y-105654762D02*
X134006819Y-105845238D01*
X134006819Y-105845238D02*
X133959200Y-105940476D01*
X133340152Y-104607143D02*
X134006819Y-104607143D01*
X133340152Y-105035714D02*
X133863961Y-105035714D01*
X133863961Y-105035714D02*
X133959200Y-104988095D01*
X133959200Y-104988095D02*
X134006819Y-104892857D01*
X134006819Y-104892857D02*
X134006819Y-104750000D01*
X134006819Y-104750000D02*
X133959200Y-104654762D01*
X133959200Y-104654762D02*
X133911580Y-104607143D01*
X133340152Y-104226190D02*
X133340152Y-103702381D01*
X133340152Y-103702381D02*
X134006819Y-104226190D01*
X134006819Y-104226190D02*
X134006819Y-103702381D01*
X133340152Y-103416666D02*
X133340152Y-102892857D01*
X133340152Y-102892857D02*
X134006819Y-103416666D01*
X134006819Y-103416666D02*
X134006819Y-102892857D01*
X133959200Y-102130952D02*
X134006819Y-102226190D01*
X134006819Y-102226190D02*
X134006819Y-102416666D01*
X134006819Y-102416666D02*
X133959200Y-102511904D01*
X133959200Y-102511904D02*
X133863961Y-102559523D01*
X133863961Y-102559523D02*
X133483009Y-102559523D01*
X133483009Y-102559523D02*
X133387771Y-102511904D01*
X133387771Y-102511904D02*
X133340152Y-102416666D01*
X133340152Y-102416666D02*
X133340152Y-102226190D01*
X133340152Y-102226190D02*
X133387771Y-102130952D01*
X133387771Y-102130952D02*
X133483009Y-102083333D01*
X133483009Y-102083333D02*
X133578247Y-102083333D01*
X133578247Y-102083333D02*
X133673485Y-102559523D01*
X134006819Y-101654761D02*
X133340152Y-101654761D01*
X133530628Y-101654761D02*
X133435390Y-101607142D01*
X133435390Y-101607142D02*
X133387771Y-101559523D01*
X133387771Y-101559523D02*
X133340152Y-101464285D01*
X133340152Y-101464285D02*
X133340152Y-101369047D01*
X134006819Y-100511904D02*
X134006819Y-101083332D01*
X134006819Y-100797618D02*
X133006819Y-100797618D01*
X133006819Y-100797618D02*
X133149676Y-100892856D01*
X133149676Y-100892856D02*
X133244914Y-100988094D01*
X133244914Y-100988094D02*
X133292533Y-101083332D01*
D11*
X135683571Y-86824318D02*
X135078809Y-86824318D01*
X135078809Y-86824318D02*
X135078809Y-85554318D01*
X136046428Y-86763842D02*
X136227857Y-86824318D01*
X136227857Y-86824318D02*
X136530238Y-86824318D01*
X136530238Y-86824318D02*
X136651190Y-86763842D01*
X136651190Y-86763842D02*
X136711666Y-86703365D01*
X136711666Y-86703365D02*
X136772143Y-86582413D01*
X136772143Y-86582413D02*
X136772143Y-86461461D01*
X136772143Y-86461461D02*
X136711666Y-86340508D01*
X136711666Y-86340508D02*
X136651190Y-86280032D01*
X136651190Y-86280032D02*
X136530238Y-86219556D01*
X136530238Y-86219556D02*
X136288333Y-86159080D01*
X136288333Y-86159080D02*
X136167381Y-86098603D01*
X136167381Y-86098603D02*
X136106904Y-86038127D01*
X136106904Y-86038127D02*
X136046428Y-85917175D01*
X136046428Y-85917175D02*
X136046428Y-85796222D01*
X136046428Y-85796222D02*
X136106904Y-85675270D01*
X136106904Y-85675270D02*
X136167381Y-85614794D01*
X136167381Y-85614794D02*
X136288333Y-85554318D01*
X136288333Y-85554318D02*
X136590714Y-85554318D01*
X136590714Y-85554318D02*
X136772143Y-85614794D01*
X137981667Y-86824318D02*
X137255952Y-86824318D01*
X137618809Y-86824318D02*
X137618809Y-85554318D01*
X137618809Y-85554318D02*
X137497857Y-85735746D01*
X137497857Y-85735746D02*
X137376905Y-85856699D01*
X137376905Y-85856699D02*
X137255952Y-85917175D01*
D10*
X137459200Y-106380953D02*
X137506819Y-106476191D01*
X137506819Y-106476191D02*
X137506819Y-106666667D01*
X137506819Y-106666667D02*
X137459200Y-106761905D01*
X137459200Y-106761905D02*
X137363961Y-106809524D01*
X137363961Y-106809524D02*
X136983009Y-106809524D01*
X136983009Y-106809524D02*
X136887771Y-106761905D01*
X136887771Y-106761905D02*
X136840152Y-106666667D01*
X136840152Y-106666667D02*
X136840152Y-106476191D01*
X136840152Y-106476191D02*
X136887771Y-106380953D01*
X136887771Y-106380953D02*
X136983009Y-106333334D01*
X136983009Y-106333334D02*
X137078247Y-106333334D01*
X137078247Y-106333334D02*
X137173485Y-106809524D01*
X137459200Y-105952381D02*
X137506819Y-105857143D01*
X137506819Y-105857143D02*
X137506819Y-105666667D01*
X137506819Y-105666667D02*
X137459200Y-105571429D01*
X137459200Y-105571429D02*
X137363961Y-105523810D01*
X137363961Y-105523810D02*
X137316342Y-105523810D01*
X137316342Y-105523810D02*
X137221104Y-105571429D01*
X137221104Y-105571429D02*
X137173485Y-105666667D01*
X137173485Y-105666667D02*
X137173485Y-105809524D01*
X137173485Y-105809524D02*
X137125866Y-105904762D01*
X137125866Y-105904762D02*
X137030628Y-105952381D01*
X137030628Y-105952381D02*
X136983009Y-105952381D01*
X136983009Y-105952381D02*
X136887771Y-105904762D01*
X136887771Y-105904762D02*
X136840152Y-105809524D01*
X136840152Y-105809524D02*
X136840152Y-105666667D01*
X136840152Y-105666667D02*
X136887771Y-105571429D01*
X136840152Y-105095238D02*
X137840152Y-105095238D01*
X136887771Y-105095238D02*
X136840152Y-105000000D01*
X136840152Y-105000000D02*
X136840152Y-104809524D01*
X136840152Y-104809524D02*
X136887771Y-104714286D01*
X136887771Y-104714286D02*
X136935390Y-104666667D01*
X136935390Y-104666667D02*
X137030628Y-104619048D01*
X137030628Y-104619048D02*
X137316342Y-104619048D01*
X137316342Y-104619048D02*
X137411580Y-104666667D01*
X137411580Y-104666667D02*
X137459200Y-104714286D01*
X137459200Y-104714286D02*
X137506819Y-104809524D01*
X137506819Y-104809524D02*
X137506819Y-105000000D01*
X137506819Y-105000000D02*
X137459200Y-105095238D01*
X137602057Y-104428572D02*
X137602057Y-103666667D01*
X137506819Y-103428571D02*
X136840152Y-103428571D01*
X137030628Y-103428571D02*
X136935390Y-103380952D01*
X136935390Y-103380952D02*
X136887771Y-103333333D01*
X136887771Y-103333333D02*
X136840152Y-103238095D01*
X136840152Y-103238095D02*
X136840152Y-103142857D01*
X137459200Y-102428571D02*
X137506819Y-102523809D01*
X137506819Y-102523809D02*
X137506819Y-102714285D01*
X137506819Y-102714285D02*
X137459200Y-102809523D01*
X137459200Y-102809523D02*
X137363961Y-102857142D01*
X137363961Y-102857142D02*
X136983009Y-102857142D01*
X136983009Y-102857142D02*
X136887771Y-102809523D01*
X136887771Y-102809523D02*
X136840152Y-102714285D01*
X136840152Y-102714285D02*
X136840152Y-102523809D01*
X136840152Y-102523809D02*
X136887771Y-102428571D01*
X136887771Y-102428571D02*
X136983009Y-102380952D01*
X136983009Y-102380952D02*
X137078247Y-102380952D01*
X137078247Y-102380952D02*
X137173485Y-102857142D01*
X137459200Y-101999999D02*
X137506819Y-101904761D01*
X137506819Y-101904761D02*
X137506819Y-101714285D01*
X137506819Y-101714285D02*
X137459200Y-101619047D01*
X137459200Y-101619047D02*
X137363961Y-101571428D01*
X137363961Y-101571428D02*
X137316342Y-101571428D01*
X137316342Y-101571428D02*
X137221104Y-101619047D01*
X137221104Y-101619047D02*
X137173485Y-101714285D01*
X137173485Y-101714285D02*
X137173485Y-101857142D01*
X137173485Y-101857142D02*
X137125866Y-101952380D01*
X137125866Y-101952380D02*
X137030628Y-101999999D01*
X137030628Y-101999999D02*
X136983009Y-101999999D01*
X136983009Y-101999999D02*
X136887771Y-101952380D01*
X136887771Y-101952380D02*
X136840152Y-101857142D01*
X136840152Y-101857142D02*
X136840152Y-101714285D01*
X136840152Y-101714285D02*
X136887771Y-101619047D01*
X137459200Y-100761904D02*
X137506819Y-100857142D01*
X137506819Y-100857142D02*
X137506819Y-101047618D01*
X137506819Y-101047618D02*
X137459200Y-101142856D01*
X137459200Y-101142856D02*
X137363961Y-101190475D01*
X137363961Y-101190475D02*
X136983009Y-101190475D01*
X136983009Y-101190475D02*
X136887771Y-101142856D01*
X136887771Y-101142856D02*
X136840152Y-101047618D01*
X136840152Y-101047618D02*
X136840152Y-100857142D01*
X136840152Y-100857142D02*
X136887771Y-100761904D01*
X136887771Y-100761904D02*
X136983009Y-100714285D01*
X136983009Y-100714285D02*
X137078247Y-100714285D01*
X137078247Y-100714285D02*
X137173485Y-101190475D01*
X136840152Y-100428570D02*
X136840152Y-100047618D01*
X136506819Y-100285713D02*
X137363961Y-100285713D01*
X137363961Y-100285713D02*
X137459200Y-100238094D01*
X137459200Y-100238094D02*
X137506819Y-100142856D01*
X137506819Y-100142856D02*
X137506819Y-100047618D01*
X137506819Y-99190475D02*
X137506819Y-99761903D01*
X137506819Y-99476189D02*
X136506819Y-99476189D01*
X136506819Y-99476189D02*
X136649676Y-99571427D01*
X136649676Y-99571427D02*
X136744914Y-99666665D01*
X136744914Y-99666665D02*
X136792533Y-99761903D01*
X107857142Y-89407200D02*
X107761904Y-89454819D01*
X107761904Y-89454819D02*
X107571428Y-89454819D01*
X107571428Y-89454819D02*
X107476190Y-89407200D01*
X107476190Y-89407200D02*
X107428571Y-89311961D01*
X107428571Y-89311961D02*
X107428571Y-88931009D01*
X107428571Y-88931009D02*
X107476190Y-88835771D01*
X107476190Y-88835771D02*
X107571428Y-88788152D01*
X107571428Y-88788152D02*
X107761904Y-88788152D01*
X107761904Y-88788152D02*
X107857142Y-88835771D01*
X107857142Y-88835771D02*
X107904761Y-88931009D01*
X107904761Y-88931009D02*
X107904761Y-89026247D01*
X107904761Y-89026247D02*
X107428571Y-89121485D01*
X108285714Y-89407200D02*
X108380952Y-89454819D01*
X108380952Y-89454819D02*
X108571428Y-89454819D01*
X108571428Y-89454819D02*
X108666666Y-89407200D01*
X108666666Y-89407200D02*
X108714285Y-89311961D01*
X108714285Y-89311961D02*
X108714285Y-89264342D01*
X108714285Y-89264342D02*
X108666666Y-89169104D01*
X108666666Y-89169104D02*
X108571428Y-89121485D01*
X108571428Y-89121485D02*
X108428571Y-89121485D01*
X108428571Y-89121485D02*
X108333333Y-89073866D01*
X108333333Y-89073866D02*
X108285714Y-88978628D01*
X108285714Y-88978628D02*
X108285714Y-88931009D01*
X108285714Y-88931009D02*
X108333333Y-88835771D01*
X108333333Y-88835771D02*
X108428571Y-88788152D01*
X108428571Y-88788152D02*
X108571428Y-88788152D01*
X108571428Y-88788152D02*
X108666666Y-88835771D01*
X109142857Y-88788152D02*
X109142857Y-89788152D01*
X109142857Y-88835771D02*
X109238095Y-88788152D01*
X109238095Y-88788152D02*
X109428571Y-88788152D01*
X109428571Y-88788152D02*
X109523809Y-88835771D01*
X109523809Y-88835771D02*
X109571428Y-88883390D01*
X109571428Y-88883390D02*
X109619047Y-88978628D01*
X109619047Y-88978628D02*
X109619047Y-89264342D01*
X109619047Y-89264342D02*
X109571428Y-89359580D01*
X109571428Y-89359580D02*
X109523809Y-89407200D01*
X109523809Y-89407200D02*
X109428571Y-89454819D01*
X109428571Y-89454819D02*
X109238095Y-89454819D01*
X109238095Y-89454819D02*
X109142857Y-89407200D01*
X110047619Y-89454819D02*
X110047619Y-88788152D01*
X110047619Y-88978628D02*
X110095238Y-88883390D01*
X110095238Y-88883390D02*
X110142857Y-88835771D01*
X110142857Y-88835771D02*
X110238095Y-88788152D01*
X110238095Y-88788152D02*
X110333333Y-88788152D01*
X110619048Y-89407200D02*
X110714286Y-89454819D01*
X110714286Y-89454819D02*
X110904762Y-89454819D01*
X110904762Y-89454819D02*
X111000000Y-89407200D01*
X111000000Y-89407200D02*
X111047619Y-89311961D01*
X111047619Y-89311961D02*
X111047619Y-89264342D01*
X111047619Y-89264342D02*
X111000000Y-89169104D01*
X111000000Y-89169104D02*
X110904762Y-89121485D01*
X110904762Y-89121485D02*
X110761905Y-89121485D01*
X110761905Y-89121485D02*
X110666667Y-89073866D01*
X110666667Y-89073866D02*
X110619048Y-88978628D01*
X110619048Y-88978628D02*
X110619048Y-88931009D01*
X110619048Y-88931009D02*
X110666667Y-88835771D01*
X110666667Y-88835771D02*
X110761905Y-88788152D01*
X110761905Y-88788152D02*
X110904762Y-88788152D01*
X110904762Y-88788152D02*
X111000000Y-88835771D01*
X111333334Y-88788152D02*
X111714286Y-88788152D01*
X111476191Y-88454819D02*
X111476191Y-89311961D01*
X111476191Y-89311961D02*
X111523810Y-89407200D01*
X111523810Y-89407200D02*
X111619048Y-89454819D01*
X111619048Y-89454819D02*
X111714286Y-89454819D01*
X112571429Y-89454819D02*
X112000001Y-89454819D01*
X112285715Y-89454819D02*
X112285715Y-88454819D01*
X112285715Y-88454819D02*
X112190477Y-88597676D01*
X112190477Y-88597676D02*
X112095239Y-88692914D01*
X112095239Y-88692914D02*
X112000001Y-88740533D01*
X127116667Y-117862295D02*
X126850000Y-117481342D01*
X126659524Y-117862295D02*
X126659524Y-117062295D01*
X126659524Y-117062295D02*
X126964286Y-117062295D01*
X126964286Y-117062295D02*
X127040476Y-117100390D01*
X127040476Y-117100390D02*
X127078571Y-117138485D01*
X127078571Y-117138485D02*
X127116667Y-117214676D01*
X127116667Y-117214676D02*
X127116667Y-117328961D01*
X127116667Y-117328961D02*
X127078571Y-117405152D01*
X127078571Y-117405152D02*
X127040476Y-117443247D01*
X127040476Y-117443247D02*
X126964286Y-117481342D01*
X126964286Y-117481342D02*
X126659524Y-117481342D01*
X127421428Y-117138485D02*
X127459524Y-117100390D01*
X127459524Y-117100390D02*
X127535714Y-117062295D01*
X127535714Y-117062295D02*
X127726190Y-117062295D01*
X127726190Y-117062295D02*
X127802381Y-117100390D01*
X127802381Y-117100390D02*
X127840476Y-117138485D01*
X127840476Y-117138485D02*
X127878571Y-117214676D01*
X127878571Y-117214676D02*
X127878571Y-117290866D01*
X127878571Y-117290866D02*
X127840476Y-117405152D01*
X127840476Y-117405152D02*
X127383333Y-117862295D01*
X127383333Y-117862295D02*
X127878571Y-117862295D01*
X112050057Y-93095238D02*
X112002438Y-93190476D01*
X112002438Y-93190476D02*
X111907200Y-93285714D01*
X111907200Y-93285714D02*
X111764342Y-93428571D01*
X111764342Y-93428571D02*
X111716723Y-93523809D01*
X111716723Y-93523809D02*
X111716723Y-93619047D01*
X111954819Y-93571428D02*
X111907200Y-93666666D01*
X111907200Y-93666666D02*
X111811961Y-93761904D01*
X111811961Y-93761904D02*
X111621485Y-93809523D01*
X111621485Y-93809523D02*
X111288152Y-93809523D01*
X111288152Y-93809523D02*
X111097676Y-93761904D01*
X111097676Y-93761904D02*
X111002438Y-93666666D01*
X111002438Y-93666666D02*
X110954819Y-93571428D01*
X110954819Y-93571428D02*
X110954819Y-93380952D01*
X110954819Y-93380952D02*
X111002438Y-93285714D01*
X111002438Y-93285714D02*
X111097676Y-93190476D01*
X111097676Y-93190476D02*
X111288152Y-93142857D01*
X111288152Y-93142857D02*
X111621485Y-93142857D01*
X111621485Y-93142857D02*
X111811961Y-93190476D01*
X111811961Y-93190476D02*
X111907200Y-93285714D01*
X111907200Y-93285714D02*
X111954819Y-93380952D01*
X111954819Y-93380952D02*
X111954819Y-93571428D01*
X111954819Y-92190476D02*
X111954819Y-92761904D01*
X111954819Y-92476190D02*
X110954819Y-92476190D01*
X110954819Y-92476190D02*
X111097676Y-92571428D01*
X111097676Y-92571428D02*
X111192914Y-92666666D01*
X111192914Y-92666666D02*
X111240533Y-92761904D01*
X127866667Y-82362295D02*
X127600000Y-81981342D01*
X127409524Y-82362295D02*
X127409524Y-81562295D01*
X127409524Y-81562295D02*
X127714286Y-81562295D01*
X127714286Y-81562295D02*
X127790476Y-81600390D01*
X127790476Y-81600390D02*
X127828571Y-81638485D01*
X127828571Y-81638485D02*
X127866667Y-81714676D01*
X127866667Y-81714676D02*
X127866667Y-81828961D01*
X127866667Y-81828961D02*
X127828571Y-81905152D01*
X127828571Y-81905152D02*
X127790476Y-81943247D01*
X127790476Y-81943247D02*
X127714286Y-81981342D01*
X127714286Y-81981342D02*
X127409524Y-81981342D01*
X128552381Y-81828961D02*
X128552381Y-82362295D01*
X128361905Y-81524200D02*
X128171428Y-82095628D01*
X128171428Y-82095628D02*
X128666667Y-82095628D01*
X134006819Y-97880952D02*
X133530628Y-98214285D01*
X134006819Y-98452380D02*
X133006819Y-98452380D01*
X133006819Y-98452380D02*
X133006819Y-98071428D01*
X133006819Y-98071428D02*
X133054438Y-97976190D01*
X133054438Y-97976190D02*
X133102057Y-97928571D01*
X133102057Y-97928571D02*
X133197295Y-97880952D01*
X133197295Y-97880952D02*
X133340152Y-97880952D01*
X133340152Y-97880952D02*
X133435390Y-97928571D01*
X133435390Y-97928571D02*
X133483009Y-97976190D01*
X133483009Y-97976190D02*
X133530628Y-98071428D01*
X133530628Y-98071428D02*
X133530628Y-98452380D01*
X133006819Y-97547618D02*
X134006819Y-96880952D01*
X133006819Y-96880952D02*
X134006819Y-97547618D01*
X134006819Y-96499999D02*
X133006819Y-96499999D01*
X134006819Y-95500000D02*
X134006819Y-96071428D01*
X134006819Y-95785714D02*
X133006819Y-95785714D01*
X133006819Y-95785714D02*
X133149676Y-95880952D01*
X133149676Y-95880952D02*
X133244914Y-95976190D01*
X133244914Y-95976190D02*
X133292533Y-96071428D01*
X129809523Y-120152819D02*
X129809523Y-119629009D01*
X129809523Y-119629009D02*
X129761904Y-119533771D01*
X129761904Y-119533771D02*
X129666666Y-119486152D01*
X129666666Y-119486152D02*
X129476190Y-119486152D01*
X129476190Y-119486152D02*
X129380952Y-119533771D01*
X129809523Y-120105200D02*
X129714285Y-120152819D01*
X129714285Y-120152819D02*
X129476190Y-120152819D01*
X129476190Y-120152819D02*
X129380952Y-120105200D01*
X129380952Y-120105200D02*
X129333333Y-120009961D01*
X129333333Y-120009961D02*
X129333333Y-119914723D01*
X129333333Y-119914723D02*
X129380952Y-119819485D01*
X129380952Y-119819485D02*
X129476190Y-119771866D01*
X129476190Y-119771866D02*
X129714285Y-119771866D01*
X129714285Y-119771866D02*
X129809523Y-119724247D01*
X130285714Y-119486152D02*
X130285714Y-120152819D01*
X130285714Y-119581390D02*
X130333333Y-119533771D01*
X130333333Y-119533771D02*
X130428571Y-119486152D01*
X130428571Y-119486152D02*
X130571428Y-119486152D01*
X130571428Y-119486152D02*
X130666666Y-119533771D01*
X130666666Y-119533771D02*
X130714285Y-119629009D01*
X130714285Y-119629009D02*
X130714285Y-120152819D01*
X131619047Y-120152819D02*
X131619047Y-119629009D01*
X131619047Y-119629009D02*
X131571428Y-119533771D01*
X131571428Y-119533771D02*
X131476190Y-119486152D01*
X131476190Y-119486152D02*
X131285714Y-119486152D01*
X131285714Y-119486152D02*
X131190476Y-119533771D01*
X131619047Y-120105200D02*
X131523809Y-120152819D01*
X131523809Y-120152819D02*
X131285714Y-120152819D01*
X131285714Y-120152819D02*
X131190476Y-120105200D01*
X131190476Y-120105200D02*
X131142857Y-120009961D01*
X131142857Y-120009961D02*
X131142857Y-119914723D01*
X131142857Y-119914723D02*
X131190476Y-119819485D01*
X131190476Y-119819485D02*
X131285714Y-119771866D01*
X131285714Y-119771866D02*
X131523809Y-119771866D01*
X131523809Y-119771866D02*
X131619047Y-119724247D01*
X131857143Y-120248057D02*
X132619047Y-120248057D01*
X132857143Y-120152819D02*
X132857143Y-119152819D01*
X132857143Y-119533771D02*
X132952381Y-119486152D01*
X132952381Y-119486152D02*
X133142857Y-119486152D01*
X133142857Y-119486152D02*
X133238095Y-119533771D01*
X133238095Y-119533771D02*
X133285714Y-119581390D01*
X133285714Y-119581390D02*
X133333333Y-119676628D01*
X133333333Y-119676628D02*
X133333333Y-119962342D01*
X133333333Y-119962342D02*
X133285714Y-120057580D01*
X133285714Y-120057580D02*
X133238095Y-120105200D01*
X133238095Y-120105200D02*
X133142857Y-120152819D01*
X133142857Y-120152819D02*
X132952381Y-120152819D01*
X132952381Y-120152819D02*
X132857143Y-120105200D01*
X134190476Y-120152819D02*
X134190476Y-119629009D01*
X134190476Y-119629009D02*
X134142857Y-119533771D01*
X134142857Y-119533771D02*
X134047619Y-119486152D01*
X134047619Y-119486152D02*
X133857143Y-119486152D01*
X133857143Y-119486152D02*
X133761905Y-119533771D01*
X134190476Y-120105200D02*
X134095238Y-120152819D01*
X134095238Y-120152819D02*
X133857143Y-120152819D01*
X133857143Y-120152819D02*
X133761905Y-120105200D01*
X133761905Y-120105200D02*
X133714286Y-120009961D01*
X133714286Y-120009961D02*
X133714286Y-119914723D01*
X133714286Y-119914723D02*
X133761905Y-119819485D01*
X133761905Y-119819485D02*
X133857143Y-119771866D01*
X133857143Y-119771866D02*
X134095238Y-119771866D01*
X134095238Y-119771866D02*
X134190476Y-119724247D01*
X135095238Y-120105200D02*
X135000000Y-120152819D01*
X135000000Y-120152819D02*
X134809524Y-120152819D01*
X134809524Y-120152819D02*
X134714286Y-120105200D01*
X134714286Y-120105200D02*
X134666667Y-120057580D01*
X134666667Y-120057580D02*
X134619048Y-119962342D01*
X134619048Y-119962342D02*
X134619048Y-119676628D01*
X134619048Y-119676628D02*
X134666667Y-119581390D01*
X134666667Y-119581390D02*
X134714286Y-119533771D01*
X134714286Y-119533771D02*
X134809524Y-119486152D01*
X134809524Y-119486152D02*
X135000000Y-119486152D01*
X135000000Y-119486152D02*
X135095238Y-119533771D01*
X135523810Y-120152819D02*
X135523810Y-119152819D01*
X135619048Y-119771866D02*
X135904762Y-120152819D01*
X135904762Y-119486152D02*
X135523810Y-119867104D01*
X136761905Y-119486152D02*
X136761905Y-120152819D01*
X136333334Y-119486152D02*
X136333334Y-120009961D01*
X136333334Y-120009961D02*
X136380953Y-120105200D01*
X136380953Y-120105200D02*
X136476191Y-120152819D01*
X136476191Y-120152819D02*
X136619048Y-120152819D01*
X136619048Y-120152819D02*
X136714286Y-120105200D01*
X136714286Y-120105200D02*
X136761905Y-120057580D01*
X137238096Y-119486152D02*
X137238096Y-120486152D01*
X137238096Y-119533771D02*
X137333334Y-119486152D01*
X137333334Y-119486152D02*
X137523810Y-119486152D01*
X137523810Y-119486152D02*
X137619048Y-119533771D01*
X137619048Y-119533771D02*
X137666667Y-119581390D01*
X137666667Y-119581390D02*
X137714286Y-119676628D01*
X137714286Y-119676628D02*
X137714286Y-119962342D01*
X137714286Y-119962342D02*
X137666667Y-120057580D01*
X137666667Y-120057580D02*
X137619048Y-120105200D01*
X137619048Y-120105200D02*
X137523810Y-120152819D01*
X137523810Y-120152819D02*
X137333334Y-120152819D01*
X137333334Y-120152819D02*
X137238096Y-120105200D01*
X138666667Y-120152819D02*
X138095239Y-120152819D01*
X138380953Y-120152819D02*
X138380953Y-119152819D01*
X138380953Y-119152819D02*
X138285715Y-119295676D01*
X138285715Y-119295676D02*
X138190477Y-119390914D01*
X138190477Y-119390914D02*
X138095239Y-119438533D01*
X107166666Y-106254819D02*
X107166666Y-106969104D01*
X107166666Y-106969104D02*
X107119047Y-107111961D01*
X107119047Y-107111961D02*
X107023809Y-107207200D01*
X107023809Y-107207200D02*
X106880952Y-107254819D01*
X106880952Y-107254819D02*
X106785714Y-107254819D01*
X108119047Y-106254819D02*
X107642857Y-106254819D01*
X107642857Y-106254819D02*
X107595238Y-106731009D01*
X107595238Y-106731009D02*
X107642857Y-106683390D01*
X107642857Y-106683390D02*
X107738095Y-106635771D01*
X107738095Y-106635771D02*
X107976190Y-106635771D01*
X107976190Y-106635771D02*
X108071428Y-106683390D01*
X108071428Y-106683390D02*
X108119047Y-106731009D01*
X108119047Y-106731009D02*
X108166666Y-106826247D01*
X108166666Y-106826247D02*
X108166666Y-107064342D01*
X108166666Y-107064342D02*
X108119047Y-107159580D01*
X108119047Y-107159580D02*
X108071428Y-107207200D01*
X108071428Y-107207200D02*
X107976190Y-107254819D01*
X107976190Y-107254819D02*
X107738095Y-107254819D01*
X107738095Y-107254819D02*
X107642857Y-107207200D01*
X107642857Y-107207200D02*
X107595238Y-107159580D01*
X117786104Y-91833332D02*
X117824200Y-91871428D01*
X117824200Y-91871428D02*
X117862295Y-91985713D01*
X117862295Y-91985713D02*
X117862295Y-92061904D01*
X117862295Y-92061904D02*
X117824200Y-92176190D01*
X117824200Y-92176190D02*
X117748009Y-92252380D01*
X117748009Y-92252380D02*
X117671819Y-92290475D01*
X117671819Y-92290475D02*
X117519438Y-92328571D01*
X117519438Y-92328571D02*
X117405152Y-92328571D01*
X117405152Y-92328571D02*
X117252771Y-92290475D01*
X117252771Y-92290475D02*
X117176580Y-92252380D01*
X117176580Y-92252380D02*
X117100390Y-92176190D01*
X117100390Y-92176190D02*
X117062295Y-92061904D01*
X117062295Y-92061904D02*
X117062295Y-91985713D01*
X117062295Y-91985713D02*
X117100390Y-91871428D01*
X117100390Y-91871428D02*
X117138485Y-91833332D01*
X117062295Y-91566666D02*
X117062295Y-91033332D01*
X117062295Y-91033332D02*
X117862295Y-91376190D01*
X136554438Y-108476190D02*
X136506819Y-108571428D01*
X136506819Y-108571428D02*
X136506819Y-108714285D01*
X136506819Y-108714285D02*
X136554438Y-108857142D01*
X136554438Y-108857142D02*
X136649676Y-108952380D01*
X136649676Y-108952380D02*
X136744914Y-108999999D01*
X136744914Y-108999999D02*
X136935390Y-109047618D01*
X136935390Y-109047618D02*
X137078247Y-109047618D01*
X137078247Y-109047618D02*
X137268723Y-108999999D01*
X137268723Y-108999999D02*
X137363961Y-108952380D01*
X137363961Y-108952380D02*
X137459200Y-108857142D01*
X137459200Y-108857142D02*
X137506819Y-108714285D01*
X137506819Y-108714285D02*
X137506819Y-108619047D01*
X137506819Y-108619047D02*
X137459200Y-108476190D01*
X137459200Y-108476190D02*
X137411580Y-108428571D01*
X137411580Y-108428571D02*
X137078247Y-108428571D01*
X137078247Y-108428571D02*
X137078247Y-108619047D01*
X137506819Y-107999999D02*
X136506819Y-107999999D01*
X136506819Y-107999999D02*
X136506819Y-107619047D01*
X136506819Y-107619047D02*
X136554438Y-107523809D01*
X136554438Y-107523809D02*
X136602057Y-107476190D01*
X136602057Y-107476190D02*
X136697295Y-107428571D01*
X136697295Y-107428571D02*
X136840152Y-107428571D01*
X136840152Y-107428571D02*
X136935390Y-107476190D01*
X136935390Y-107476190D02*
X136983009Y-107523809D01*
X136983009Y-107523809D02*
X137030628Y-107619047D01*
X137030628Y-107619047D02*
X137030628Y-107999999D01*
X137506819Y-106999999D02*
X136506819Y-106999999D01*
X136506819Y-106333333D02*
X136506819Y-106142857D01*
X136506819Y-106142857D02*
X136554438Y-106047619D01*
X136554438Y-106047619D02*
X136649676Y-105952381D01*
X136649676Y-105952381D02*
X136840152Y-105904762D01*
X136840152Y-105904762D02*
X137173485Y-105904762D01*
X137173485Y-105904762D02*
X137363961Y-105952381D01*
X137363961Y-105952381D02*
X137459200Y-106047619D01*
X137459200Y-106047619D02*
X137506819Y-106142857D01*
X137506819Y-106142857D02*
X137506819Y-106333333D01*
X137506819Y-106333333D02*
X137459200Y-106428571D01*
X137459200Y-106428571D02*
X137363961Y-106523809D01*
X137363961Y-106523809D02*
X137173485Y-106571428D01*
X137173485Y-106571428D02*
X136840152Y-106571428D01*
X136840152Y-106571428D02*
X136649676Y-106523809D01*
X136649676Y-106523809D02*
X136554438Y-106428571D01*
X136554438Y-106428571D02*
X136506819Y-106333333D01*
X136602057Y-105523809D02*
X136554438Y-105476190D01*
X136554438Y-105476190D02*
X136506819Y-105380952D01*
X136506819Y-105380952D02*
X136506819Y-105142857D01*
X136506819Y-105142857D02*
X136554438Y-105047619D01*
X136554438Y-105047619D02*
X136602057Y-105000000D01*
X136602057Y-105000000D02*
X136697295Y-104952381D01*
X136697295Y-104952381D02*
X136792533Y-104952381D01*
X136792533Y-104952381D02*
X136935390Y-105000000D01*
X136935390Y-105000000D02*
X137506819Y-105571428D01*
X137506819Y-105571428D02*
X137506819Y-104952381D01*
X114359580Y-110804166D02*
X114407200Y-110851785D01*
X114407200Y-110851785D02*
X114454819Y-110994642D01*
X114454819Y-110994642D02*
X114454819Y-111089880D01*
X114454819Y-111089880D02*
X114407200Y-111232737D01*
X114407200Y-111232737D02*
X114311961Y-111327975D01*
X114311961Y-111327975D02*
X114216723Y-111375594D01*
X114216723Y-111375594D02*
X114026247Y-111423213D01*
X114026247Y-111423213D02*
X113883390Y-111423213D01*
X113883390Y-111423213D02*
X113692914Y-111375594D01*
X113692914Y-111375594D02*
X113597676Y-111327975D01*
X113597676Y-111327975D02*
X113502438Y-111232737D01*
X113502438Y-111232737D02*
X113454819Y-111089880D01*
X113454819Y-111089880D02*
X113454819Y-110994642D01*
X113454819Y-110994642D02*
X113502438Y-110851785D01*
X113502438Y-110851785D02*
X113550057Y-110804166D01*
X114454819Y-110327975D02*
X114454819Y-110137499D01*
X114454819Y-110137499D02*
X114407200Y-110042261D01*
X114407200Y-110042261D02*
X114359580Y-109994642D01*
X114359580Y-109994642D02*
X114216723Y-109899404D01*
X114216723Y-109899404D02*
X114026247Y-109851785D01*
X114026247Y-109851785D02*
X113645295Y-109851785D01*
X113645295Y-109851785D02*
X113550057Y-109899404D01*
X113550057Y-109899404D02*
X113502438Y-109947023D01*
X113502438Y-109947023D02*
X113454819Y-110042261D01*
X113454819Y-110042261D02*
X113454819Y-110232737D01*
X113454819Y-110232737D02*
X113502438Y-110327975D01*
X113502438Y-110327975D02*
X113550057Y-110375594D01*
X113550057Y-110375594D02*
X113645295Y-110423213D01*
X113645295Y-110423213D02*
X113883390Y-110423213D01*
X113883390Y-110423213D02*
X113978628Y-110375594D01*
X113978628Y-110375594D02*
X114026247Y-110327975D01*
X114026247Y-110327975D02*
X114073866Y-110232737D01*
X114073866Y-110232737D02*
X114073866Y-110042261D01*
X114073866Y-110042261D02*
X114026247Y-109947023D01*
X114026247Y-109947023D02*
X113978628Y-109899404D01*
X113978628Y-109899404D02*
X113883390Y-109851785D01*
X125286104Y-91833332D02*
X125324200Y-91871428D01*
X125324200Y-91871428D02*
X125362295Y-91985713D01*
X125362295Y-91985713D02*
X125362295Y-92061904D01*
X125362295Y-92061904D02*
X125324200Y-92176190D01*
X125324200Y-92176190D02*
X125248009Y-92252380D01*
X125248009Y-92252380D02*
X125171819Y-92290475D01*
X125171819Y-92290475D02*
X125019438Y-92328571D01*
X125019438Y-92328571D02*
X124905152Y-92328571D01*
X124905152Y-92328571D02*
X124752771Y-92290475D01*
X124752771Y-92290475D02*
X124676580Y-92252380D01*
X124676580Y-92252380D02*
X124600390Y-92176190D01*
X124600390Y-92176190D02*
X124562295Y-92061904D01*
X124562295Y-92061904D02*
X124562295Y-91985713D01*
X124562295Y-91985713D02*
X124600390Y-91871428D01*
X124600390Y-91871428D02*
X124638485Y-91833332D01*
X124905152Y-91376190D02*
X124867057Y-91452380D01*
X124867057Y-91452380D02*
X124828961Y-91490475D01*
X124828961Y-91490475D02*
X124752771Y-91528571D01*
X124752771Y-91528571D02*
X124714676Y-91528571D01*
X124714676Y-91528571D02*
X124638485Y-91490475D01*
X124638485Y-91490475D02*
X124600390Y-91452380D01*
X124600390Y-91452380D02*
X124562295Y-91376190D01*
X124562295Y-91376190D02*
X124562295Y-91223809D01*
X124562295Y-91223809D02*
X124600390Y-91147618D01*
X124600390Y-91147618D02*
X124638485Y-91109523D01*
X124638485Y-91109523D02*
X124714676Y-91071428D01*
X124714676Y-91071428D02*
X124752771Y-91071428D01*
X124752771Y-91071428D02*
X124828961Y-91109523D01*
X124828961Y-91109523D02*
X124867057Y-91147618D01*
X124867057Y-91147618D02*
X124905152Y-91223809D01*
X124905152Y-91223809D02*
X124905152Y-91376190D01*
X124905152Y-91376190D02*
X124943247Y-91452380D01*
X124943247Y-91452380D02*
X124981342Y-91490475D01*
X124981342Y-91490475D02*
X125057533Y-91528571D01*
X125057533Y-91528571D02*
X125209914Y-91528571D01*
X125209914Y-91528571D02*
X125286104Y-91490475D01*
X125286104Y-91490475D02*
X125324200Y-91452380D01*
X125324200Y-91452380D02*
X125362295Y-91376190D01*
X125362295Y-91376190D02*
X125362295Y-91223809D01*
X125362295Y-91223809D02*
X125324200Y-91147618D01*
X125324200Y-91147618D02*
X125286104Y-91109523D01*
X125286104Y-91109523D02*
X125209914Y-91071428D01*
X125209914Y-91071428D02*
X125057533Y-91071428D01*
X125057533Y-91071428D02*
X124981342Y-91109523D01*
X124981342Y-91109523D02*
X124943247Y-91147618D01*
X124943247Y-91147618D02*
X124905152Y-91223809D01*
X127954819Y-95960119D02*
X127478628Y-96293452D01*
X127954819Y-96531547D02*
X126954819Y-96531547D01*
X126954819Y-96531547D02*
X126954819Y-96150595D01*
X126954819Y-96150595D02*
X127002438Y-96055357D01*
X127002438Y-96055357D02*
X127050057Y-96007738D01*
X127050057Y-96007738D02*
X127145295Y-95960119D01*
X127145295Y-95960119D02*
X127288152Y-95960119D01*
X127288152Y-95960119D02*
X127383390Y-96007738D01*
X127383390Y-96007738D02*
X127431009Y-96055357D01*
X127431009Y-96055357D02*
X127478628Y-96150595D01*
X127478628Y-96150595D02*
X127478628Y-96531547D01*
X126954819Y-95674404D02*
X126954819Y-95102976D01*
X127954819Y-95388690D02*
X126954819Y-95388690D01*
X127954819Y-94245833D02*
X127954819Y-94817261D01*
X127954819Y-94531547D02*
X126954819Y-94531547D01*
X126954819Y-94531547D02*
X127097676Y-94626785D01*
X127097676Y-94626785D02*
X127192914Y-94722023D01*
X127192914Y-94722023D02*
X127240533Y-94817261D01*
X109857142Y-90454819D02*
X109523809Y-89978628D01*
X109285714Y-90454819D02*
X109285714Y-89454819D01*
X109285714Y-89454819D02*
X109666666Y-89454819D01*
X109666666Y-89454819D02*
X109761904Y-89502438D01*
X109761904Y-89502438D02*
X109809523Y-89550057D01*
X109809523Y-89550057D02*
X109857142Y-89645295D01*
X109857142Y-89645295D02*
X109857142Y-89788152D01*
X109857142Y-89788152D02*
X109809523Y-89883390D01*
X109809523Y-89883390D02*
X109761904Y-89931009D01*
X109761904Y-89931009D02*
X109666666Y-89978628D01*
X109666666Y-89978628D02*
X109285714Y-89978628D01*
X110809523Y-90454819D02*
X110238095Y-90454819D01*
X110523809Y-90454819D02*
X110523809Y-89454819D01*
X110523809Y-89454819D02*
X110428571Y-89597676D01*
X110428571Y-89597676D02*
X110333333Y-89692914D01*
X110333333Y-89692914D02*
X110238095Y-89740533D01*
X111761904Y-90454819D02*
X111190476Y-90454819D01*
X111476190Y-90454819D02*
X111476190Y-89454819D01*
X111476190Y-89454819D02*
X111380952Y-89597676D01*
X111380952Y-89597676D02*
X111285714Y-89692914D01*
X111285714Y-89692914D02*
X111190476Y-89740533D01*
X120866667Y-107536104D02*
X120828571Y-107574200D01*
X120828571Y-107574200D02*
X120714286Y-107612295D01*
X120714286Y-107612295D02*
X120638095Y-107612295D01*
X120638095Y-107612295D02*
X120523809Y-107574200D01*
X120523809Y-107574200D02*
X120447619Y-107498009D01*
X120447619Y-107498009D02*
X120409524Y-107421819D01*
X120409524Y-107421819D02*
X120371428Y-107269438D01*
X120371428Y-107269438D02*
X120371428Y-107155152D01*
X120371428Y-107155152D02*
X120409524Y-107002771D01*
X120409524Y-107002771D02*
X120447619Y-106926580D01*
X120447619Y-106926580D02*
X120523809Y-106850390D01*
X120523809Y-106850390D02*
X120638095Y-106812295D01*
X120638095Y-106812295D02*
X120714286Y-106812295D01*
X120714286Y-106812295D02*
X120828571Y-106850390D01*
X120828571Y-106850390D02*
X120866667Y-106888485D01*
X121628571Y-107612295D02*
X121171428Y-107612295D01*
X121400000Y-107612295D02*
X121400000Y-106812295D01*
X121400000Y-106812295D02*
X121323809Y-106926580D01*
X121323809Y-106926580D02*
X121247619Y-107002771D01*
X121247619Y-107002771D02*
X121171428Y-107040866D01*
X132333333Y-109617319D02*
X132000000Y-109141128D01*
X131761905Y-109617319D02*
X131761905Y-108617319D01*
X131761905Y-108617319D02*
X132142857Y-108617319D01*
X132142857Y-108617319D02*
X132238095Y-108664938D01*
X132238095Y-108664938D02*
X132285714Y-108712557D01*
X132285714Y-108712557D02*
X132333333Y-108807795D01*
X132333333Y-108807795D02*
X132333333Y-108950652D01*
X132333333Y-108950652D02*
X132285714Y-109045890D01*
X132285714Y-109045890D02*
X132238095Y-109093509D01*
X132238095Y-109093509D02*
X132142857Y-109141128D01*
X132142857Y-109141128D02*
X131761905Y-109141128D01*
X132666667Y-108617319D02*
X133333333Y-108617319D01*
X133333333Y-108617319D02*
X132904762Y-109617319D01*
X133340152Y-109785714D02*
X133340152Y-109404762D01*
X134006819Y-109642857D02*
X133149676Y-109642857D01*
X133149676Y-109642857D02*
X133054438Y-109595238D01*
X133054438Y-109595238D02*
X133006819Y-109500000D01*
X133006819Y-109500000D02*
X133006819Y-109404762D01*
X134006819Y-108928571D02*
X133959200Y-109023809D01*
X133959200Y-109023809D02*
X133911580Y-109071428D01*
X133911580Y-109071428D02*
X133816342Y-109119047D01*
X133816342Y-109119047D02*
X133530628Y-109119047D01*
X133530628Y-109119047D02*
X133435390Y-109071428D01*
X133435390Y-109071428D02*
X133387771Y-109023809D01*
X133387771Y-109023809D02*
X133340152Y-108928571D01*
X133340152Y-108928571D02*
X133340152Y-108785714D01*
X133340152Y-108785714D02*
X133387771Y-108690476D01*
X133387771Y-108690476D02*
X133435390Y-108642857D01*
X133435390Y-108642857D02*
X133530628Y-108595238D01*
X133530628Y-108595238D02*
X133816342Y-108595238D01*
X133816342Y-108595238D02*
X133911580Y-108642857D01*
X133911580Y-108642857D02*
X133959200Y-108690476D01*
X133959200Y-108690476D02*
X134006819Y-108785714D01*
X134006819Y-108785714D02*
X134006819Y-108928571D01*
X134006819Y-108166666D02*
X133340152Y-108166666D01*
X133530628Y-108166666D02*
X133435390Y-108119047D01*
X133435390Y-108119047D02*
X133387771Y-108071428D01*
X133387771Y-108071428D02*
X133340152Y-107976190D01*
X133340152Y-107976190D02*
X133340152Y-107880952D01*
X133959200Y-107119047D02*
X134006819Y-107214285D01*
X134006819Y-107214285D02*
X134006819Y-107404761D01*
X134006819Y-107404761D02*
X133959200Y-107499999D01*
X133959200Y-107499999D02*
X133911580Y-107547618D01*
X133911580Y-107547618D02*
X133816342Y-107595237D01*
X133816342Y-107595237D02*
X133530628Y-107595237D01*
X133530628Y-107595237D02*
X133435390Y-107547618D01*
X133435390Y-107547618D02*
X133387771Y-107499999D01*
X133387771Y-107499999D02*
X133340152Y-107404761D01*
X133340152Y-107404761D02*
X133340152Y-107214285D01*
X133340152Y-107214285D02*
X133387771Y-107119047D01*
X133959200Y-106309523D02*
X134006819Y-106404761D01*
X134006819Y-106404761D02*
X134006819Y-106595237D01*
X134006819Y-106595237D02*
X133959200Y-106690475D01*
X133959200Y-106690475D02*
X133863961Y-106738094D01*
X133863961Y-106738094D02*
X133483009Y-106738094D01*
X133483009Y-106738094D02*
X133387771Y-106690475D01*
X133387771Y-106690475D02*
X133340152Y-106595237D01*
X133340152Y-106595237D02*
X133340152Y-106404761D01*
X133340152Y-106404761D02*
X133387771Y-106309523D01*
X133387771Y-106309523D02*
X133483009Y-106261904D01*
X133483009Y-106261904D02*
X133578247Y-106261904D01*
X133578247Y-106261904D02*
X133673485Y-106738094D01*
X134006819Y-105309523D02*
X134006819Y-105880951D01*
X134006819Y-105595237D02*
X133006819Y-105595237D01*
X133006819Y-105595237D02*
X133149676Y-105690475D01*
X133149676Y-105690475D02*
X133244914Y-105785713D01*
X133244914Y-105785713D02*
X133292533Y-105880951D01*
X112624200Y-115666667D02*
X112662295Y-115552381D01*
X112662295Y-115552381D02*
X112662295Y-115361905D01*
X112662295Y-115361905D02*
X112624200Y-115285714D01*
X112624200Y-115285714D02*
X112586104Y-115247619D01*
X112586104Y-115247619D02*
X112509914Y-115209524D01*
X112509914Y-115209524D02*
X112433723Y-115209524D01*
X112433723Y-115209524D02*
X112357533Y-115247619D01*
X112357533Y-115247619D02*
X112319438Y-115285714D01*
X112319438Y-115285714D02*
X112281342Y-115361905D01*
X112281342Y-115361905D02*
X112243247Y-115514286D01*
X112243247Y-115514286D02*
X112205152Y-115590476D01*
X112205152Y-115590476D02*
X112167057Y-115628571D01*
X112167057Y-115628571D02*
X112090866Y-115666667D01*
X112090866Y-115666667D02*
X112014676Y-115666667D01*
X112014676Y-115666667D02*
X111938485Y-115628571D01*
X111938485Y-115628571D02*
X111900390Y-115590476D01*
X111900390Y-115590476D02*
X111862295Y-115514286D01*
X111862295Y-115514286D02*
X111862295Y-115323809D01*
X111862295Y-115323809D02*
X111900390Y-115209524D01*
X111862295Y-114942857D02*
X112662295Y-114752381D01*
X112662295Y-114752381D02*
X112090866Y-114600000D01*
X112090866Y-114600000D02*
X112662295Y-114447619D01*
X112662295Y-114447619D02*
X111862295Y-114257143D01*
X112662295Y-113533333D02*
X112662295Y-113990476D01*
X112662295Y-113761904D02*
X111862295Y-113761904D01*
X111862295Y-113761904D02*
X111976580Y-113838095D01*
X111976580Y-113838095D02*
X112052771Y-113914285D01*
X112052771Y-113914285D02*
X112090866Y-113990476D01*
X114362295Y-84633332D02*
X113981342Y-84899999D01*
X114362295Y-85090475D02*
X113562295Y-85090475D01*
X113562295Y-85090475D02*
X113562295Y-84785713D01*
X113562295Y-84785713D02*
X113600390Y-84709523D01*
X113600390Y-84709523D02*
X113638485Y-84671428D01*
X113638485Y-84671428D02*
X113714676Y-84633332D01*
X113714676Y-84633332D02*
X113828961Y-84633332D01*
X113828961Y-84633332D02*
X113905152Y-84671428D01*
X113905152Y-84671428D02*
X113943247Y-84709523D01*
X113943247Y-84709523D02*
X113981342Y-84785713D01*
X113981342Y-84785713D02*
X113981342Y-85090475D01*
X113562295Y-83909523D02*
X113562295Y-84290475D01*
X113562295Y-84290475D02*
X113943247Y-84328571D01*
X113943247Y-84328571D02*
X113905152Y-84290475D01*
X113905152Y-84290475D02*
X113867057Y-84214285D01*
X113867057Y-84214285D02*
X113867057Y-84023809D01*
X113867057Y-84023809D02*
X113905152Y-83947618D01*
X113905152Y-83947618D02*
X113943247Y-83909523D01*
X113943247Y-83909523D02*
X114019438Y-83871428D01*
X114019438Y-83871428D02*
X114209914Y-83871428D01*
X114209914Y-83871428D02*
X114286104Y-83909523D01*
X114286104Y-83909523D02*
X114324200Y-83947618D01*
X114324200Y-83947618D02*
X114362295Y-84023809D01*
X114362295Y-84023809D02*
X114362295Y-84214285D01*
X114362295Y-84214285D02*
X114324200Y-84290475D01*
X114324200Y-84290475D02*
X114286104Y-84328571D01*
D12*
X113775408Y-87993485D02*
X113165808Y-87993485D01*
X113165808Y-87993485D02*
X113601237Y-87790285D01*
X113601237Y-87790285D02*
X113165808Y-87587085D01*
X113165808Y-87587085D02*
X113775408Y-87587085D01*
X113775408Y-86977484D02*
X113775408Y-87325827D01*
X113775408Y-87151656D02*
X113165808Y-87151656D01*
X113165808Y-87151656D02*
X113252894Y-87209713D01*
X113252894Y-87209713D02*
X113310951Y-87267770D01*
X113310951Y-87267770D02*
X113339980Y-87325827D01*
X115920620Y-87192228D02*
X115920620Y-86727771D01*
X116152848Y-86959999D02*
X115688391Y-86959999D01*
X112146180Y-90494228D02*
X112146180Y-90029771D01*
D10*
X135902819Y-96761904D02*
X135902819Y-96190476D01*
X136902819Y-96476190D02*
X135902819Y-96476190D01*
X135902819Y-95952380D02*
X136902819Y-95285714D01*
X135902819Y-95285714D02*
X136902819Y-95952380D01*
X135902819Y-94714285D02*
X135902819Y-94523809D01*
X135902819Y-94523809D02*
X135950438Y-94428571D01*
X135950438Y-94428571D02*
X136045676Y-94333333D01*
X136045676Y-94333333D02*
X136236152Y-94285714D01*
X136236152Y-94285714D02*
X136569485Y-94285714D01*
X136569485Y-94285714D02*
X136759961Y-94333333D01*
X136759961Y-94333333D02*
X136855200Y-94428571D01*
X136855200Y-94428571D02*
X136902819Y-94523809D01*
X136902819Y-94523809D02*
X136902819Y-94714285D01*
X136902819Y-94714285D02*
X136855200Y-94809523D01*
X136855200Y-94809523D02*
X136759961Y-94904761D01*
X136759961Y-94904761D02*
X136569485Y-94952380D01*
X136569485Y-94952380D02*
X136236152Y-94952380D01*
X136236152Y-94952380D02*
X136045676Y-94904761D01*
X136045676Y-94904761D02*
X135950438Y-94809523D01*
X135950438Y-94809523D02*
X135902819Y-94714285D01*
X136902819Y-93333333D02*
X136902819Y-93904761D01*
X136902819Y-93619047D02*
X135902819Y-93619047D01*
X135902819Y-93619047D02*
X136045676Y-93714285D01*
X136045676Y-93714285D02*
X136140914Y-93809523D01*
X136140914Y-93809523D02*
X136188533Y-93904761D01*
X120640476Y-88812295D02*
X120640476Y-89459914D01*
X120640476Y-89459914D02*
X120678571Y-89536104D01*
X120678571Y-89536104D02*
X120716666Y-89574200D01*
X120716666Y-89574200D02*
X120792857Y-89612295D01*
X120792857Y-89612295D02*
X120945238Y-89612295D01*
X120945238Y-89612295D02*
X121021428Y-89574200D01*
X121021428Y-89574200D02*
X121059523Y-89536104D01*
X121059523Y-89536104D02*
X121097619Y-89459914D01*
X121097619Y-89459914D02*
X121097619Y-88812295D01*
X121440475Y-88888485D02*
X121478571Y-88850390D01*
X121478571Y-88850390D02*
X121554761Y-88812295D01*
X121554761Y-88812295D02*
X121745237Y-88812295D01*
X121745237Y-88812295D02*
X121821428Y-88850390D01*
X121821428Y-88850390D02*
X121859523Y-88888485D01*
X121859523Y-88888485D02*
X121897618Y-88964676D01*
X121897618Y-88964676D02*
X121897618Y-89040866D01*
X121897618Y-89040866D02*
X121859523Y-89155152D01*
X121859523Y-89155152D02*
X121402380Y-89612295D01*
X121402380Y-89612295D02*
X121897618Y-89612295D01*
X130536104Y-112883332D02*
X130574200Y-112921428D01*
X130574200Y-112921428D02*
X130612295Y-113035713D01*
X130612295Y-113035713D02*
X130612295Y-113111904D01*
X130612295Y-113111904D02*
X130574200Y-113226190D01*
X130574200Y-113226190D02*
X130498009Y-113302380D01*
X130498009Y-113302380D02*
X130421819Y-113340475D01*
X130421819Y-113340475D02*
X130269438Y-113378571D01*
X130269438Y-113378571D02*
X130155152Y-113378571D01*
X130155152Y-113378571D02*
X130002771Y-113340475D01*
X130002771Y-113340475D02*
X129926580Y-113302380D01*
X129926580Y-113302380D02*
X129850390Y-113226190D01*
X129850390Y-113226190D02*
X129812295Y-113111904D01*
X129812295Y-113111904D02*
X129812295Y-113035713D01*
X129812295Y-113035713D02*
X129850390Y-112921428D01*
X129850390Y-112921428D02*
X129888485Y-112883332D01*
X129812295Y-112159523D02*
X129812295Y-112540475D01*
X129812295Y-112540475D02*
X130193247Y-112578571D01*
X130193247Y-112578571D02*
X130155152Y-112540475D01*
X130155152Y-112540475D02*
X130117057Y-112464285D01*
X130117057Y-112464285D02*
X130117057Y-112273809D01*
X130117057Y-112273809D02*
X130155152Y-112197618D01*
X130155152Y-112197618D02*
X130193247Y-112159523D01*
X130193247Y-112159523D02*
X130269438Y-112121428D01*
X130269438Y-112121428D02*
X130459914Y-112121428D01*
X130459914Y-112121428D02*
X130536104Y-112159523D01*
X130536104Y-112159523D02*
X130574200Y-112197618D01*
X130574200Y-112197618D02*
X130612295Y-112273809D01*
X130612295Y-112273809D02*
X130612295Y-112464285D01*
X130612295Y-112464285D02*
X130574200Y-112540475D01*
X130574200Y-112540475D02*
X130536104Y-112578571D01*
X137459200Y-102416666D02*
X137506819Y-102273809D01*
X137506819Y-102273809D02*
X137506819Y-102035714D01*
X137506819Y-102035714D02*
X137459200Y-101940476D01*
X137459200Y-101940476D02*
X137411580Y-101892857D01*
X137411580Y-101892857D02*
X137316342Y-101845238D01*
X137316342Y-101845238D02*
X137221104Y-101845238D01*
X137221104Y-101845238D02*
X137125866Y-101892857D01*
X137125866Y-101892857D02*
X137078247Y-101940476D01*
X137078247Y-101940476D02*
X137030628Y-102035714D01*
X137030628Y-102035714D02*
X136983009Y-102226190D01*
X136983009Y-102226190D02*
X136935390Y-102321428D01*
X136935390Y-102321428D02*
X136887771Y-102369047D01*
X136887771Y-102369047D02*
X136792533Y-102416666D01*
X136792533Y-102416666D02*
X136697295Y-102416666D01*
X136697295Y-102416666D02*
X136602057Y-102369047D01*
X136602057Y-102369047D02*
X136554438Y-102321428D01*
X136554438Y-102321428D02*
X136506819Y-102226190D01*
X136506819Y-102226190D02*
X136506819Y-101988095D01*
X136506819Y-101988095D02*
X136554438Y-101845238D01*
X137411580Y-100845238D02*
X137459200Y-100892857D01*
X137459200Y-100892857D02*
X137506819Y-101035714D01*
X137506819Y-101035714D02*
X137506819Y-101130952D01*
X137506819Y-101130952D02*
X137459200Y-101273809D01*
X137459200Y-101273809D02*
X137363961Y-101369047D01*
X137363961Y-101369047D02*
X137268723Y-101416666D01*
X137268723Y-101416666D02*
X137078247Y-101464285D01*
X137078247Y-101464285D02*
X136935390Y-101464285D01*
X136935390Y-101464285D02*
X136744914Y-101416666D01*
X136744914Y-101416666D02*
X136649676Y-101369047D01*
X136649676Y-101369047D02*
X136554438Y-101273809D01*
X136554438Y-101273809D02*
X136506819Y-101130952D01*
X136506819Y-101130952D02*
X136506819Y-101035714D01*
X136506819Y-101035714D02*
X136554438Y-100892857D01*
X136554438Y-100892857D02*
X136602057Y-100845238D01*
X137506819Y-99940476D02*
X137506819Y-100416666D01*
X137506819Y-100416666D02*
X136506819Y-100416666D01*
X137506819Y-99083333D02*
X137506819Y-99654761D01*
X137506819Y-99369047D02*
X136506819Y-99369047D01*
X136506819Y-99369047D02*
X136649676Y-99464285D01*
X136649676Y-99464285D02*
X136744914Y-99559523D01*
X136744914Y-99559523D02*
X136792533Y-99654761D01*
X108646666Y-104224819D02*
X108646666Y-104939104D01*
X108646666Y-104939104D02*
X108599047Y-105081961D01*
X108599047Y-105081961D02*
X108503809Y-105177200D01*
X108503809Y-105177200D02*
X108360952Y-105224819D01*
X108360952Y-105224819D02*
X108265714Y-105224819D01*
X109027619Y-104224819D02*
X109646666Y-104224819D01*
X109646666Y-104224819D02*
X109313333Y-104605771D01*
X109313333Y-104605771D02*
X109456190Y-104605771D01*
X109456190Y-104605771D02*
X109551428Y-104653390D01*
X109551428Y-104653390D02*
X109599047Y-104701009D01*
X109599047Y-104701009D02*
X109646666Y-104796247D01*
X109646666Y-104796247D02*
X109646666Y-105034342D01*
X109646666Y-105034342D02*
X109599047Y-105129580D01*
X109599047Y-105129580D02*
X109551428Y-105177200D01*
X109551428Y-105177200D02*
X109456190Y-105224819D01*
X109456190Y-105224819D02*
X109170476Y-105224819D01*
X109170476Y-105224819D02*
X109075238Y-105177200D01*
X109075238Y-105177200D02*
X109027619Y-105129580D01*
X130146666Y-101184819D02*
X130146666Y-101899104D01*
X130146666Y-101899104D02*
X130099047Y-102041961D01*
X130099047Y-102041961D02*
X130003809Y-102137200D01*
X130003809Y-102137200D02*
X129860952Y-102184819D01*
X129860952Y-102184819D02*
X129765714Y-102184819D01*
X131051428Y-101518152D02*
X131051428Y-102184819D01*
X130813333Y-101137200D02*
X130575238Y-101851485D01*
X130575238Y-101851485D02*
X131194285Y-101851485D01*
X126404761Y-89900057D02*
X126309523Y-89852438D01*
X126309523Y-89852438D02*
X126214285Y-89757200D01*
X126214285Y-89757200D02*
X126071428Y-89614342D01*
X126071428Y-89614342D02*
X125976190Y-89566723D01*
X125976190Y-89566723D02*
X125880952Y-89566723D01*
X125928571Y-89804819D02*
X125833333Y-89757200D01*
X125833333Y-89757200D02*
X125738095Y-89661961D01*
X125738095Y-89661961D02*
X125690476Y-89471485D01*
X125690476Y-89471485D02*
X125690476Y-89138152D01*
X125690476Y-89138152D02*
X125738095Y-88947676D01*
X125738095Y-88947676D02*
X125833333Y-88852438D01*
X125833333Y-88852438D02*
X125928571Y-88804819D01*
X125928571Y-88804819D02*
X126119047Y-88804819D01*
X126119047Y-88804819D02*
X126214285Y-88852438D01*
X126214285Y-88852438D02*
X126309523Y-88947676D01*
X126309523Y-88947676D02*
X126357142Y-89138152D01*
X126357142Y-89138152D02*
X126357142Y-89471485D01*
X126357142Y-89471485D02*
X126309523Y-89661961D01*
X126309523Y-89661961D02*
X126214285Y-89757200D01*
X126214285Y-89757200D02*
X126119047Y-89804819D01*
X126119047Y-89804819D02*
X125928571Y-89804819D01*
X126738095Y-88900057D02*
X126785714Y-88852438D01*
X126785714Y-88852438D02*
X126880952Y-88804819D01*
X126880952Y-88804819D02*
X127119047Y-88804819D01*
X127119047Y-88804819D02*
X127214285Y-88852438D01*
X127214285Y-88852438D02*
X127261904Y-88900057D01*
X127261904Y-88900057D02*
X127309523Y-88995295D01*
X127309523Y-88995295D02*
X127309523Y-89090533D01*
X127309523Y-89090533D02*
X127261904Y-89233390D01*
X127261904Y-89233390D02*
X126690476Y-89804819D01*
X126690476Y-89804819D02*
X127309523Y-89804819D01*
X113454819Y-95142857D02*
X112978628Y-95476190D01*
X113454819Y-95714285D02*
X112454819Y-95714285D01*
X112454819Y-95714285D02*
X112454819Y-95333333D01*
X112454819Y-95333333D02*
X112502438Y-95238095D01*
X112502438Y-95238095D02*
X112550057Y-95190476D01*
X112550057Y-95190476D02*
X112645295Y-95142857D01*
X112645295Y-95142857D02*
X112788152Y-95142857D01*
X112788152Y-95142857D02*
X112883390Y-95190476D01*
X112883390Y-95190476D02*
X112931009Y-95238095D01*
X112931009Y-95238095D02*
X112978628Y-95333333D01*
X112978628Y-95333333D02*
X112978628Y-95714285D01*
X113454819Y-94190476D02*
X113454819Y-94761904D01*
X113454819Y-94476190D02*
X112454819Y-94476190D01*
X112454819Y-94476190D02*
X112597676Y-94571428D01*
X112597676Y-94571428D02*
X112692914Y-94666666D01*
X112692914Y-94666666D02*
X112740533Y-94761904D01*
X112454819Y-93571428D02*
X112454819Y-93476190D01*
X112454819Y-93476190D02*
X112502438Y-93380952D01*
X112502438Y-93380952D02*
X112550057Y-93333333D01*
X112550057Y-93333333D02*
X112645295Y-93285714D01*
X112645295Y-93285714D02*
X112835771Y-93238095D01*
X112835771Y-93238095D02*
X113073866Y-93238095D01*
X113073866Y-93238095D02*
X113264342Y-93285714D01*
X113264342Y-93285714D02*
X113359580Y-93333333D01*
X113359580Y-93333333D02*
X113407200Y-93380952D01*
X113407200Y-93380952D02*
X113454819Y-93476190D01*
X113454819Y-93476190D02*
X113454819Y-93571428D01*
X113454819Y-93571428D02*
X113407200Y-93666666D01*
X113407200Y-93666666D02*
X113359580Y-93714285D01*
X113359580Y-93714285D02*
X113264342Y-93761904D01*
X113264342Y-93761904D02*
X113073866Y-93809523D01*
X113073866Y-93809523D02*
X112835771Y-93809523D01*
X112835771Y-93809523D02*
X112645295Y-93761904D01*
X112645295Y-93761904D02*
X112550057Y-93714285D01*
X112550057Y-93714285D02*
X112502438Y-93666666D01*
X112502438Y-93666666D02*
X112454819Y-93571428D01*
X134764819Y-97797619D02*
X134288628Y-98130952D01*
X134764819Y-98369047D02*
X133764819Y-98369047D01*
X133764819Y-98369047D02*
X133764819Y-97988095D01*
X133764819Y-97988095D02*
X133812438Y-97892857D01*
X133812438Y-97892857D02*
X133860057Y-97845238D01*
X133860057Y-97845238D02*
X133955295Y-97797619D01*
X133955295Y-97797619D02*
X134098152Y-97797619D01*
X134098152Y-97797619D02*
X134193390Y-97845238D01*
X134193390Y-97845238D02*
X134241009Y-97892857D01*
X134241009Y-97892857D02*
X134288628Y-97988095D01*
X134288628Y-97988095D02*
X134288628Y-98369047D01*
X133764819Y-97511904D02*
X133764819Y-96940476D01*
X134764819Y-97226190D02*
X133764819Y-97226190D01*
X133860057Y-96654761D02*
X133812438Y-96607142D01*
X133812438Y-96607142D02*
X133764819Y-96511904D01*
X133764819Y-96511904D02*
X133764819Y-96273809D01*
X133764819Y-96273809D02*
X133812438Y-96178571D01*
X133812438Y-96178571D02*
X133860057Y-96130952D01*
X133860057Y-96130952D02*
X133955295Y-96083333D01*
X133955295Y-96083333D02*
X134050533Y-96083333D01*
X134050533Y-96083333D02*
X134193390Y-96130952D01*
X134193390Y-96130952D02*
X134764819Y-96702380D01*
X134764819Y-96702380D02*
X134764819Y-96083333D01*
X140559524Y-113506819D02*
X141178571Y-113506819D01*
X141178571Y-113506819D02*
X140845238Y-113887771D01*
X140845238Y-113887771D02*
X140988095Y-113887771D01*
X140988095Y-113887771D02*
X141083333Y-113935390D01*
X141083333Y-113935390D02*
X141130952Y-113983009D01*
X141130952Y-113983009D02*
X141178571Y-114078247D01*
X141178571Y-114078247D02*
X141178571Y-114316342D01*
X141178571Y-114316342D02*
X141130952Y-114411580D01*
X141130952Y-114411580D02*
X141083333Y-114459200D01*
X141083333Y-114459200D02*
X140988095Y-114506819D01*
X140988095Y-114506819D02*
X140702381Y-114506819D01*
X140702381Y-114506819D02*
X140607143Y-114459200D01*
X140607143Y-114459200D02*
X140559524Y-114411580D01*
X141511905Y-113840152D02*
X141750000Y-114506819D01*
X141750000Y-114506819D02*
X141988095Y-113840152D01*
X142273810Y-113506819D02*
X142892857Y-113506819D01*
X142892857Y-113506819D02*
X142559524Y-113887771D01*
X142559524Y-113887771D02*
X142702381Y-113887771D01*
X142702381Y-113887771D02*
X142797619Y-113935390D01*
X142797619Y-113935390D02*
X142845238Y-113983009D01*
X142845238Y-113983009D02*
X142892857Y-114078247D01*
X142892857Y-114078247D02*
X142892857Y-114316342D01*
X142892857Y-114316342D02*
X142845238Y-114411580D01*
X142845238Y-114411580D02*
X142797619Y-114459200D01*
X142797619Y-114459200D02*
X142702381Y-114506819D01*
X142702381Y-114506819D02*
X142416667Y-114506819D01*
X142416667Y-114506819D02*
X142321429Y-114459200D01*
X142321429Y-114459200D02*
X142273810Y-114411580D01*
X137964285Y-115554438D02*
X137869047Y-115506819D01*
X137869047Y-115506819D02*
X137726190Y-115506819D01*
X137726190Y-115506819D02*
X137583333Y-115554438D01*
X137583333Y-115554438D02*
X137488095Y-115649676D01*
X137488095Y-115649676D02*
X137440476Y-115744914D01*
X137440476Y-115744914D02*
X137392857Y-115935390D01*
X137392857Y-115935390D02*
X137392857Y-116078247D01*
X137392857Y-116078247D02*
X137440476Y-116268723D01*
X137440476Y-116268723D02*
X137488095Y-116363961D01*
X137488095Y-116363961D02*
X137583333Y-116459200D01*
X137583333Y-116459200D02*
X137726190Y-116506819D01*
X137726190Y-116506819D02*
X137821428Y-116506819D01*
X137821428Y-116506819D02*
X137964285Y-116459200D01*
X137964285Y-116459200D02*
X138011904Y-116411580D01*
X138011904Y-116411580D02*
X138011904Y-116078247D01*
X138011904Y-116078247D02*
X137821428Y-116078247D01*
X138440476Y-116506819D02*
X138440476Y-115506819D01*
X138440476Y-115506819D02*
X139011904Y-116506819D01*
X139011904Y-116506819D02*
X139011904Y-115506819D01*
X139488095Y-116506819D02*
X139488095Y-115506819D01*
X139488095Y-115506819D02*
X139726190Y-115506819D01*
X139726190Y-115506819D02*
X139869047Y-115554438D01*
X139869047Y-115554438D02*
X139964285Y-115649676D01*
X139964285Y-115649676D02*
X140011904Y-115744914D01*
X140011904Y-115744914D02*
X140059523Y-115935390D01*
X140059523Y-115935390D02*
X140059523Y-116078247D01*
X140059523Y-116078247D02*
X140011904Y-116268723D01*
X140011904Y-116268723D02*
X139964285Y-116363961D01*
X139964285Y-116363961D02*
X139869047Y-116459200D01*
X139869047Y-116459200D02*
X139726190Y-116506819D01*
X139726190Y-116506819D02*
X139488095Y-116506819D01*
X140250000Y-116602057D02*
X141011904Y-116602057D01*
X141250000Y-116506819D02*
X141250000Y-115506819D01*
X141250000Y-115506819D02*
X141630952Y-115506819D01*
X141630952Y-115506819D02*
X141726190Y-115554438D01*
X141726190Y-115554438D02*
X141773809Y-115602057D01*
X141773809Y-115602057D02*
X141821428Y-115697295D01*
X141821428Y-115697295D02*
X141821428Y-115840152D01*
X141821428Y-115840152D02*
X141773809Y-115935390D01*
X141773809Y-115935390D02*
X141726190Y-115983009D01*
X141726190Y-115983009D02*
X141630952Y-116030628D01*
X141630952Y-116030628D02*
X141250000Y-116030628D01*
X142440476Y-115506819D02*
X142630952Y-115506819D01*
X142630952Y-115506819D02*
X142726190Y-115554438D01*
X142726190Y-115554438D02*
X142821428Y-115649676D01*
X142821428Y-115649676D02*
X142869047Y-115840152D01*
X142869047Y-115840152D02*
X142869047Y-116173485D01*
X142869047Y-116173485D02*
X142821428Y-116363961D01*
X142821428Y-116363961D02*
X142726190Y-116459200D01*
X142726190Y-116459200D02*
X142630952Y-116506819D01*
X142630952Y-116506819D02*
X142440476Y-116506819D01*
X142440476Y-116506819D02*
X142345238Y-116459200D01*
X142345238Y-116459200D02*
X142250000Y-116363961D01*
X142250000Y-116363961D02*
X142202381Y-116173485D01*
X142202381Y-116173485D02*
X142202381Y-115840152D01*
X142202381Y-115840152D02*
X142250000Y-115649676D01*
X142250000Y-115649676D02*
X142345238Y-115554438D01*
X142345238Y-115554438D02*
X142440476Y-115506819D01*
X143297619Y-116506819D02*
X143297619Y-115506819D01*
X143773809Y-116506819D02*
X143773809Y-115506819D01*
X143773809Y-115506819D02*
X144345237Y-116506819D01*
X144345237Y-116506819D02*
X144345237Y-115506819D01*
X144678571Y-115506819D02*
X145249999Y-115506819D01*
X144964285Y-116506819D02*
X144964285Y-115506819D01*
X146107142Y-116506819D02*
X145535714Y-116506819D01*
X145821428Y-116506819D02*
X145821428Y-115506819D01*
X145821428Y-115506819D02*
X145726190Y-115649676D01*
X145726190Y-115649676D02*
X145630952Y-115744914D01*
X145630952Y-115744914D02*
X145535714Y-115792533D01*
X133340152Y-103928570D02*
X134006819Y-103690475D01*
X134006819Y-103690475D02*
X133340152Y-103452380D01*
X134006819Y-103071427D02*
X133340152Y-103071427D01*
X133006819Y-103071427D02*
X133054438Y-103119046D01*
X133054438Y-103119046D02*
X133102057Y-103071427D01*
X133102057Y-103071427D02*
X133054438Y-103023808D01*
X133054438Y-103023808D02*
X133006819Y-103071427D01*
X133006819Y-103071427D02*
X133102057Y-103071427D01*
X134006819Y-102595237D02*
X133006819Y-102595237D01*
X133387771Y-102595237D02*
X133340152Y-102499999D01*
X133340152Y-102499999D02*
X133340152Y-102309523D01*
X133340152Y-102309523D02*
X133387771Y-102214285D01*
X133387771Y-102214285D02*
X133435390Y-102166666D01*
X133435390Y-102166666D02*
X133530628Y-102119047D01*
X133530628Y-102119047D02*
X133816342Y-102119047D01*
X133816342Y-102119047D02*
X133911580Y-102166666D01*
X133911580Y-102166666D02*
X133959200Y-102214285D01*
X133959200Y-102214285D02*
X134006819Y-102309523D01*
X134006819Y-102309523D02*
X134006819Y-102499999D01*
X134006819Y-102499999D02*
X133959200Y-102595237D01*
X134102057Y-101928571D02*
X134102057Y-101166666D01*
X133340152Y-100928570D02*
X134340152Y-100928570D01*
X133387771Y-100928570D02*
X133340152Y-100833332D01*
X133340152Y-100833332D02*
X133340152Y-100642856D01*
X133340152Y-100642856D02*
X133387771Y-100547618D01*
X133387771Y-100547618D02*
X133435390Y-100499999D01*
X133435390Y-100499999D02*
X133530628Y-100452380D01*
X133530628Y-100452380D02*
X133816342Y-100452380D01*
X133816342Y-100452380D02*
X133911580Y-100499999D01*
X133911580Y-100499999D02*
X133959200Y-100547618D01*
X133959200Y-100547618D02*
X134006819Y-100642856D01*
X134006819Y-100642856D02*
X134006819Y-100833332D01*
X134006819Y-100833332D02*
X133959200Y-100928570D01*
X134006819Y-100023808D02*
X133340152Y-100023808D01*
X133006819Y-100023808D02*
X133054438Y-100071427D01*
X133054438Y-100071427D02*
X133102057Y-100023808D01*
X133102057Y-100023808D02*
X133054438Y-99976189D01*
X133054438Y-99976189D02*
X133006819Y-100023808D01*
X133006819Y-100023808D02*
X133102057Y-100023808D01*
X133340152Y-99547618D02*
X134006819Y-99547618D01*
X133435390Y-99547618D02*
X133387771Y-99499999D01*
X133387771Y-99499999D02*
X133340152Y-99404761D01*
X133340152Y-99404761D02*
X133340152Y-99261904D01*
X133340152Y-99261904D02*
X133387771Y-99166666D01*
X133387771Y-99166666D02*
X133483009Y-99119047D01*
X133483009Y-99119047D02*
X134006819Y-99119047D01*
X134006819Y-98119047D02*
X134006819Y-98690475D01*
X134006819Y-98404761D02*
X133006819Y-98404761D01*
X133006819Y-98404761D02*
X133149676Y-98499999D01*
X133149676Y-98499999D02*
X133244914Y-98595237D01*
X133244914Y-98595237D02*
X133292533Y-98690475D01*
X130009342Y-110342951D02*
X130390295Y-110342951D01*
X129590295Y-110609618D02*
X130009342Y-110342951D01*
X130009342Y-110342951D02*
X129590295Y-110076285D01*
X130390295Y-109390571D02*
X130390295Y-109847714D01*
X130390295Y-109619142D02*
X129590295Y-109619142D01*
X129590295Y-109619142D02*
X129704580Y-109695333D01*
X129704580Y-109695333D02*
X129780771Y-109771523D01*
X129780771Y-109771523D02*
X129818866Y-109847714D01*
X116862295Y-109133332D02*
X116481342Y-109399999D01*
X116862295Y-109590475D02*
X116062295Y-109590475D01*
X116062295Y-109590475D02*
X116062295Y-109285713D01*
X116062295Y-109285713D02*
X116100390Y-109209523D01*
X116100390Y-109209523D02*
X116138485Y-109171428D01*
X116138485Y-109171428D02*
X116214676Y-109133332D01*
X116214676Y-109133332D02*
X116328961Y-109133332D01*
X116328961Y-109133332D02*
X116405152Y-109171428D01*
X116405152Y-109171428D02*
X116443247Y-109209523D01*
X116443247Y-109209523D02*
X116481342Y-109285713D01*
X116481342Y-109285713D02*
X116481342Y-109590475D01*
X116862295Y-108371428D02*
X116862295Y-108828571D01*
X116862295Y-108599999D02*
X116062295Y-108599999D01*
X116062295Y-108599999D02*
X116176580Y-108676190D01*
X116176580Y-108676190D02*
X116252771Y-108752380D01*
X116252771Y-108752380D02*
X116290866Y-108828571D01*
X136554438Y-106476190D02*
X136506819Y-106571428D01*
X136506819Y-106571428D02*
X136506819Y-106714285D01*
X136506819Y-106714285D02*
X136554438Y-106857142D01*
X136554438Y-106857142D02*
X136649676Y-106952380D01*
X136649676Y-106952380D02*
X136744914Y-106999999D01*
X136744914Y-106999999D02*
X136935390Y-107047618D01*
X136935390Y-107047618D02*
X137078247Y-107047618D01*
X137078247Y-107047618D02*
X137268723Y-106999999D01*
X137268723Y-106999999D02*
X137363961Y-106952380D01*
X137363961Y-106952380D02*
X137459200Y-106857142D01*
X137459200Y-106857142D02*
X137506819Y-106714285D01*
X137506819Y-106714285D02*
X137506819Y-106619047D01*
X137506819Y-106619047D02*
X137459200Y-106476190D01*
X137459200Y-106476190D02*
X137411580Y-106428571D01*
X137411580Y-106428571D02*
X137078247Y-106428571D01*
X137078247Y-106428571D02*
X137078247Y-106619047D01*
X137506819Y-105999999D02*
X136506819Y-105999999D01*
X136506819Y-105999999D02*
X136506819Y-105619047D01*
X136506819Y-105619047D02*
X136554438Y-105523809D01*
X136554438Y-105523809D02*
X136602057Y-105476190D01*
X136602057Y-105476190D02*
X136697295Y-105428571D01*
X136697295Y-105428571D02*
X136840152Y-105428571D01*
X136840152Y-105428571D02*
X136935390Y-105476190D01*
X136935390Y-105476190D02*
X136983009Y-105523809D01*
X136983009Y-105523809D02*
X137030628Y-105619047D01*
X137030628Y-105619047D02*
X137030628Y-105999999D01*
X137506819Y-104999999D02*
X136506819Y-104999999D01*
X136506819Y-104333333D02*
X136506819Y-104142857D01*
X136506819Y-104142857D02*
X136554438Y-104047619D01*
X136554438Y-104047619D02*
X136649676Y-103952381D01*
X136649676Y-103952381D02*
X136840152Y-103904762D01*
X136840152Y-103904762D02*
X137173485Y-103904762D01*
X137173485Y-103904762D02*
X137363961Y-103952381D01*
X137363961Y-103952381D02*
X137459200Y-104047619D01*
X137459200Y-104047619D02*
X137506819Y-104142857D01*
X137506819Y-104142857D02*
X137506819Y-104333333D01*
X137506819Y-104333333D02*
X137459200Y-104428571D01*
X137459200Y-104428571D02*
X137363961Y-104523809D01*
X137363961Y-104523809D02*
X137173485Y-104571428D01*
X137173485Y-104571428D02*
X136840152Y-104571428D01*
X136840152Y-104571428D02*
X136649676Y-104523809D01*
X136649676Y-104523809D02*
X136554438Y-104428571D01*
X136554438Y-104428571D02*
X136506819Y-104333333D01*
X137506819Y-102952381D02*
X137506819Y-103523809D01*
X137506819Y-103238095D02*
X136506819Y-103238095D01*
X136506819Y-103238095D02*
X136649676Y-103333333D01*
X136649676Y-103333333D02*
X136744914Y-103428571D01*
X136744914Y-103428571D02*
X136792533Y-103523809D01*
D13*
X109815000Y-106290000D02*
X109815000Y-106391724D01*
X109815000Y-106290000D02*
X109815000Y-108710000D01*
X109815000Y-106290000D02*
X109940000Y-106290000D01*
X110500000Y-106290000D02*
X111185000Y-106290000D01*
X111060000Y-108394493D02*
X111060000Y-108710000D01*
X111060000Y-108710000D02*
X109940000Y-108710000D01*
X111185000Y-106290000D02*
X111185000Y-107000000D01*
X134300000Y-98300000D02*
X135700000Y-98300000D01*
X134300000Y-99700000D02*
X134300000Y-98300000D01*
X135700000Y-98300000D02*
X135700000Y-99700000D01*
X135700000Y-99700000D02*
X134300000Y-99700000D01*
X134300000Y-104800000D02*
X135700000Y-104800000D01*
X134300000Y-106200000D02*
X134300000Y-104800000D01*
X135700000Y-104800000D02*
X135700000Y-106200000D01*
X135700000Y-106200000D02*
X134300000Y-106200000D01*
X128065000Y-113740000D02*
X128065000Y-116200000D01*
X129535000Y-113740000D02*
X128065000Y-113740000D01*
X129535000Y-116200000D02*
X129535000Y-113740000D01*
X137800000Y-96050000D02*
X139200000Y-96050000D01*
X137800000Y-97450000D02*
X137800000Y-96050000D01*
X139200000Y-96050000D02*
X139200000Y-97450000D01*
X139200000Y-97450000D02*
X137800000Y-97450000D01*
X128820276Y-99634250D02*
X129329724Y-99634250D01*
X128820276Y-100679250D02*
X129329724Y-100679250D01*
X137800000Y-98050000D02*
X139200000Y-98050000D01*
X137800000Y-99450000D02*
X137800000Y-98050000D01*
X139200000Y-98050000D02*
X139200000Y-99450000D01*
X139200000Y-99450000D02*
X137800000Y-99450000D01*
X117346000Y-109047733D02*
X117346000Y-109340267D01*
X118366000Y-109047733D02*
X118366000Y-109340267D01*
X118056000Y-97228000D02*
X118056000Y-97678000D01*
X118056000Y-104448000D02*
X118056000Y-103998000D01*
X118506000Y-97228000D02*
X118056000Y-97228000D01*
X118506000Y-104448000D02*
X118056000Y-104448000D01*
X124826000Y-97228000D02*
X125276000Y-97228000D01*
X124826000Y-104448000D02*
X125276000Y-104448000D01*
X125276000Y-97228000D02*
X125276000Y-97678000D01*
X125276000Y-104448000D02*
X125276000Y-103998000D01*
X126206000Y-104468000D02*
X125526000Y-104468000D01*
X125866000Y-103998000D01*
X126206000Y-104468000D01*
G36*
X126206000Y-104468000D02*
G01*
X125526000Y-104468000D01*
X125866000Y-103998000D01*
X126206000Y-104468000D01*
G37*
X123442000Y-109378267D02*
X123442000Y-109035733D01*
X124462000Y-109378267D02*
X124462000Y-109035733D01*
X131977500Y-100657776D02*
X131977500Y-101167224D01*
X133022500Y-100657776D02*
X133022500Y-101167224D01*
X127427500Y-96265000D02*
X127427500Y-97735000D01*
X127427500Y-97735000D02*
X129887500Y-97735000D01*
X129887500Y-96265000D02*
X127427500Y-96265000D01*
X127444886Y-101015000D02*
X127444886Y-102485000D01*
X127444886Y-102485000D02*
X129904886Y-102485000D01*
X129904886Y-101015000D02*
X127444886Y-101015000D01*
X111977500Y-107754724D02*
X111977500Y-107245276D01*
X113022500Y-107754724D02*
X113022500Y-107245276D01*
X128103733Y-106658000D02*
X128396267Y-106658000D01*
X128103733Y-107678000D02*
X128396267Y-107678000D01*
X121918000Y-109060733D02*
X121918000Y-109353267D01*
X122938000Y-109060733D02*
X122938000Y-109353267D01*
X124966000Y-109060733D02*
X124966000Y-109353267D01*
X125986000Y-109060733D02*
X125986000Y-109353267D01*
D14*
X116973119Y-78399999D02*
X116973119Y-79679999D01*
X116973119Y-83649999D02*
X116973119Y-82399999D01*
X125913119Y-79679999D02*
X125913119Y-78399999D01*
X125913119Y-83649999D02*
X125913119Y-82399999D01*
X125543119Y-86999999D02*
G75*
G02*
X125343119Y-86999999I-100000J0D01*
G01*
X125343119Y-86999999D02*
G75*
G02*
X125543119Y-86999999I100000J0D01*
G01*
D13*
X134300000Y-102550000D02*
X135700000Y-102550000D01*
X134300000Y-103950000D02*
X134300000Y-102550000D01*
X135700000Y-102550000D02*
X135700000Y-103950000D01*
X135700000Y-103950000D02*
X134300000Y-103950000D01*
D15*
X136500000Y-79600000D02*
X136500000Y-79600000D01*
X136500000Y-79700000D02*
X136500000Y-79700000D01*
D14*
X136500000Y-80250000D02*
X136500000Y-80250000D01*
X136500000Y-92250000D02*
X136500000Y-92250000D01*
D15*
X136500000Y-79600000D02*
G75*
G02*
X136500000Y-79700000I0J-50000D01*
G01*
X136500000Y-79700000D02*
G75*
G02*
X136500000Y-79600000I0J50000D01*
G01*
D14*
X136500000Y-80250000D02*
G75*
G02*
X136500000Y-92250000I0J-6000000D01*
G01*
X136500000Y-92250000D02*
G75*
G02*
X136500000Y-80250000I0J6000000D01*
G01*
D13*
X137800000Y-102300000D02*
X139200000Y-102300000D01*
X137800000Y-103700000D02*
X137800000Y-102300000D01*
X139200000Y-102300000D02*
X139200000Y-103700000D01*
X139200000Y-103700000D02*
X137800000Y-103700000D01*
X108130000Y-81130000D02*
X108530000Y-81130000D01*
X108130000Y-85870000D02*
X108130000Y-81130000D01*
X108130000Y-85870000D02*
X108530000Y-85870000D01*
X111530000Y-81130000D02*
X109470000Y-81130000D01*
X111530000Y-85870000D02*
X109470000Y-85870000D01*
X112870000Y-81130000D02*
X112470000Y-81130000D01*
X112870000Y-85870000D02*
X112470000Y-85870000D01*
X112870000Y-85870000D02*
X112870000Y-81130000D01*
X126731500Y-115061276D02*
X126731500Y-115570724D01*
X127776500Y-115061276D02*
X127776500Y-115570724D01*
X112330000Y-92765000D02*
X113000000Y-92765000D01*
X112330000Y-94175000D02*
X112330000Y-92765000D01*
X114000000Y-92765000D02*
X114660000Y-92765000D01*
X114660000Y-94175000D02*
X114660000Y-92765000D01*
X112350000Y-94545000D02*
X112020000Y-94785000D01*
X112020000Y-94305000D01*
X112350000Y-94545000D01*
G36*
X112350000Y-94545000D02*
G01*
X112020000Y-94785000D01*
X112020000Y-94305000D01*
X112350000Y-94545000D01*
G37*
X127493500Y-84093276D02*
X127493500Y-84602724D01*
X128538500Y-84093276D02*
X128538500Y-84602724D01*
X134300000Y-96300000D02*
X135700000Y-96300000D01*
X134300000Y-97700000D02*
X134300000Y-96300000D01*
X135700000Y-96300000D02*
X135700000Y-97700000D01*
X135700000Y-97700000D02*
X134300000Y-97700000D01*
X133300000Y-117550000D02*
X134700000Y-117550000D01*
X133300000Y-118950000D02*
X133300000Y-117550000D01*
X134700000Y-117550000D02*
X134700000Y-118950000D01*
X134700000Y-118950000D02*
X133300000Y-118950000D01*
X106170000Y-107800000D02*
X107500000Y-107800000D01*
X106170000Y-109130000D02*
X106170000Y-107800000D01*
X106170000Y-110400000D02*
X106170000Y-118080000D01*
X106170000Y-110400000D02*
X108830000Y-110400000D01*
X106170000Y-118080000D02*
X108830000Y-118080000D01*
X108830000Y-110400000D02*
X108830000Y-118080000D01*
X118150000Y-91846267D02*
X118150000Y-91553733D01*
X119170000Y-91846267D02*
X119170000Y-91553733D01*
X137800000Y-106300000D02*
X139200000Y-106300000D01*
X137800000Y-107700000D02*
X137800000Y-106300000D01*
X139200000Y-106300000D02*
X139200000Y-107700000D01*
X139200000Y-107700000D02*
X137800000Y-107700000D01*
X113490000Y-107646267D02*
X113490000Y-107353733D01*
X114510000Y-107646267D02*
X114510000Y-107353733D01*
X123230000Y-91846267D02*
X123230000Y-91553733D01*
X124250000Y-91846267D02*
X124250000Y-91553733D01*
X125315000Y-96210000D02*
X125315000Y-95500000D01*
X125440000Y-93790000D02*
X126560000Y-93790000D01*
X125440000Y-94105507D02*
X125440000Y-93790000D01*
X126000000Y-96210000D02*
X125315000Y-96210000D01*
X126685000Y-96210000D02*
X126560000Y-96210000D01*
X126685000Y-96210000D02*
X126685000Y-93790000D01*
X126685000Y-96210000D02*
X126685000Y-96108276D01*
X110754724Y-90977500D02*
X110245276Y-90977500D01*
X110754724Y-92022500D02*
X110245276Y-92022500D01*
X128832776Y-98077500D02*
X129342224Y-98077500D01*
X128832776Y-99122500D02*
X129342224Y-99122500D01*
X120394000Y-109060733D02*
X120394000Y-109353267D01*
X121414000Y-109060733D02*
X121414000Y-109353267D01*
X131977500Y-107907776D02*
X131977500Y-108417224D01*
X133022500Y-107907776D02*
X133022500Y-108417224D01*
X134300000Y-106800000D02*
X135700000Y-106800000D01*
X134300000Y-108200000D02*
X134300000Y-106800000D01*
X135700000Y-106800000D02*
X135700000Y-108200000D01*
X135700000Y-108200000D02*
X134300000Y-108200000D01*
X111430000Y-112230000D02*
X111430000Y-116970000D01*
X111430000Y-112230000D02*
X111830000Y-112230000D01*
X111430000Y-116970000D02*
X111830000Y-116970000D01*
X112770000Y-112230000D02*
X114830000Y-112230000D01*
X112770000Y-116970000D02*
X114830000Y-116970000D01*
X116170000Y-112230000D02*
X115770000Y-112230000D01*
X116170000Y-112230000D02*
X116170000Y-116970000D01*
X116170000Y-116970000D02*
X115770000Y-116970000D01*
X114477500Y-84093276D02*
X114477500Y-84602724D01*
X115522500Y-84093276D02*
X115522500Y-84602724D01*
X134300000Y-94300000D02*
X135700000Y-94300000D01*
X134300000Y-95700000D02*
X134300000Y-94300000D01*
X135700000Y-94300000D02*
X135700000Y-95700000D01*
X135700000Y-95700000D02*
X134300000Y-95700000D01*
D14*
X119750000Y-91400000D02*
X122650000Y-91400000D01*
X119750000Y-92000000D02*
X119750000Y-91400000D01*
X122650000Y-91400000D02*
X122650000Y-92000000D01*
X122650000Y-92000000D02*
X119750000Y-92000000D01*
X122700000Y-89850000D02*
X122700000Y-91050000D01*
D13*
X128103733Y-112246000D02*
X128396267Y-112246000D01*
X128103733Y-113266000D02*
X128396267Y-113266000D01*
X137800000Y-100050000D02*
X139200000Y-100050000D01*
X137800000Y-101450000D02*
X137800000Y-100050000D01*
X139200000Y-100050000D02*
X139200000Y-101450000D01*
X139200000Y-101450000D02*
X137800000Y-101450000D01*
X106380000Y-100730000D02*
X106380000Y-93050000D01*
X106380000Y-103330000D02*
X106380000Y-102000000D01*
X107710000Y-103330000D02*
X106380000Y-103330000D01*
X108980000Y-100730000D02*
X106380000Y-100730000D01*
X108980000Y-103330000D02*
X108980000Y-100730000D01*
X111580000Y-93050000D02*
X106380000Y-93050000D01*
X111580000Y-103330000D02*
X108980000Y-103330000D01*
X111580000Y-103330000D02*
X111580000Y-93050000D01*
X127880000Y-103170000D02*
X127880000Y-105830000D01*
X127880000Y-103170000D02*
X130480000Y-103170000D01*
X127880000Y-105830000D02*
X133080000Y-105830000D01*
X130480000Y-103170000D02*
X130480000Y-105770000D01*
X130480000Y-105770000D02*
X133080000Y-105770000D01*
X131750000Y-103170000D02*
X133080000Y-103170000D01*
X133080000Y-103170000D02*
X133080000Y-104500000D01*
X133080000Y-105770000D02*
X133080000Y-105830000D01*
X126325000Y-90330000D02*
X127735000Y-90330000D01*
X126325000Y-92660000D02*
X127735000Y-92660000D01*
X127735000Y-90330000D02*
X127735000Y-91000000D01*
X127735000Y-92000000D02*
X127735000Y-92660000D01*
X125955000Y-90350000D02*
X125715000Y-90020000D01*
X126195000Y-90020000D01*
X125955000Y-90350000D01*
G36*
X125955000Y-90350000D02*
G01*
X125715000Y-90020000D01*
X126195000Y-90020000D01*
X125955000Y-90350000D01*
G37*
X112477500Y-98254724D02*
X112477500Y-97745276D01*
X113522500Y-98254724D02*
X113522500Y-97745276D01*
X132065000Y-96040000D02*
X132065000Y-96141724D01*
X132065000Y-96040000D02*
X132065000Y-98460000D01*
X132065000Y-96040000D02*
X132190000Y-96040000D01*
X132750000Y-96040000D02*
X133435000Y-96040000D01*
X133310000Y-98144493D02*
X133310000Y-98460000D01*
X133310000Y-98460000D02*
X132190000Y-98460000D01*
X133435000Y-96040000D02*
X133435000Y-96750000D01*
X141050000Y-114800000D02*
X142450000Y-114800000D01*
X141050000Y-116200000D02*
X141050000Y-114800000D01*
X142450000Y-114800000D02*
X142450000Y-116200000D01*
X142450000Y-116200000D02*
X141050000Y-116200000D01*
X122174000Y-114300000D02*
X122809000Y-114300000D01*
X122809000Y-114300000D02*
X122809000Y-114935000D01*
X141050000Y-116800000D02*
X142450000Y-116800000D01*
X141050000Y-118200000D02*
X141050000Y-116800000D01*
X142450000Y-116800000D02*
X142450000Y-118200000D01*
X142450000Y-118200000D02*
X141050000Y-118200000D01*
X134300000Y-100300000D02*
X135700000Y-100300000D01*
X134300000Y-101700000D02*
X134300000Y-100300000D01*
X135700000Y-100300000D02*
X135700000Y-101700000D01*
X135700000Y-101700000D02*
X134300000Y-101700000D01*
X127375000Y-110637000D02*
X127375000Y-109287000D01*
X129125000Y-110637000D02*
X129125000Y-109287000D01*
X118857500Y-109448724D02*
X118857500Y-108939276D01*
X119902500Y-109448724D02*
X119902500Y-108939276D01*
X137800000Y-104300000D02*
X139200000Y-104300000D01*
X137800000Y-105700000D02*
X137800000Y-104300000D01*
X139200000Y-104300000D02*
X139200000Y-105700000D01*
X139200000Y-105700000D02*
X137800000Y-105700000D01*
X128745276Y-94477500D02*
X129254724Y-94477500D01*
X128745276Y-95522500D02*
X129254724Y-95522500D01*
%LPC*%
D16*
X110500000Y-107000000D03*
D17*
X110500000Y-108000000D03*
D18*
X135000000Y-99000000D03*
X135000000Y-105500000D03*
D19*
X128800000Y-114525000D03*
X128800000Y-116275000D03*
D18*
X138500000Y-96750000D03*
D20*
X128162500Y-100156750D03*
X129987500Y-100156750D03*
D18*
X138500000Y-98750000D03*
D21*
X117856000Y-108331500D03*
X117856000Y-110056500D03*
D22*
X125828500Y-103588000D03*
X125828500Y-103088000D03*
X125828500Y-102588000D03*
X125828500Y-102088000D03*
X125828500Y-101588000D03*
X125828500Y-101088000D03*
X125828500Y-100588000D03*
X125828500Y-100088000D03*
X125828500Y-99588000D03*
X125828500Y-99088000D03*
X125828500Y-98588000D03*
X125828500Y-98088000D03*
D23*
X124416000Y-96675500D03*
X123916000Y-96675500D03*
X123416000Y-96675500D03*
X122916000Y-96675500D03*
X122416000Y-96675500D03*
X121916000Y-96675500D03*
X121416000Y-96675500D03*
X120916000Y-96675500D03*
X120416000Y-96675500D03*
X119916000Y-96675500D03*
X119416000Y-96675500D03*
X118916000Y-96675500D03*
D22*
X117503500Y-98088000D03*
X117503500Y-98588000D03*
X117503500Y-99088000D03*
X117503500Y-99588000D03*
X117503500Y-100088000D03*
X117503500Y-100588000D03*
X117503500Y-101088000D03*
X117503500Y-101588000D03*
X117503500Y-102088000D03*
X117503500Y-102588000D03*
X117503500Y-103088000D03*
X117503500Y-103588000D03*
D23*
X118916000Y-105000500D03*
X119416000Y-105000500D03*
X119916000Y-105000500D03*
X120416000Y-105000500D03*
X120916000Y-105000500D03*
X121416000Y-105000500D03*
X121916000Y-105000500D03*
X122416000Y-105000500D03*
X122916000Y-105000500D03*
X123416000Y-105000500D03*
X123916000Y-105000500D03*
X124416000Y-105000500D03*
D24*
X123952000Y-110082000D03*
X123952000Y-108332000D03*
D25*
X132500000Y-100000000D03*
X132500000Y-101825000D03*
D26*
X128212500Y-97000000D03*
X129962500Y-97000000D03*
X128229886Y-101750000D03*
X129979886Y-101750000D03*
D27*
X112500000Y-108412500D03*
X112500000Y-106587500D03*
D28*
X127387500Y-107168000D03*
X129112500Y-107168000D03*
D21*
X122428000Y-108344500D03*
X122428000Y-110069500D03*
X125476000Y-108344500D03*
X125476000Y-110069500D03*
D29*
X124333119Y-84679999D03*
X118553119Y-84679999D03*
D30*
X124643119Y-86139999D03*
X123843119Y-86139999D03*
D31*
X122693119Y-86139999D03*
X121693119Y-86139999D03*
X121193119Y-86139999D03*
X120193119Y-86139999D03*
D30*
X118243119Y-86139999D03*
X119043119Y-86139999D03*
D31*
X119693119Y-86139999D03*
X120693119Y-86139999D03*
X122193119Y-86139999D03*
X123193119Y-86139999D03*
D32*
X125763119Y-85179999D03*
X117123119Y-85179999D03*
D33*
X125763119Y-80999999D03*
X117123119Y-80999999D03*
D18*
X135000000Y-103250000D03*
D34*
X136500000Y-83000000D03*
D35*
X136500000Y-89500000D03*
D18*
X138500000Y-103000000D03*
D36*
X109000000Y-87100000D03*
X109000000Y-79900000D03*
X112000000Y-87100000D03*
X112000000Y-79900000D03*
D25*
X127254000Y-114403500D03*
X127254000Y-116228500D03*
D37*
X112850000Y-94830000D03*
X114150000Y-94830000D03*
X113500000Y-92170000D03*
D25*
X128016000Y-83435500D03*
X128016000Y-85260500D03*
D18*
X135000000Y-97000000D03*
X134000000Y-118250000D03*
D38*
X107500000Y-109130000D03*
D39*
X107500000Y-111670000D03*
X107500000Y-114210000D03*
X107500000Y-116750000D03*
D40*
X118660000Y-92562500D03*
X118660000Y-90837500D03*
D18*
X138500000Y-107000000D03*
D40*
X114000000Y-108362500D03*
X114000000Y-106637500D03*
X123740000Y-92562500D03*
X123740000Y-90837500D03*
D16*
X126000000Y-95500000D03*
D17*
X126000000Y-94500000D03*
D41*
X111412500Y-91500000D03*
X109587500Y-91500000D03*
D20*
X128175000Y-98600000D03*
X130000000Y-98600000D03*
D21*
X120904000Y-108344500D03*
X120904000Y-110069500D03*
D25*
X132500000Y-107250000D03*
X132500000Y-109075000D03*
D18*
X135000000Y-107500000D03*
D36*
X115300000Y-111000000D03*
X115300000Y-118200000D03*
X112300000Y-111000000D03*
X112300000Y-118200000D03*
D25*
X115000000Y-83435500D03*
X115000000Y-85260500D03*
D42*
X114858900Y-88148720D03*
X113500000Y-89500000D03*
D18*
X135000000Y-95000000D03*
D43*
X122150000Y-90450000D03*
X121200000Y-90450000D03*
X120250000Y-90450000D03*
X120250000Y-92950000D03*
X122150000Y-92950000D03*
D28*
X127387500Y-112756000D03*
X129112500Y-112756000D03*
D18*
X138500000Y-100750000D03*
D38*
X107710000Y-102000000D03*
D39*
X110250000Y-102000000D03*
X107710000Y-99460000D03*
X110250000Y-99460000D03*
X107710000Y-96920000D03*
X110250000Y-96920000D03*
X107710000Y-94380000D03*
X110250000Y-94380000D03*
D38*
X131750000Y-104500000D03*
D39*
X129210000Y-104500000D03*
D44*
X125670000Y-90850000D03*
X125670000Y-92150000D03*
X128330000Y-91500000D03*
D27*
X113000000Y-98912500D03*
X113000000Y-97087500D03*
D16*
X132750000Y-96750000D03*
D17*
X132750000Y-97750000D03*
D18*
X141750000Y-115500000D03*
D45*
X123444000Y-118110000D03*
D46*
X123444000Y-115570000D03*
D45*
X123444000Y-113030000D03*
X120269000Y-118110000D03*
X120269000Y-113030000D03*
D46*
X118364000Y-116586000D03*
X118364000Y-114554000D03*
D47*
X122174000Y-114935000D03*
X122174000Y-116205000D03*
X120904000Y-114935000D03*
X120904000Y-116205000D03*
X119634000Y-114935000D03*
X119634000Y-116205000D03*
D18*
X141750000Y-117500000D03*
X135000000Y-101000000D03*
D48*
X128250000Y-108712000D03*
X128250000Y-111212000D03*
D27*
X119380000Y-110106500D03*
X119380000Y-108281500D03*
D18*
X138500000Y-105000000D03*
D20*
X128087500Y-95000000D03*
X129912500Y-95000000D03*
%LPD*%
M02*
