G04 #@! TF.GenerationSoftware,KiCad,Pcbnew,8.0.1*
G04 #@! TF.CreationDate,2024-04-26T17:57:17-05:00*
G04 #@! TF.ProjectId,HCIPCB_ATSAMD21G18_template,48434950-4342-45f4-9154-53414d443231,rev?*
G04 #@! TF.SameCoordinates,Original*
G04 #@! TF.FileFunction,Legend,Bot*
G04 #@! TF.FilePolarity,Positive*
%FSLAX46Y46*%
G04 Gerber Fmt 4.6, Leading zero omitted, Abs format (unit mm)*
G04 Created by KiCad (PCBNEW 8.0.1) date 2024-04-26 17:57:17*
%MOMM*%
%LPD*%
G01*
G04 APERTURE LIST*
G04 Aperture macros list*
%AMRoundRect*
0 Rectangle with rounded corners*
0 $1 Rounding radius*
0 $2 $3 $4 $5 $6 $7 $8 $9 X,Y pos of 4 corners*
0 Add a 4 corners polygon primitive as box body*
4,1,4,$2,$3,$4,$5,$6,$7,$8,$9,$2,$3,0*
0 Add four circle primitives for the rounded corners*
1,1,$1+$1,$2,$3*
1,1,$1+$1,$4,$5*
1,1,$1+$1,$6,$7*
1,1,$1+$1,$8,$9*
0 Add four rect primitives between the rounded corners*
20,1,$1+$1,$2,$3,$4,$5,0*
20,1,$1+$1,$4,$5,$6,$7,0*
20,1,$1+$1,$6,$7,$8,$9,0*
20,1,$1+$1,$8,$9,$2,$3,0*%
G04 Aperture macros list end*
%ADD10C,0.152400*%
%ADD11R,0.850000X0.850000*%
%ADD12O,0.850000X0.850000*%
%ADD13C,0.650000*%
%ADD14O,1.204000X2.304000*%
%ADD15RoundRect,0.301000X0.301000X0.701000X-0.301000X0.701000X-0.301000X-0.701000X0.301000X-0.701000X0*%
%ADD16R,1.300000X1.300000*%
%ADD17C,1.300000*%
%ADD18R,1.700000X1.700000*%
%ADD19O,1.700000X1.700000*%
%ADD20C,1.879600*%
%ADD21C,2.374900*%
%ADD22C,0.990600*%
G04 APERTURE END LIST*
D10*
X125166361Y-82125291D02*
X125166361Y-82705863D01*
X125166361Y-82705863D02*
X125205066Y-82821977D01*
X125205066Y-82821977D02*
X125282475Y-82899387D01*
X125282475Y-82899387D02*
X125398590Y-82938091D01*
X125398590Y-82938091D02*
X125475999Y-82938091D01*
X124392266Y-82938091D02*
X124779314Y-82938091D01*
X124779314Y-82938091D02*
X124779314Y-82125291D01*
X123656876Y-82860682D02*
X123695580Y-82899387D01*
X123695580Y-82899387D02*
X123811695Y-82938091D01*
X123811695Y-82938091D02*
X123889104Y-82938091D01*
X123889104Y-82938091D02*
X124005218Y-82899387D01*
X124005218Y-82899387D02*
X124082628Y-82821977D01*
X124082628Y-82821977D02*
X124121333Y-82744567D01*
X124121333Y-82744567D02*
X124160037Y-82589748D01*
X124160037Y-82589748D02*
X124160037Y-82473634D01*
X124160037Y-82473634D02*
X124121333Y-82318815D01*
X124121333Y-82318815D02*
X124082628Y-82241406D01*
X124082628Y-82241406D02*
X124005218Y-82163996D01*
X124005218Y-82163996D02*
X123889104Y-82125291D01*
X123889104Y-82125291D02*
X123811695Y-82125291D01*
X123811695Y-82125291D02*
X123695580Y-82163996D01*
X123695580Y-82163996D02*
X123656876Y-82202701D01*
X123076304Y-82125291D02*
X123076304Y-82705863D01*
X123076304Y-82705863D02*
X123115009Y-82821977D01*
X123115009Y-82821977D02*
X123192418Y-82899387D01*
X123192418Y-82899387D02*
X123308533Y-82938091D01*
X123308533Y-82938091D02*
X123385942Y-82938091D01*
X122302209Y-82938091D02*
X122689257Y-82938091D01*
X122689257Y-82938091D02*
X122689257Y-82125291D01*
X121566819Y-82860682D02*
X121605523Y-82899387D01*
X121605523Y-82899387D02*
X121721638Y-82938091D01*
X121721638Y-82938091D02*
X121799047Y-82938091D01*
X121799047Y-82938091D02*
X121915161Y-82899387D01*
X121915161Y-82899387D02*
X121992571Y-82821977D01*
X121992571Y-82821977D02*
X122031276Y-82744567D01*
X122031276Y-82744567D02*
X122069980Y-82589748D01*
X122069980Y-82589748D02*
X122069980Y-82473634D01*
X122069980Y-82473634D02*
X122031276Y-82318815D01*
X122031276Y-82318815D02*
X121992571Y-82241406D01*
X121992571Y-82241406D02*
X121915161Y-82163996D01*
X121915161Y-82163996D02*
X121799047Y-82125291D01*
X121799047Y-82125291D02*
X121721638Y-82125291D01*
X121721638Y-82125291D02*
X121605523Y-82163996D01*
X121605523Y-82163996D02*
X121566819Y-82202701D01*
X120986247Y-82125291D02*
X120986247Y-82705863D01*
X120986247Y-82705863D02*
X121024952Y-82821977D01*
X121024952Y-82821977D02*
X121102361Y-82899387D01*
X121102361Y-82899387D02*
X121218476Y-82938091D01*
X121218476Y-82938091D02*
X121295885Y-82938091D01*
X120212152Y-82938091D02*
X120599200Y-82938091D01*
X120599200Y-82938091D02*
X120599200Y-82125291D01*
X119476762Y-82860682D02*
X119515466Y-82899387D01*
X119515466Y-82899387D02*
X119631581Y-82938091D01*
X119631581Y-82938091D02*
X119708990Y-82938091D01*
X119708990Y-82938091D02*
X119825104Y-82899387D01*
X119825104Y-82899387D02*
X119902514Y-82821977D01*
X119902514Y-82821977D02*
X119941219Y-82744567D01*
X119941219Y-82744567D02*
X119979923Y-82589748D01*
X119979923Y-82589748D02*
X119979923Y-82473634D01*
X119979923Y-82473634D02*
X119941219Y-82318815D01*
X119941219Y-82318815D02*
X119902514Y-82241406D01*
X119902514Y-82241406D02*
X119825104Y-82163996D01*
X119825104Y-82163996D02*
X119708990Y-82125291D01*
X119708990Y-82125291D02*
X119631581Y-82125291D01*
X119631581Y-82125291D02*
X119515466Y-82163996D01*
X119515466Y-82163996D02*
X119476762Y-82202701D01*
X118896190Y-82125291D02*
X118896190Y-82705863D01*
X118896190Y-82705863D02*
X118934895Y-82821977D01*
X118934895Y-82821977D02*
X119012304Y-82899387D01*
X119012304Y-82899387D02*
X119128419Y-82938091D01*
X119128419Y-82938091D02*
X119205828Y-82938091D01*
X118122095Y-82938091D02*
X118509143Y-82938091D01*
X118509143Y-82938091D02*
X118509143Y-82125291D01*
X117386705Y-82860682D02*
X117425409Y-82899387D01*
X117425409Y-82899387D02*
X117541524Y-82938091D01*
X117541524Y-82938091D02*
X117618933Y-82938091D01*
X117618933Y-82938091D02*
X117735047Y-82899387D01*
X117735047Y-82899387D02*
X117812457Y-82821977D01*
X117812457Y-82821977D02*
X117851162Y-82744567D01*
X117851162Y-82744567D02*
X117889866Y-82589748D01*
X117889866Y-82589748D02*
X117889866Y-82473634D01*
X117889866Y-82473634D02*
X117851162Y-82318815D01*
X117851162Y-82318815D02*
X117812457Y-82241406D01*
X117812457Y-82241406D02*
X117735047Y-82163996D01*
X117735047Y-82163996D02*
X117618933Y-82125291D01*
X117618933Y-82125291D02*
X117541524Y-82125291D01*
X117541524Y-82125291D02*
X117425409Y-82163996D01*
X117425409Y-82163996D02*
X117386705Y-82202701D01*
%LPC*%
D11*
X110500000Y-107000000D03*
D12*
X110500000Y-108000000D03*
D13*
X124333119Y-84679999D03*
X118553119Y-84679999D03*
D14*
X125763119Y-85179999D03*
X117123119Y-85179999D03*
D15*
X125763119Y-80999999D03*
X117123119Y-80999999D03*
D16*
X136500000Y-83000000D03*
D17*
X136500000Y-89500000D03*
D18*
X107500000Y-109130000D03*
D19*
X107500000Y-111670000D03*
X107500000Y-114210000D03*
X107500000Y-116750000D03*
D11*
X126000000Y-95500000D03*
D12*
X126000000Y-94500000D03*
D20*
X114858900Y-88148720D03*
X113500000Y-89500000D03*
D18*
X107710000Y-102000000D03*
D19*
X110250000Y-102000000D03*
X107710000Y-99460000D03*
X110250000Y-99460000D03*
X107710000Y-96920000D03*
X110250000Y-96920000D03*
X107710000Y-94380000D03*
X110250000Y-94380000D03*
D18*
X131750000Y-104500000D03*
D19*
X129210000Y-104500000D03*
D11*
X132750000Y-96750000D03*
D12*
X132750000Y-97750000D03*
D21*
X123444000Y-118110000D03*
D22*
X123444000Y-115570000D03*
D21*
X123444000Y-113030000D03*
X120269000Y-118110000D03*
X120269000Y-113030000D03*
D22*
X118364000Y-116586000D03*
X118364000Y-114554000D03*
%LPD*%
M02*
